%TF.GenerationSoftware,KiCad,Pcbnew,10.0.1*%
%TF.CreationDate,2026-04-24T11:43:43+02:00*%
%TF.ProjectId,BLDC,424c4443-2e6b-4696-9361-645f70636258,rev?*%
%TF.SameCoordinates,Original*%
%TF.FileFunction,Copper,L2,Bot*%
%TF.FilePolarity,Positive*%
%FSLAX46Y46*%
G04 Gerber Fmt 4.6, Leading zero omitted, Abs format (unit mm)*
G04 Created by KiCad (PCBNEW 10.0.1) date 2026-04-24 11:43:43*
%MOMM*%
%LPD*%
G01*
G04 APERTURE LIST*
G04 Aperture macros list*
%AMRoundRect*
0 Rectangle with rounded corners*
0 $1 Rounding radius*
0 $2 $3 $4 $5 $6 $7 $8 $9 X,Y pos of 4 corners*
0 Add a 4 corners polygon primitive as box body*
4,1,4,$2,$3,$4,$5,$6,$7,$8,$9,$2,$3,0*
0 Add four circle primitives for the rounded corners*
1,1,$1+$1,$2,$3*
1,1,$1+$1,$4,$5*
1,1,$1+$1,$6,$7*
1,1,$1+$1,$8,$9*
0 Add four rect primitives between the rounded corners*
20,1,$1+$1,$2,$3,$4,$5,0*
20,1,$1+$1,$4,$5,$6,$7,0*
20,1,$1+$1,$6,$7,$8,$9,0*
20,1,$1+$1,$8,$9,$2,$3,0*%
%AMOutline4P*
0 Free polygon, 4 corners , with rotation*
0 The origin of the aperture is its center*
0 number of corners: always 4*
0 $1 to $8 corner X, Y*
0 $9 Rotation angle, in degrees counterclockwise*
0 create outline with 4 corners*
4,1,4,$1,$2,$3,$4,$5,$6,$7,$8,$1,$2,$9*%
G04 Aperture macros list end*
%TA.AperFunction,ComponentPad*%
%ADD10R,1.100000X1.800000*%
%TD*%
%TA.AperFunction,ComponentPad*%
%ADD11RoundRect,0.275000X0.275000X0.625000X-0.275000X0.625000X-0.275000X-0.625000X0.275000X-0.625000X0*%
%TD*%
%TA.AperFunction,ComponentPad*%
%ADD12R,1.800000X1.100000*%
%TD*%
%TA.AperFunction,ComponentPad*%
%ADD13RoundRect,0.275000X-0.625000X0.275000X-0.625000X-0.275000X0.625000X-0.275000X0.625000X0.275000X0*%
%TD*%
%TA.AperFunction,ComponentPad*%
%ADD14RoundRect,0.250000X1.000000X-1.000000X1.000000X1.000000X-1.000000X1.000000X-1.000000X-1.000000X0*%
%TD*%
%TA.AperFunction,ComponentPad*%
%ADD15C,2.500000*%
%TD*%
%TA.AperFunction,ComponentPad*%
%ADD16RoundRect,0.250001X-0.949999X-0.949999X0.949999X-0.949999X0.949999X0.949999X-0.949999X0.949999X0*%
%TD*%
%TA.AperFunction,ComponentPad*%
%ADD17C,2.400000*%
%TD*%
%TA.AperFunction,ComponentPad*%
%ADD18RoundRect,0.250000X1.550000X-0.650000X1.550000X0.650000X-1.550000X0.650000X-1.550000X-0.650000X0*%
%TD*%
%TA.AperFunction,ComponentPad*%
%ADD19O,3.600000X1.800000*%
%TD*%
%TA.AperFunction,ComponentPad*%
%ADD20RoundRect,0.250000X0.725000X-0.600000X0.725000X0.600000X-0.725000X0.600000X-0.725000X-0.600000X0*%
%TD*%
%TA.AperFunction,ComponentPad*%
%ADD21O,1.950000X1.700000*%
%TD*%
%TA.AperFunction,ComponentPad*%
%ADD22R,1.905000X2.000000*%
%TD*%
%TA.AperFunction,ComponentPad*%
%ADD23O,1.905000X2.000000*%
%TD*%
%TA.AperFunction,SMDPad,CuDef*%
%ADD24RoundRect,0.225000X0.225000X0.375000X-0.225000X0.375000X-0.225000X-0.375000X0.225000X-0.375000X0*%
%TD*%
%TA.AperFunction,SMDPad,CuDef*%
%ADD25RoundRect,0.250000X0.262500X0.450000X-0.262500X0.450000X-0.262500X-0.450000X0.262500X-0.450000X0*%
%TD*%
%TA.AperFunction,SMDPad,CuDef*%
%ADD26Outline4P,-1.800000X-1.150000X1.800000X-0.550000X1.800000X0.550000X-1.800000X1.150000X0.000000*%
%TD*%
%TA.AperFunction,SMDPad,CuDef*%
%ADD27Outline4P,-1.800000X-1.150000X1.800000X-0.550000X1.800000X0.550000X-1.800000X1.150000X180.000000*%
%TD*%
%TA.AperFunction,SMDPad,CuDef*%
%ADD28Outline4P,-1.800000X-1.150000X1.800000X-0.550000X1.800000X0.550000X-1.800000X1.150000X90.000000*%
%TD*%
%TA.AperFunction,SMDPad,CuDef*%
%ADD29Outline4P,-1.800000X-1.150000X1.800000X-0.550000X1.800000X0.550000X-1.800000X1.150000X270.000000*%
%TD*%
%TA.AperFunction,SMDPad,CuDef*%
%ADD30RoundRect,0.250000X-0.262500X-0.450000X0.262500X-0.450000X0.262500X0.450000X-0.262500X0.450000X0*%
%TD*%
%TA.AperFunction,SMDPad,CuDef*%
%ADD31RoundRect,0.250000X0.450000X-0.262500X0.450000X0.262500X-0.450000X0.262500X-0.450000X-0.262500X0*%
%TD*%
%TA.AperFunction,SMDPad,CuDef*%
%ADD32RoundRect,0.250000X-0.450000X0.262500X-0.450000X-0.262500X0.450000X-0.262500X0.450000X0.262500X0*%
%TD*%
%TA.AperFunction,SMDPad,CuDef*%
%ADD33RoundRect,0.250000X-0.412500X-0.650000X0.412500X-0.650000X0.412500X0.650000X-0.412500X0.650000X0*%
%TD*%
%TA.AperFunction,SMDPad,CuDef*%
%ADD34RoundRect,0.250000X0.650000X-1.500000X0.650000X1.500000X-0.650000X1.500000X-0.650000X-1.500000X0*%
%TD*%
%TA.AperFunction,ViaPad*%
%ADD35C,4.000000*%
%TD*%
%TA.AperFunction,ViaPad*%
%ADD36C,2.000000*%
%TD*%
%TA.AperFunction,Conductor*%
%ADD37C,0.750000*%
%TD*%
%TA.AperFunction,Conductor*%
%ADD38C,0.500000*%
%TD*%
%TA.AperFunction,Conductor*%
%ADD39C,2.000000*%
%TD*%
%TA.AperFunction,Conductor*%
%ADD40C,1.000000*%
%TD*%
%TA.AperFunction,Conductor*%
%ADD41C,1.500000*%
%TD*%
%ADD42C,0.350000*%
G04 APERTURE END LIST*
D10*
%TO.P,Q3,1,C_1*%
%TO.N,GND*%
X169000000Y-78380000D03*
D11*
%TO.P,Q3,2,B_2*%
%TO.N,Net-(Q1-B)*%
X167730000Y-80450000D03*
%TO.P,Q3,3,E_3*%
%TO.N,Net-(D2-K)*%
X166460000Y-78380000D03*
%TD*%
D10*
%TO.P,Q19,1,C_1*%
%TO.N,GND*%
X169000000Y-122987500D03*
D11*
%TO.P,Q19,2,B_2*%
%TO.N,Net-(Q17-B)*%
X167730000Y-125057500D03*
%TO.P,Q19,3,E_3*%
%TO.N,Net-(D12-K)*%
X166460000Y-122987500D03*
%TD*%
D12*
%TO.P,Q4,1,C_1*%
%TO.N,Net-(Q1-B)*%
X160080000Y-77980000D03*
D13*
%TO.P,Q4,2,B_2*%
%TO.N,Net-(Q4-B)*%
X162150000Y-79250000D03*
%TO.P,Q4,3,E_3*%
%TO.N,GND*%
X160080000Y-80520000D03*
%TD*%
D14*
%TO.P,J1,1,Pin_1_1*%
%TO.N,+24V*%
X203417500Y-125250000D03*
D15*
%TO.P,J1,2,Pin_2_2*%
%TO.N,+12V*%
X203417500Y-120250000D03*
%TO.P,J1,3,Pin_3_3*%
%TO.N,GND*%
X203417500Y-115250000D03*
%TD*%
D16*
%TO.P,C1,1*%
%TO.N,+24V*%
X175184785Y-75750000D03*
D17*
%TO.P,C1,2*%
%TO.N,GND*%
X180184785Y-75750000D03*
%TD*%
D10*
%TO.P,Q23,1,C_1*%
%TO.N,GND*%
X194270000Y-116877500D03*
D11*
%TO.P,Q23,2,B_2*%
%TO.N,Net-(Q21-B)*%
X193000000Y-118947500D03*
%TO.P,Q23,3,E_3*%
%TO.N,Net-(D15-K)*%
X191730000Y-116877500D03*
%TD*%
D10*
%TO.P,Q5,1,C_1*%
%TO.N,+12V*%
X194270000Y-78390000D03*
D11*
%TO.P,Q5,2,B_2*%
%TO.N,Net-(Q5-B)*%
X193000000Y-80460000D03*
%TO.P,Q5,3,E_3*%
%TO.N,Net-(D5-K)*%
X191730000Y-78390000D03*
%TD*%
D10*
%TO.P,Q21,1,C_1*%
%TO.N,+12V*%
X194270000Y-123077500D03*
D11*
%TO.P,Q21,2,B_2*%
%TO.N,Net-(Q21-B)*%
X193000000Y-125147500D03*
%TO.P,Q21,3,E_3*%
%TO.N,Net-(D15-K)*%
X191730000Y-123077500D03*
%TD*%
D12*
%TO.P,Q20,1,C_1*%
%TO.N,Net-(Q17-B)*%
X160090000Y-122667500D03*
D13*
%TO.P,Q20,2,B_2*%
%TO.N,Net-(Q20-B)*%
X162160000Y-123937500D03*
%TO.P,Q20,3,E_3*%
%TO.N,GND*%
X160090000Y-125207500D03*
%TD*%
D10*
%TO.P,Q1,1,C_1*%
%TO.N,+24V*%
X169000000Y-72180000D03*
D11*
%TO.P,Q1,2,B_2*%
%TO.N,Net-(Q1-B)*%
X167730000Y-74250000D03*
%TO.P,Q1,3,E_3*%
%TO.N,Net-(D2-K)*%
X166460000Y-72180000D03*
%TD*%
D10*
%TO.P,Q9,1,C_1*%
%TO.N,+24V*%
X168950000Y-94450000D03*
D11*
%TO.P,Q9,2,B_2*%
%TO.N,Net-(Q11-B)*%
X167680000Y-96520000D03*
%TO.P,Q9,3,E_3*%
%TO.N,Net-(D7-K)*%
X166410000Y-94450000D03*
%TD*%
D10*
%TO.P,Q15,1,C_1*%
%TO.N,GND*%
X194220000Y-94490000D03*
D11*
%TO.P,Q15,2,B_2*%
%TO.N,Net-(Q13-B)*%
X192950000Y-96560000D03*
%TO.P,Q15,3,E_3*%
%TO.N,Net-(D10-K)*%
X191680000Y-94490000D03*
%TD*%
D16*
%TO.P,C3,1*%
%TO.N,+24V*%
X175184785Y-120337500D03*
D17*
%TO.P,C3,2*%
%TO.N,GND*%
X180184785Y-120337500D03*
%TD*%
D18*
%TO.P,J2,1,Pin_1_1*%
%TO.N,/half_bridge2/OUT*%
X202817500Y-98810000D03*
D19*
%TO.P,J2,2,Pin_2_2*%
%TO.N,/half_bridge1/OUT*%
X202817500Y-95000000D03*
%TO.P,J2,3,Pin_3_3*%
%TO.N,/half_bridge/OUT*%
X202817500Y-91190000D03*
%TD*%
D20*
%TO.P,J3,1,Pin_1_1*%
%TO.N,GND*%
X203750000Y-78250000D03*
D21*
%TO.P,J3,2,Pin_2_2*%
%TO.N,/half_bridge2/IN_L*%
X203750000Y-75750000D03*
%TO.P,J3,3,Pin_3_3*%
%TO.N,/half_bridge2/IN_H*%
X203750000Y-73250000D03*
%TO.P,J3,4,Pin_4_4*%
%TO.N,/half_bridge1/IN_L*%
X203750000Y-70750000D03*
%TO.P,J3,5,Pin_5_5*%
%TO.N,/half_bridge1/IN_H*%
X203750000Y-68250000D03*
%TO.P,J3,6,Pin_6_6*%
%TO.N,/half_bridge/IN_L*%
X203750000Y-65750000D03*
%TO.P,J3,7,Pin_7_7*%
%TO.N,/half_bridge/IN_H*%
X203750000Y-63250000D03*
%TD*%
D10*
%TO.P,Q7,1,C_1*%
%TO.N,GND*%
X194270000Y-72190000D03*
D11*
%TO.P,Q7,2,B_2*%
%TO.N,Net-(Q5-B)*%
X193000000Y-74260000D03*
%TO.P,Q7,3,E_3*%
%TO.N,Net-(D5-K)*%
X191730000Y-72190000D03*
%TD*%
D22*
%TO.P,Q6,1,G_1*%
%TO.N,Net-(D5-A)*%
X185460000Y-68700000D03*
D23*
%TO.P,Q6,2,D_2*%
%TO.N,/half_bridge/OUT*%
X188000000Y-68700000D03*
%TO.P,Q6,3,S_3*%
%TO.N,GND*%
X190540000Y-68700000D03*
%TD*%
D12*
%TO.P,Q12,1,C_1*%
%TO.N,Net-(Q11-B)*%
X160015000Y-100280000D03*
D13*
%TO.P,Q12,2,B_2*%
%TO.N,Net-(Q12-B)*%
X162085000Y-101550000D03*
%TO.P,Q12,3,E_3*%
%TO.N,GND*%
X160015000Y-102820000D03*
%TD*%
D16*
%TO.P,C2,1*%
%TO.N,+24V*%
X175134785Y-98050000D03*
D17*
%TO.P,C2,2*%
%TO.N,GND*%
X180134785Y-98050000D03*
%TD*%
D10*
%TO.P,Q16,1,C_1*%
%TO.N,Net-(Q13-B)*%
X188555201Y-100741139D03*
D11*
%TO.P,Q16,2,B_2*%
%TO.N,Net-(Q16-B)*%
X187285201Y-102811139D03*
%TO.P,Q16,3,E_3*%
%TO.N,GND*%
X186015201Y-100741139D03*
%TD*%
D10*
%TO.P,Q8,1,C_1*%
%TO.N,Net-(Q5-B)*%
X188670000Y-78380000D03*
D11*
%TO.P,Q8,2,B_2*%
%TO.N,Net-(Q8-B)*%
X187400000Y-80450000D03*
%TO.P,Q8,3,E_3*%
%TO.N,GND*%
X186130000Y-78380000D03*
%TD*%
D22*
%TO.P,Q14,1,G_1*%
%TO.N,Net-(D10-A)*%
X185410000Y-91000000D03*
D23*
%TO.P,Q14,2,D_2*%
%TO.N,/half_bridge1/OUT*%
X187950000Y-91000000D03*
%TO.P,Q14,3,S_3*%
%TO.N,GND*%
X190490000Y-91000000D03*
%TD*%
D22*
%TO.P,Q10,1,G_1*%
%TO.N,Net-(D7-A)*%
X163910000Y-91000000D03*
D23*
%TO.P,Q10,2,D_2*%
%TO.N,/half_bridge1/OUT*%
X166450000Y-91000000D03*
%TO.P,Q10,3,S_3*%
%TO.N,+24V*%
X168990000Y-91000000D03*
%TD*%
D22*
%TO.P,Q22,1,G_1*%
%TO.N,Net-(D15-A)*%
X185460000Y-113287500D03*
D23*
%TO.P,Q22,2,D_2*%
%TO.N,/half_bridge2/OUT*%
X188000000Y-113287500D03*
%TO.P,Q22,3,S_3*%
%TO.N,GND*%
X190540000Y-113287500D03*
%TD*%
D10*
%TO.P,Q24,1,C_1*%
%TO.N,Net-(Q21-B)*%
X188670000Y-123117500D03*
D11*
%TO.P,Q24,2,B_2*%
%TO.N,Net-(Q24-B)*%
X187400000Y-125187500D03*
%TO.P,Q24,3,E_3*%
%TO.N,GND*%
X186130000Y-123117500D03*
%TD*%
D22*
%TO.P,Q18,1,G_1*%
%TO.N,Net-(D12-A)*%
X163960000Y-113287500D03*
D23*
%TO.P,Q18,2,D_2*%
%TO.N,/half_bridge2/OUT*%
X166500000Y-113287500D03*
%TO.P,Q18,3,S_3*%
%TO.N,+24V*%
X169040000Y-113287500D03*
%TD*%
D10*
%TO.P,Q13,1,C_1*%
%TO.N,+12V*%
X194220000Y-100690000D03*
D11*
%TO.P,Q13,2,B_2*%
%TO.N,Net-(Q13-B)*%
X192950000Y-102760000D03*
%TO.P,Q13,3,E_3*%
%TO.N,Net-(D10-K)*%
X191680000Y-100690000D03*
%TD*%
D10*
%TO.P,Q11,1,C_1*%
%TO.N,GND*%
X168950000Y-100600000D03*
D11*
%TO.P,Q11,2,B_2*%
%TO.N,Net-(Q11-B)*%
X167680000Y-102670000D03*
%TO.P,Q11,3,E_3*%
%TO.N,Net-(D7-K)*%
X166410000Y-100600000D03*
%TD*%
D10*
%TO.P,Q17,1,C_1*%
%TO.N,+24V*%
X168990686Y-116883396D03*
D11*
%TO.P,Q17,2,B_2*%
%TO.N,Net-(Q17-B)*%
X167720686Y-118953396D03*
%TO.P,Q17,3,E_3*%
%TO.N,Net-(D12-K)*%
X166450686Y-116883396D03*
%TD*%
D22*
%TO.P,Q2,1,G_1*%
%TO.N,Net-(D2-A)*%
X163960000Y-68700000D03*
D23*
%TO.P,Q2,2,D_2*%
%TO.N,/half_bridge/OUT*%
X166500000Y-68700000D03*
%TO.P,Q2,3,S_3*%
%TO.N,+24V*%
X169040000Y-68700000D03*
%TD*%
D24*
%TO.P,D7,1,K_1*%
%TO.N,Net-(D7-K)*%
X163250000Y-94800000D03*
%TO.P,D7,2,A_2*%
%TO.N,Net-(D7-A)*%
X159950000Y-94800000D03*
%TD*%
D25*
%TO.P,R17,1*%
%TO.N,+24V*%
X169592500Y-120837500D03*
%TO.P,R17,2*%
%TO.N,Net-(Q17-B)*%
X167767500Y-120837500D03*
%TD*%
D26*
%TO.P,D4,1,K_1*%
%TO.N,/half_bridge/OUT*%
X188100000Y-64500000D03*
D27*
%TO.P,D4,2,A_2*%
%TO.N,GND*%
X193900000Y-64500000D03*
%TD*%
D24*
%TO.P,D15,1,K_1*%
%TO.N,Net-(D15-K)*%
X188800000Y-117087500D03*
%TO.P,D15,2,A_2*%
%TO.N,Net-(D15-A)*%
X185500000Y-117087500D03*
%TD*%
D28*
%TO.P,D6,1,K_1*%
%TO.N,+24V*%
X172660735Y-93424714D03*
D29*
%TO.P,D6,2,A_2*%
%TO.N,/half_bridge1/OUT*%
X172660735Y-87624714D03*
%TD*%
D28*
%TO.P,D11,1,K_1*%
%TO.N,+24V*%
X172750000Y-115737500D03*
D29*
%TO.P,D11,2,A_2*%
%TO.N,/half_bridge2/OUT*%
X172750000Y-109937500D03*
%TD*%
D30*
%TO.P,R8,1*%
%TO.N,/half_bridge/IN_L*%
X182537500Y-79250000D03*
%TO.P,R8,2*%
%TO.N,Net-(Q8-B)*%
X184362500Y-79250000D03*
%TD*%
D25*
%TO.P,R21,1*%
%TO.N,+12V*%
X194812500Y-121087500D03*
%TO.P,R21,2*%
%TO.N,Net-(Q21-B)*%
X192987500Y-121087500D03*
%TD*%
%TO.P,R10,1*%
%TO.N,Net-(D7-K)*%
X162612500Y-97300000D03*
%TO.P,R10,2*%
%TO.N,Net-(D7-A)*%
X160787500Y-97300000D03*
%TD*%
D28*
%TO.P,D1,1,K_1*%
%TO.N,+24V*%
X172750000Y-71150000D03*
D29*
%TO.P,D1,2,A_2*%
%TO.N,/half_bridge/OUT*%
X172750000Y-65350000D03*
%TD*%
D25*
%TO.P,R13,1*%
%TO.N,+12V*%
X194762500Y-98800000D03*
%TO.P,R13,2*%
%TO.N,Net-(Q13-B)*%
X192937500Y-98800000D03*
%TD*%
%TO.P,R18,1*%
%TO.N,Net-(D12-K)*%
X162662500Y-119587500D03*
%TO.P,R18,2*%
%TO.N,Net-(D12-A)*%
X160837500Y-119587500D03*
%TD*%
D26*
%TO.P,D9,1,K_1*%
%TO.N,/half_bridge1/OUT*%
X188050000Y-86800000D03*
D27*
%TO.P,D9,2,A_2*%
%TO.N,GND*%
X193850000Y-86800000D03*
%TD*%
D31*
%TO.P,R4,1*%
%TO.N,/half_bridge/IN_H*%
X164250000Y-82912500D03*
%TO.P,R4,2*%
%TO.N,Net-(Q4-B)*%
X164250000Y-81087500D03*
%TD*%
D32*
%TO.P,R7,1*%
%TO.N,Net-(D5-A)*%
X182750000Y-70000000D03*
%TO.P,R7,2*%
%TO.N,GND*%
X182750000Y-71825000D03*
%TD*%
D31*
%TO.P,R12,1*%
%TO.N,/half_bridge1/IN_H*%
X164200000Y-105212500D03*
%TO.P,R12,2*%
%TO.N,Net-(Q12-B)*%
X164200000Y-103387500D03*
%TD*%
D24*
%TO.P,D5,1,K_1*%
%TO.N,Net-(D5-K)*%
X188800000Y-72500000D03*
%TO.P,D5,2,A_2*%
%TO.N,Net-(D5-A)*%
X185500000Y-72500000D03*
%TD*%
D25*
%TO.P,R2,1*%
%TO.N,Net-(D2-K)*%
X162662500Y-75000000D03*
%TO.P,R2,2*%
%TO.N,Net-(D2-A)*%
X160837500Y-75000000D03*
%TD*%
D30*
%TO.P,R24,1*%
%TO.N,/half_bridge2/IN_L*%
X182487499Y-123847688D03*
%TO.P,R24,2*%
%TO.N,Net-(Q24-B)*%
X184312499Y-123847688D03*
%TD*%
D33*
%TO.P,C4,1*%
%TO.N,+24V*%
X175937500Y-72500000D03*
%TO.P,C4,2*%
%TO.N,GND*%
X179062500Y-72500000D03*
%TD*%
D24*
%TO.P,D12,1,K_1*%
%TO.N,Net-(D12-K)*%
X163300000Y-117087500D03*
%TO.P,D12,2,A_2*%
%TO.N,Net-(D12-A)*%
X160000000Y-117087500D03*
%TD*%
D34*
%TO.P,D3,1,K_1*%
%TO.N,Net-(D2-A)*%
X160000000Y-68750000D03*
%TO.P,D3,2,A_2*%
%TO.N,GND*%
X160000000Y-63750000D03*
%TD*%
D32*
%TO.P,R15,1*%
%TO.N,Net-(D10-A)*%
X182700000Y-92300000D03*
%TO.P,R15,2*%
%TO.N,GND*%
X182700000Y-94125000D03*
%TD*%
D24*
%TO.P,D10,1,K_1*%
%TO.N,Net-(D10-K)*%
X188750000Y-94800000D03*
%TO.P,D10,2,A_2*%
%TO.N,Net-(D10-A)*%
X185450000Y-94800000D03*
%TD*%
D31*
%TO.P,R20,1*%
%TO.N,/half_bridge2/IN_H*%
X164250000Y-127500000D03*
%TO.P,R20,2*%
%TO.N,Net-(Q20-B)*%
X164250000Y-125675000D03*
%TD*%
D26*
%TO.P,D14,1,K_1*%
%TO.N,/half_bridge2/OUT*%
X188100000Y-109087500D03*
D27*
%TO.P,D14,2,A_2*%
%TO.N,GND*%
X193900000Y-109087500D03*
%TD*%
D33*
%TO.P,C5,1*%
%TO.N,+24V*%
X175887500Y-94800000D03*
%TO.P,C5,2*%
%TO.N,GND*%
X179012500Y-94800000D03*
%TD*%
D25*
%TO.P,R6,1*%
%TO.N,Net-(D5-K)*%
X188162500Y-75000000D03*
%TO.P,R6,2*%
%TO.N,Net-(D5-A)*%
X186337500Y-75000000D03*
%TD*%
%TO.P,R14,1*%
%TO.N,Net-(D10-K)*%
X188112500Y-97300000D03*
%TO.P,R14,2*%
%TO.N,Net-(D10-A)*%
X186287500Y-97300000D03*
%TD*%
D34*
%TO.P,D13,1,K_1*%
%TO.N,Net-(D12-A)*%
X160000000Y-113337500D03*
%TO.P,D13,2,A_2*%
%TO.N,GND*%
X160000000Y-108337500D03*
%TD*%
D33*
%TO.P,C6,1*%
%TO.N,+24V*%
X175937500Y-117087500D03*
%TO.P,C6,2*%
%TO.N,GND*%
X179062500Y-117087500D03*
%TD*%
D25*
%TO.P,R5,1*%
%TO.N,+12V*%
X194812500Y-76500000D03*
%TO.P,R5,2*%
%TO.N,Net-(Q5-B)*%
X192987500Y-76500000D03*
%TD*%
D24*
%TO.P,D2,1,K_1*%
%TO.N,Net-(D2-K)*%
X163300000Y-72500000D03*
%TO.P,D2,2,A_2*%
%TO.N,Net-(D2-A)*%
X160000000Y-72500000D03*
%TD*%
D30*
%TO.P,R16,1*%
%TO.N,/half_bridge1/IN_L*%
X182466417Y-101544142D03*
%TO.P,R16,2*%
%TO.N,Net-(Q16-B)*%
X184291417Y-101544142D03*
%TD*%
D25*
%TO.P,R22,1*%
%TO.N,Net-(D15-K)*%
X188162500Y-119587500D03*
%TO.P,R22,2*%
%TO.N,Net-(D15-A)*%
X186337500Y-119587500D03*
%TD*%
%TO.P,R1,1*%
%TO.N,+24V*%
X169592500Y-76250000D03*
%TO.P,R1,2*%
%TO.N,Net-(Q1-B)*%
X167767500Y-76250000D03*
%TD*%
D34*
%TO.P,D8,1,K_1*%
%TO.N,Net-(D7-A)*%
X159950000Y-91050000D03*
%TO.P,D8,2,A_2*%
%TO.N,GND*%
X159950000Y-86050000D03*
%TD*%
D25*
%TO.P,R9,1*%
%TO.N,+24V*%
X169542500Y-98550000D03*
%TO.P,R9,2*%
%TO.N,Net-(Q11-B)*%
X167717500Y-98550000D03*
%TD*%
D32*
%TO.P,R23,1*%
%TO.N,Net-(D15-A)*%
X182750000Y-114587500D03*
%TO.P,R23,2*%
%TO.N,GND*%
X182750000Y-116412500D03*
%TD*%
D35*
%TO.N,/half_bridge2/OUT*%
X179000000Y-109537500D03*
%TO.N,/half_bridge1/OUT*%
X178950000Y-87250000D03*
%TO.N,/half_bridge/OUT*%
X179000000Y-64950000D03*
D36*
%TO.N,/half_bridge2/IN_L*%
X182500000Y-127000000D03*
X199750000Y-75750000D03*
%TO.N,/half_bridge2/IN_H*%
X199750000Y-73250000D03*
X168250000Y-127500000D03*
%TO.N,/half_bridge1/IN_L*%
X199750000Y-70750000D03*
X182500000Y-104750000D03*
%TO.N,/half_bridge1/IN_H*%
X168250000Y-105250000D03*
X199750000Y-68250000D03*
%TO.N,/half_bridge/IN_L*%
X182500000Y-82500000D03*
X199750000Y-65750000D03*
%TO.N,/half_bridge/IN_H*%
X199750000Y-63250000D03*
X168250000Y-83000000D03*
%TD*%
%TO.N,Net-(Q1-B)*%
D37*
X167730000Y-76212500D02*
X167767500Y-76250000D01*
D38*
X160480000Y-77980000D02*
X163780000Y-77980000D01*
X167730000Y-76287500D02*
X167767500Y-76250000D01*
X166200000Y-80400000D02*
X167380000Y-80400000D01*
X163780000Y-77980000D02*
X166200000Y-80400000D01*
X167730000Y-80050000D02*
X167730000Y-76287500D01*
X167380000Y-80400000D02*
X167730000Y-80050000D01*
D37*
X167730000Y-73850000D02*
X167730000Y-76212500D01*
%TO.N,Net-(Q17-B)*%
X167730000Y-120800000D02*
X167767500Y-120837500D01*
D38*
X167741794Y-120971816D02*
X167779294Y-120934316D01*
X160491794Y-122664316D02*
X163791794Y-122664316D01*
X166211794Y-125084316D02*
X167391794Y-125084316D01*
D37*
X167720686Y-118553396D02*
X167730000Y-118562710D01*
D38*
X163791794Y-122664316D02*
X166211794Y-125084316D01*
X167391794Y-125084316D02*
X167741794Y-124734316D01*
X167741794Y-124734316D02*
X167741794Y-120971816D01*
D37*
X167730000Y-118562710D02*
X167730000Y-120800000D01*
%TO.N,Net-(Q4-B)*%
X161750000Y-79250000D02*
X163250000Y-79250000D01*
X163250000Y-79250000D02*
X164250000Y-80250000D01*
X164250000Y-80250000D02*
X164250000Y-81087500D01*
%TO.N,+12V*%
X194270000Y-123477500D02*
X194812500Y-122935000D01*
X194220000Y-101190000D02*
X194762500Y-100647500D01*
X194812500Y-78347500D02*
X194812500Y-76500000D01*
X194270000Y-78890000D02*
X194812500Y-78347500D01*
X194762500Y-100647500D02*
X194762500Y-98800000D01*
X194812500Y-122935000D02*
X194812500Y-121087500D01*
%TO.N,Net-(Q21-B)*%
D38*
X192471794Y-125284316D02*
X193011794Y-124744316D01*
D37*
X193000000Y-118547500D02*
X193000000Y-121075000D01*
X193000000Y-121075000D02*
X192987500Y-121087500D01*
D38*
X190501794Y-125284316D02*
X192471794Y-125284316D01*
X193011794Y-121196816D02*
X192999294Y-121184316D01*
X193011794Y-124744316D02*
X193011794Y-121196816D01*
X188681794Y-123464316D02*
X190501794Y-125284316D01*
%TO.N,Net-(Q5-B)*%
X193000000Y-80060000D02*
X193000000Y-76512500D01*
X190490000Y-80600000D02*
X192460000Y-80600000D01*
X193000000Y-76512500D02*
X192987500Y-76500000D01*
X192460000Y-80600000D02*
X193000000Y-80060000D01*
D37*
X193000000Y-76487500D02*
X192987500Y-76500000D01*
X193000000Y-73860000D02*
X193000000Y-76487500D01*
D38*
X188670000Y-78780000D02*
X190490000Y-80600000D01*
%TO.N,Net-(Q20-B)*%
D37*
X163261794Y-123934316D02*
X164261794Y-124934316D01*
X161761794Y-123934316D02*
X163261794Y-123934316D01*
X164261794Y-124934316D02*
X164261794Y-125771816D01*
%TO.N,Net-(Q11-B)*%
D38*
X166128384Y-102702110D02*
X167308384Y-102702110D01*
X167658384Y-98589610D02*
X167695884Y-98552110D01*
D37*
X167680000Y-98512500D02*
X167717500Y-98550000D01*
X167680000Y-96120000D02*
X167680000Y-98512500D01*
D38*
X163708384Y-100282110D02*
X166128384Y-102702110D01*
X167658384Y-102352110D02*
X167658384Y-98589610D01*
X160408384Y-100282110D02*
X163708384Y-100282110D01*
X167308384Y-102702110D02*
X167658384Y-102352110D01*
%TO.N,Net-(Q13-B)*%
X190418384Y-102902110D02*
X192388384Y-102902110D01*
X192388384Y-102902110D02*
X192928384Y-102362110D01*
D37*
X192950000Y-96160000D02*
X192950000Y-98787500D01*
X192950000Y-98787500D02*
X192937500Y-98800000D01*
D38*
X192928384Y-102362110D02*
X192928384Y-98814610D01*
X188598384Y-101082110D02*
X190418384Y-102902110D01*
X192928384Y-98814610D02*
X192915884Y-98802110D01*
%TO.N,/half_bridge2/OUT*%
D39*
X172750000Y-109937500D02*
X178400000Y-109937500D01*
X166500000Y-111337500D02*
X167900000Y-109937500D01*
X167900000Y-109937500D02*
X172750000Y-109937500D01*
X166500000Y-113287500D02*
X166500000Y-111337500D01*
X178400000Y-109937500D02*
X179000000Y-109337500D01*
X188000000Y-109337500D02*
X188000000Y-113287500D01*
X179000000Y-109337500D02*
X188000000Y-109337500D01*
%TO.N,/half_bridge1/OUT*%
X178950000Y-87050000D02*
X187950000Y-87050000D01*
X172700000Y-87650000D02*
X178350000Y-87650000D01*
X166450000Y-91000000D02*
X166450000Y-89050000D01*
X187950000Y-87050000D02*
X187950000Y-91000000D01*
X166450000Y-89050000D02*
X167850000Y-87650000D01*
X167850000Y-87650000D02*
X172700000Y-87650000D01*
X178350000Y-87650000D02*
X178950000Y-87050000D01*
%TO.N,/half_bridge/OUT*%
X167900000Y-65350000D02*
X172750000Y-65350000D01*
X178400000Y-65350000D02*
X179000000Y-64750000D01*
X179000000Y-64750000D02*
X188000000Y-64750000D01*
X166500000Y-66750000D02*
X167900000Y-65350000D01*
X188000000Y-64750000D02*
X188000000Y-68700000D01*
X166500000Y-68700000D02*
X166500000Y-66750000D01*
X172750000Y-65350000D02*
X178400000Y-65350000D01*
%TO.N,/half_bridge2/IN_L*%
D40*
X182500000Y-127000000D02*
X182500000Y-127500000D01*
D41*
X203750000Y-75750000D02*
X199750000Y-75750000D01*
D40*
X182487499Y-126987499D02*
X182500000Y-127000000D01*
X182487499Y-123860188D02*
X182487499Y-126987499D01*
%TO.N,/half_bridge2/IN_H*%
D41*
X203750000Y-73250000D02*
X199750000Y-73250000D01*
D40*
X168237500Y-127512500D02*
X168250000Y-127500000D01*
X164250000Y-127512500D02*
X168237500Y-127512500D01*
%TO.N,/half_bridge1/IN_L*%
X182466417Y-101544142D02*
X182466417Y-104716417D01*
X182466417Y-104716417D02*
X182500000Y-104750000D01*
D41*
X203750000Y-70750000D02*
X199750000Y-70750000D01*
D40*
X182500000Y-104750000D02*
X182500000Y-105250000D01*
%TO.N,/half_bridge1/IN_H*%
X164250000Y-105215069D02*
X168215069Y-105215069D01*
X168215069Y-105215069D02*
X168250000Y-105250000D01*
D41*
X203750000Y-68250000D02*
X199750000Y-68250000D01*
%TO.N,/half_bridge/IN_L*%
D40*
X182500000Y-83000000D02*
X182500000Y-82500000D01*
X182537500Y-82462500D02*
X182537500Y-79250000D01*
X182500000Y-82500000D02*
X182537500Y-82462500D01*
D41*
X203750000Y-65750000D02*
X199750000Y-65750000D01*
%TO.N,/half_bridge/IN_H*%
D40*
X168162500Y-82912500D02*
X168250000Y-83000000D01*
D41*
X203750000Y-63250000D02*
X199750000Y-63250000D01*
D40*
X164250000Y-82912500D02*
X168162500Y-82912500D01*
%TO.N,Net-(D5-A)*%
X185460000Y-74122500D02*
X186337500Y-75000000D01*
X184050000Y-68700000D02*
X185460000Y-68700000D01*
X182750000Y-70000000D02*
X184050000Y-68700000D01*
X185460000Y-68700000D02*
X185460000Y-74122500D01*
%TO.N,Net-(Q12-B)*%
D37*
X163178384Y-101552110D02*
X164178384Y-102552110D01*
X161678384Y-101552110D02*
X163178384Y-101552110D01*
X164178384Y-102552110D02*
X164178384Y-103389610D01*
%TO.N,Net-(Q16-B)*%
X184290884Y-101552110D02*
X185640884Y-102902110D01*
X185640884Y-102902110D02*
X186778384Y-102902110D01*
X186778384Y-102902110D02*
X187328384Y-102352110D01*
%TO.N,Net-(Q8-B)*%
X184362500Y-79250000D02*
X185712500Y-80600000D01*
X186850000Y-80600000D02*
X187400000Y-80050000D01*
X185712500Y-80600000D02*
X186850000Y-80600000D01*
%TO.N,Net-(D10-A)*%
D40*
X185410000Y-96422500D02*
X186287500Y-97300000D01*
X185410000Y-91000000D02*
X185410000Y-96422500D01*
X184000000Y-91000000D02*
X185410000Y-91000000D01*
X182700000Y-92300000D02*
X184000000Y-91000000D01*
%TO.N,Net-(D7-A)*%
X159950000Y-96462500D02*
X160787500Y-97300000D01*
X159950000Y-91050000D02*
X163860000Y-91050000D01*
X163860000Y-91050000D02*
X163910000Y-91000000D01*
X159950000Y-91050000D02*
X159950000Y-96462500D01*
%TO.N,Net-(D15-A)*%
X184050000Y-113287500D02*
X185460000Y-113287500D01*
X185460000Y-118710000D02*
X186337500Y-119587500D01*
X182750000Y-114587500D02*
X184050000Y-113287500D01*
X185460000Y-113287500D02*
X185460000Y-118710000D01*
%TO.N,Net-(Q24-B)*%
D37*
X187400000Y-124746110D02*
X187411794Y-124734316D01*
X186903184Y-125284316D02*
X187400000Y-124787500D01*
X185724294Y-125284316D02*
X186903184Y-125284316D01*
X187400000Y-124787500D02*
X187400000Y-124746110D01*
X184374294Y-123934316D02*
X185724294Y-125284316D01*
%TO.N,Net-(D12-A)*%
D40*
X160000000Y-113337500D02*
X160000000Y-118750000D01*
X160000000Y-113337500D02*
X163910000Y-113337500D01*
X160000000Y-118750000D02*
X160837500Y-119587500D01*
X163910000Y-113337500D02*
X163960000Y-113287500D01*
%TO.N,Net-(D2-A)*%
X163910000Y-68750000D02*
X163960000Y-68700000D01*
X160000000Y-68750000D02*
X163910000Y-68750000D01*
X160000000Y-68750000D02*
X160000000Y-74162500D01*
X160000000Y-74162500D02*
X160837500Y-75000000D01*
%TD*%
%TA.AperFunction,Conductor*%
%TO.N,+24V*%
G36*
X170515677Y-89822254D02*
G01*
X170536319Y-89838888D01*
X171750000Y-91052569D01*
X175939536Y-91052569D01*
X176006575Y-91072254D01*
X176037235Y-91100209D01*
X176755099Y-92018685D01*
X176780873Y-92083627D01*
X176781399Y-92095571D01*
X176753175Y-98748556D01*
X176733206Y-98815511D01*
X176716857Y-98835711D01*
X176286319Y-99266250D01*
X176224996Y-99299735D01*
X176198638Y-99302569D01*
X169088352Y-99302569D01*
X169021313Y-99282884D01*
X168981800Y-99241993D01*
X168767448Y-98881881D01*
X168750000Y-98818457D01*
X168750000Y-95624999D01*
X168749999Y-95624998D01*
X168494617Y-95412179D01*
X168455718Y-95354140D01*
X168450000Y-95316920D01*
X168450000Y-93752536D01*
X168449999Y-93752534D01*
X168036322Y-93338887D01*
X168002835Y-93277565D01*
X168000000Y-93251203D01*
X168000000Y-90603931D01*
X168019685Y-90536892D01*
X168036319Y-90516250D01*
X168713681Y-89838888D01*
X168775004Y-89805403D01*
X168801362Y-89802569D01*
X170448638Y-89802569D01*
X170515677Y-89822254D01*
G37*
%TD.AperFunction*%
%TD*%
%TA.AperFunction,Conductor*%
%TO.N,+24V*%
G36*
X170515677Y-112119685D02*
G01*
X170536319Y-112136319D01*
X171750000Y-113350000D01*
X175939536Y-113350000D01*
X176006575Y-113369685D01*
X176037235Y-113397640D01*
X176755099Y-114316116D01*
X176780873Y-114381058D01*
X176781399Y-114393002D01*
X176753175Y-121045987D01*
X176733206Y-121112942D01*
X176716857Y-121133142D01*
X176286319Y-121563681D01*
X176224996Y-121597166D01*
X176198638Y-121600000D01*
X169088352Y-121600000D01*
X169021313Y-121580315D01*
X168981800Y-121539424D01*
X168767448Y-121179312D01*
X168750000Y-121115888D01*
X168750000Y-118025002D01*
X168749999Y-118025001D01*
X168494617Y-117812182D01*
X168455718Y-117754143D01*
X168450000Y-117716923D01*
X168450000Y-116049967D01*
X168449999Y-116049965D01*
X168036322Y-115636318D01*
X168002835Y-115574996D01*
X168000000Y-115548634D01*
X168000000Y-112901362D01*
X168019685Y-112834323D01*
X168036319Y-112813681D01*
X168713681Y-112136319D01*
X168775004Y-112102834D01*
X168801362Y-112100000D01*
X170448638Y-112100000D01*
X170515677Y-112119685D01*
G37*
%TD.AperFunction*%
%TD*%
%TA.AperFunction,Conductor*%
%TO.N,Net-(D2-K)*%
G36*
X166715528Y-71319619D02*
G01*
X166736115Y-71336198D01*
X166976020Y-71575792D01*
X167009545Y-71637093D01*
X167012396Y-71663457D01*
X167013095Y-72843065D01*
X166993450Y-72910116D01*
X166955485Y-72947868D01*
X166700000Y-73109824D01*
X166700000Y-73109825D01*
X166700000Y-77299999D01*
X166944784Y-77463188D01*
X166989644Y-77516752D01*
X167000000Y-77566361D01*
X167000000Y-78948638D01*
X166980315Y-79015677D01*
X166963681Y-79036319D01*
X166786319Y-79213681D01*
X166724996Y-79247166D01*
X166698638Y-79250000D01*
X166300071Y-79250000D01*
X166233032Y-79230315D01*
X166213969Y-79215233D01*
X165800505Y-78816276D01*
X164125455Y-77200000D01*
X164125454Y-77200000D01*
X163481349Y-77200000D01*
X163414310Y-77180315D01*
X163392335Y-77162328D01*
X162169590Y-75901526D01*
X162137048Y-75839697D01*
X162134604Y-75815293D01*
X162132148Y-72620278D01*
X162151781Y-72553226D01*
X162168394Y-72532577D01*
X163362753Y-71336381D01*
X163424047Y-71302852D01*
X163450486Y-71299998D01*
X166648489Y-71299936D01*
X166715528Y-71319619D01*
G37*
%TD.AperFunction*%
%TD*%
%TA.AperFunction,Conductor*%
%TO.N,/half_bridge2/OUT*%
G36*
X207892606Y-97505023D02*
G01*
X207907604Y-97509427D01*
X207922594Y-97519057D01*
X207939675Y-97524067D01*
X207966355Y-97547172D01*
X207967542Y-97548541D01*
X207995018Y-97603402D01*
X207996663Y-97610960D01*
X207999500Y-97637331D01*
X207999500Y-101358170D01*
X207994475Y-101393114D01*
X207990070Y-101408112D01*
X207980439Y-101423101D01*
X207975432Y-101440175D01*
X207952327Y-101466855D01*
X207950958Y-101468042D01*
X207896097Y-101495518D01*
X207888539Y-101497163D01*
X207862168Y-101500000D01*
X201569192Y-101500000D01*
X201534256Y-101494977D01*
X201509014Y-101487565D01*
X201456269Y-101456269D01*
X200798926Y-100798926D01*
X200798921Y-100798921D01*
X200777774Y-100770670D01*
X200765167Y-100747581D01*
X200750000Y-100688156D01*
X200750000Y-98319191D01*
X200755022Y-98284258D01*
X200762434Y-98259013D01*
X200793728Y-98206271D01*
X201451076Y-97548923D01*
X201479326Y-97527775D01*
X201502418Y-97515167D01*
X201561843Y-97500000D01*
X207857670Y-97500000D01*
X207892606Y-97505023D01*
G37*
%TD.AperFunction*%
%TD*%
%TA.AperFunction,Conductor*%
%TO.N,Net-(D5-K)*%
G36*
X192176049Y-71799952D02*
G01*
X192243079Y-71819662D01*
X192288814Y-71872484D01*
X192300000Y-71923952D01*
X192300000Y-72885493D01*
X192280315Y-72952532D01*
X192253000Y-72982689D01*
X191900000Y-73262338D01*
X191900000Y-77325000D01*
X191899999Y-77325000D01*
X192150400Y-77512800D01*
X192192221Y-77568771D01*
X192200000Y-77612000D01*
X192200000Y-79077397D01*
X192180315Y-79144436D01*
X192127511Y-79190191D01*
X192077405Y-79201389D01*
X191343681Y-79209702D01*
X191276423Y-79190778D01*
X191255878Y-79174656D01*
X189377910Y-77350494D01*
X189368495Y-77341349D01*
X189364552Y-77335448D01*
X189357718Y-77330882D01*
X189349609Y-77323005D01*
X189349607Y-77323003D01*
X187637734Y-75660178D01*
X187603362Y-75599348D01*
X187600132Y-75571252D01*
X187599851Y-72640746D01*
X187619529Y-72573706D01*
X187637500Y-72551743D01*
X188377666Y-71833542D01*
X188439486Y-71800986D01*
X188464060Y-71798535D01*
X192176049Y-71799952D01*
G37*
%TD.AperFunction*%
%TD*%
%TA.AperFunction,Conductor*%
%TO.N,Net-(D12-K)*%
G36*
X166640412Y-115999967D02*
G01*
X166707449Y-116019652D01*
X166728034Y-116036229D01*
X166988038Y-116295897D01*
X167021562Y-116357199D01*
X167024413Y-116383562D01*
X167025081Y-117511577D01*
X167005436Y-117578628D01*
X166967471Y-117616380D01*
X166712017Y-117778317D01*
X166712017Y-117778318D01*
X166712017Y-122020104D01*
X166956801Y-122183293D01*
X167001661Y-122236857D01*
X167012017Y-122286466D01*
X167012017Y-123536621D01*
X166992332Y-123603660D01*
X166975698Y-123624302D01*
X166761319Y-123838681D01*
X166699996Y-123872166D01*
X166673638Y-123875000D01*
X166213525Y-123875000D01*
X166146486Y-123855315D01*
X166127423Y-123840233D01*
X165725711Y-123452616D01*
X164137472Y-121920105D01*
X164137471Y-121920105D01*
X163493366Y-121920105D01*
X163426327Y-121900420D01*
X163404352Y-121882433D01*
X162181606Y-120621630D01*
X162149064Y-120559801D01*
X162146620Y-120535400D01*
X162143913Y-117108193D01*
X162163545Y-117041140D01*
X162180158Y-117020489D01*
X163162789Y-116036347D01*
X163224086Y-116002817D01*
X163250536Y-115999963D01*
X166640412Y-115999967D01*
G37*
%TD.AperFunction*%
%TD*%
%TA.AperFunction,Conductor*%
%TO.N,+24V*%
G36*
X170465740Y-67505021D02*
G01*
X170490984Y-67512434D01*
X170543730Y-67543730D01*
X171750000Y-68750000D01*
X175921706Y-68750000D01*
X175956638Y-68755021D01*
X175979113Y-68761621D01*
X176027724Y-68788968D01*
X176029515Y-68790601D01*
X176037333Y-68799036D01*
X176037890Y-68799394D01*
X176038108Y-68799873D01*
X176043668Y-68805871D01*
X176744119Y-69702067D01*
X176761676Y-69732688D01*
X176772598Y-69760210D01*
X176781341Y-69806475D01*
X176753250Y-76428157D01*
X176748079Y-76463069D01*
X176740534Y-76488368D01*
X176709387Y-76540611D01*
X176298926Y-76951073D01*
X176270675Y-76972222D01*
X176247587Y-76984830D01*
X176188157Y-77000000D01*
X169106182Y-77000000D01*
X169071247Y-76994977D01*
X169052768Y-76989551D01*
X168998529Y-76956736D01*
X168991807Y-76949779D01*
X168974429Y-76927041D01*
X168776012Y-76593700D01*
X168763006Y-76563168D01*
X168754441Y-76532031D01*
X168750000Y-76499143D01*
X168750000Y-73325000D01*
X168749994Y-73324994D01*
X168508313Y-73123593D01*
X168484690Y-73097368D01*
X168471083Y-73077065D01*
X168451528Y-73026870D01*
X168451439Y-73026291D01*
X168450263Y-73010897D01*
X168450112Y-73010417D01*
X168450201Y-73010089D01*
X168450000Y-73007452D01*
X168450000Y-71449967D01*
X168449999Y-71449965D01*
X168048923Y-71048918D01*
X168027777Y-71020671D01*
X168015168Y-70997580D01*
X168000000Y-70938153D01*
X168000000Y-68319191D01*
X168005022Y-68284258D01*
X168012434Y-68259013D01*
X168043728Y-68206271D01*
X168701081Y-67548918D01*
X168729326Y-67527775D01*
X168752418Y-67515167D01*
X168811843Y-67500000D01*
X170430808Y-67500000D01*
X170465740Y-67505021D01*
G37*
%TD.AperFunction*%
%TD*%
%TA.AperFunction,Conductor*%
%TO.N,GND*%
G36*
X207892606Y-60005523D02*
G01*
X207907604Y-60009927D01*
X207966355Y-60047672D01*
X207967542Y-60049041D01*
X207995018Y-60103902D01*
X207996663Y-60111460D01*
X207999500Y-60137831D01*
X207999500Y-87870500D01*
X207979815Y-87937539D01*
X207927011Y-87983294D01*
X207875500Y-87994500D01*
X201551360Y-87994500D01*
X201497311Y-87997397D01*
X201497310Y-87997397D01*
X201470977Y-88000229D01*
X201470950Y-88000232D01*
X201417554Y-88008885D01*
X201417552Y-88008885D01*
X201282747Y-88059166D01*
X201221422Y-88092651D01*
X201106240Y-88178876D01*
X201106228Y-88178886D01*
X200428892Y-88856223D01*
X200428855Y-88856262D01*
X200392728Y-88896480D01*
X200392718Y-88896492D01*
X200376076Y-88917143D01*
X200344433Y-88961025D01*
X200284663Y-89091899D01*
X200264976Y-89158944D01*
X200244500Y-89301363D01*
X200244500Y-91698640D01*
X200247397Y-91752688D01*
X200247397Y-91752689D01*
X200250229Y-91779022D01*
X200250232Y-91779049D01*
X200258885Y-91832445D01*
X200258885Y-91832447D01*
X200309166Y-91967252D01*
X200309168Y-91967257D01*
X200342653Y-92028580D01*
X200428877Y-92143761D01*
X200428881Y-92143765D01*
X200428886Y-92143771D01*
X200997433Y-92712318D01*
X201030918Y-92773641D01*
X201025934Y-92843333D01*
X200997433Y-92887680D01*
X200436296Y-93448817D01*
X200436288Y-93448826D01*
X200358992Y-93548326D01*
X200327701Y-93601062D01*
X200327695Y-93601073D01*
X200277412Y-93716593D01*
X200277407Y-93716608D01*
X200269995Y-93741853D01*
X200254666Y-93812326D01*
X200254665Y-93812332D01*
X200249644Y-93847252D01*
X200249643Y-93847262D01*
X200244500Y-93919187D01*
X200244500Y-96088159D01*
X200260202Y-96213167D01*
X200260204Y-96213177D01*
X200275366Y-96272584D01*
X200275372Y-96272600D01*
X200321491Y-96389822D01*
X200321494Y-96389828D01*
X200321496Y-96389833D01*
X200321497Y-96389834D01*
X200334102Y-96412921D01*
X200373085Y-96473584D01*
X200373093Y-96473595D01*
X200394228Y-96501831D01*
X200394235Y-96501839D01*
X200394238Y-96501843D01*
X200441479Y-96556363D01*
X200441488Y-96556372D01*
X200441498Y-96556383D01*
X200997433Y-97112318D01*
X201030918Y-97173641D01*
X201025934Y-97243333D01*
X200997433Y-97287680D01*
X200436296Y-97848817D01*
X200436288Y-97848826D01*
X200358992Y-97948326D01*
X200327701Y-98001062D01*
X200327695Y-98001073D01*
X200277412Y-98116593D01*
X200277407Y-98116608D01*
X200269995Y-98141853D01*
X200254666Y-98212326D01*
X200254665Y-98212332D01*
X200249644Y-98247252D01*
X200249643Y-98247262D01*
X200244500Y-98319187D01*
X200244500Y-100688159D01*
X200260202Y-100813167D01*
X200260204Y-100813177D01*
X200275366Y-100872584D01*
X200275372Y-100872600D01*
X200321491Y-100989822D01*
X200321494Y-100989828D01*
X200321496Y-100989833D01*
X200321497Y-100989834D01*
X200334102Y-101012921D01*
X200373085Y-101073584D01*
X200373093Y-101073595D01*
X200394228Y-101101831D01*
X200394235Y-101101839D01*
X200394238Y-101101843D01*
X200441479Y-101156363D01*
X200441488Y-101156372D01*
X200441498Y-101156383D01*
X201098815Y-101813700D01*
X201098824Y-101813708D01*
X201098827Y-101813711D01*
X201173025Y-101871351D01*
X201198322Y-101891003D01*
X201251070Y-101922301D01*
X201366585Y-101972584D01*
X201366589Y-101972585D01*
X201366593Y-101972587D01*
X201391835Y-101979999D01*
X201462316Y-101995332D01*
X201497252Y-102000355D01*
X201569192Y-102005500D01*
X207862166Y-102005500D01*
X207862168Y-102005500D01*
X207868857Y-102005141D01*
X207936854Y-102021206D01*
X207985373Y-102071482D01*
X207999500Y-102128963D01*
X207999500Y-117870500D01*
X207979815Y-117937539D01*
X207927011Y-117983294D01*
X207875500Y-117994500D01*
X201624010Y-117994500D01*
X201624000Y-117994500D01*
X201623991Y-117994500D01*
X201623990Y-117994501D01*
X201516549Y-118006052D01*
X201516537Y-118006054D01*
X201465027Y-118017260D01*
X201362502Y-118051383D01*
X201362496Y-118051386D01*
X201241462Y-118129171D01*
X201241451Y-118129179D01*
X201188659Y-118174923D01*
X201094433Y-118283664D01*
X201094430Y-118283668D01*
X201034664Y-118414534D01*
X201014976Y-118481582D01*
X201013909Y-118489004D01*
X200994500Y-118624000D01*
X200994500Y-123126000D01*
X200994501Y-123126009D01*
X201006052Y-123233450D01*
X201006054Y-123233462D01*
X201017260Y-123284972D01*
X201051385Y-123387502D01*
X201051385Y-123387503D01*
X201083870Y-123438049D01*
X201103555Y-123505088D01*
X201088355Y-123564575D01*
X201086307Y-123568320D01*
X201086304Y-123568324D01*
X201086304Y-123568326D01*
X201083229Y-123575048D01*
X201026475Y-123699107D01*
X201026469Y-123699122D01*
X201022057Y-123714108D01*
X201022056Y-123714112D01*
X201006676Y-123784575D01*
X201006675Y-123784579D01*
X201001633Y-123819468D01*
X201001631Y-123819482D01*
X200996433Y-123891449D01*
X200994693Y-126462541D01*
X200992394Y-129857929D01*
X200992977Y-129868948D01*
X200976864Y-129936932D01*
X200926553Y-129985414D01*
X200869151Y-129999500D01*
X155142330Y-129999500D01*
X155142325Y-129999499D01*
X155142323Y-129999500D01*
X155107389Y-129994475D01*
X155092390Y-129990070D01*
X155033644Y-129952327D01*
X155033615Y-129952293D01*
X155033614Y-129952293D01*
X155033613Y-129952291D01*
X155032457Y-129950958D01*
X155004977Y-129896083D01*
X155003332Y-129888521D01*
X155000500Y-129862168D01*
X155000500Y-111787483D01*
X158599500Y-111787483D01*
X158599500Y-114887501D01*
X158599501Y-114887518D01*
X158610000Y-114990296D01*
X158610001Y-114990299D01*
X158665185Y-115156831D01*
X158665186Y-115156834D01*
X158757288Y-115306156D01*
X158881344Y-115430212D01*
X158925422Y-115457399D01*
X158948323Y-115476511D01*
X158952516Y-115480010D01*
X158965516Y-115494463D01*
X158965745Y-115494717D01*
X158994468Y-115550156D01*
X158996415Y-115558721D01*
X158999500Y-115586208D01*
X158999500Y-118848541D01*
X159003981Y-118871071D01*
X159013484Y-118918848D01*
X159015918Y-118931081D01*
X159037949Y-119041836D01*
X159056860Y-119087491D01*
X159059986Y-119095038D01*
X159059991Y-119095055D01*
X159113360Y-119223900D01*
X159113365Y-119223909D01*
X159113375Y-119223926D01*
X159196132Y-119347781D01*
X159222860Y-119387781D01*
X159222863Y-119387785D01*
X159366537Y-119531459D01*
X159366547Y-119531468D01*
X159367580Y-119532501D01*
X159367623Y-119532543D01*
X159775574Y-119940494D01*
X159796723Y-119968745D01*
X159809331Y-119991834D01*
X159824500Y-120051263D01*
X159824500Y-120087492D01*
X159824501Y-120087519D01*
X159835000Y-120190296D01*
X159835003Y-120190304D01*
X159835001Y-120190304D01*
X159835025Y-120190416D01*
X159835067Y-120190500D01*
X159849716Y-120234704D01*
X159890186Y-120356834D01*
X159982288Y-120506156D01*
X160106344Y-120630212D01*
X160255666Y-120722314D01*
X160422203Y-120777499D01*
X160524991Y-120788000D01*
X161150008Y-120787999D01*
X161150016Y-120787998D01*
X161150019Y-120787998D01*
X161150027Y-120787997D01*
X161150317Y-120787979D01*
X161151333Y-120787863D01*
X161196459Y-120783253D01*
X161206303Y-120782248D01*
X161206303Y-120782247D01*
X161252797Y-120777499D01*
X161419334Y-120722314D01*
X161499129Y-120673095D01*
X161566521Y-120654655D01*
X161633185Y-120675577D01*
X161677954Y-120729219D01*
X161681056Y-120737079D01*
X161701739Y-120795238D01*
X161734281Y-120857067D01*
X161818729Y-120973554D01*
X162526632Y-121703490D01*
X162559173Y-121765317D01*
X162553121Y-121834925D01*
X162510398Y-121890210D01*
X162444567Y-121913621D01*
X162437617Y-121913816D01*
X161542627Y-121913816D01*
X161542624Y-121913815D01*
X161542623Y-121913816D01*
X161507688Y-121908792D01*
X161485867Y-121902384D01*
X161436325Y-121874176D01*
X161433660Y-121871695D01*
X161427570Y-121864917D01*
X161427090Y-121864608D01*
X161426879Y-121864147D01*
X161418883Y-121855246D01*
X161347554Y-121759964D01*
X161347551Y-121759960D01*
X161347547Y-121759955D01*
X161347544Y-121759952D01*
X161347542Y-121759950D01*
X161255673Y-121691177D01*
X161232335Y-121673706D01*
X161232332Y-121673704D01*
X161232330Y-121673703D01*
X161232328Y-121673702D01*
X161097482Y-121623408D01*
X161097483Y-121623408D01*
X161037883Y-121617001D01*
X161037881Y-121617000D01*
X161037873Y-121617000D01*
X161037864Y-121617000D01*
X161036841Y-121617000D01*
X159142123Y-121617000D01*
X159140192Y-121617159D01*
X159138545Y-121617385D01*
X159082516Y-121623408D01*
X159003450Y-121652898D01*
X158947666Y-121673704D01*
X158947665Y-121673705D01*
X158832456Y-121759950D01*
X158832450Y-121759956D01*
X158746205Y-121875165D01*
X158746203Y-121875168D01*
X158695907Y-122010016D01*
X158689501Y-122069616D01*
X158689500Y-122069639D01*
X158689500Y-123265376D01*
X158689659Y-123267306D01*
X158689885Y-123268954D01*
X158695907Y-123324982D01*
X158705131Y-123349711D01*
X158746202Y-123459828D01*
X158746206Y-123459835D01*
X158769221Y-123490579D01*
X158832450Y-123575042D01*
X158832452Y-123575044D01*
X158832455Y-123575047D01*
X158947664Y-123661293D01*
X158947671Y-123661297D01*
X159082517Y-123711591D01*
X159082516Y-123711591D01*
X159089444Y-123712335D01*
X159142127Y-123718000D01*
X160617670Y-123717999D01*
X160651276Y-123722831D01*
X160652604Y-123723022D01*
X160667603Y-123727426D01*
X160726381Y-123765200D01*
X160726390Y-123765210D01*
X160727576Y-123766579D01*
X160755018Y-123821401D01*
X160756663Y-123828959D01*
X160759500Y-123855330D01*
X160759500Y-124256064D01*
X160774154Y-124386129D01*
X160774157Y-124386152D01*
X160774158Y-124386156D01*
X160774159Y-124386158D01*
X160825827Y-124533814D01*
X160825827Y-124533816D01*
X160825828Y-124533816D01*
X160828373Y-124541091D01*
X160831878Y-124551106D01*
X160924853Y-124699076D01*
X161048424Y-124822647D01*
X161196394Y-124915622D01*
X161256825Y-124936768D01*
X161353920Y-124970744D01*
X161353921Y-124970744D01*
X161361342Y-124973341D01*
X161361351Y-124973342D01*
X161402748Y-124978005D01*
X161402749Y-124978006D01*
X161418281Y-124979755D01*
X161488440Y-124987660D01*
X161490909Y-124988000D01*
X162828555Y-124988000D01*
X162838348Y-124988000D01*
X162845944Y-124986039D01*
X162868308Y-124983520D01*
X162868310Y-124983519D01*
X162868313Y-124983520D01*
X162944233Y-124974967D01*
X162965666Y-124974417D01*
X162965786Y-124974424D01*
X162965787Y-124974425D01*
X162988058Y-124975783D01*
X163004804Y-124981831D01*
X163022583Y-124982910D01*
X163036988Y-124993453D01*
X163053772Y-124999514D01*
X163064599Y-125013662D01*
X163078965Y-125024176D01*
X163096212Y-125054968D01*
X163096548Y-125055840D01*
X163103962Y-125115162D01*
X163103223Y-125121336D01*
X163097808Y-125145602D01*
X163060002Y-125259696D01*
X163060001Y-125259699D01*
X163059999Y-125259707D01*
X163049500Y-125362473D01*
X163049500Y-125362483D01*
X163049500Y-125987501D01*
X163049500Y-125987509D01*
X163049503Y-125987545D01*
X163057495Y-126065772D01*
X163060000Y-126090296D01*
X163060001Y-126090299D01*
X163086573Y-126170488D01*
X163115182Y-126256822D01*
X163115185Y-126256832D01*
X163115187Y-126256836D01*
X163140313Y-126297571D01*
X163140314Y-126297573D01*
X163192786Y-126382646D01*
X163205217Y-126402799D01*
X163207289Y-126406157D01*
X163288350Y-126487218D01*
X163309497Y-126515470D01*
X163316988Y-126529190D01*
X163331839Y-126597448D01*
X163331710Y-126599254D01*
X163312342Y-126657456D01*
X163308163Y-126663959D01*
X163291527Y-126684603D01*
X163207291Y-126768838D01*
X163115186Y-126918164D01*
X163115179Y-126918182D01*
X163115177Y-126918190D01*
X163114972Y-126918810D01*
X163113250Y-126924008D01*
X163101524Y-126959392D01*
X163070299Y-127053623D01*
X163061852Y-127066567D01*
X163060365Y-127081130D01*
X163059542Y-127087381D01*
X163059359Y-127090976D01*
X163049500Y-127187473D01*
X163049500Y-127812498D01*
X163049503Y-127812545D01*
X163060000Y-127915296D01*
X163060001Y-127915299D01*
X163080617Y-127977512D01*
X163115186Y-128081834D01*
X163207288Y-128231156D01*
X163331344Y-128355212D01*
X163480666Y-128447314D01*
X163647203Y-128502499D01*
X163749991Y-128513000D01*
X164139231Y-128512999D01*
X164139287Y-128513000D01*
X164141470Y-128513000D01*
X164151459Y-128513000D01*
X167071781Y-128513000D01*
X167106713Y-128518021D01*
X167131957Y-128525434D01*
X167184703Y-128556730D01*
X167272490Y-128644517D01*
X167463567Y-128783343D01*
X167562991Y-128834002D01*
X167674003Y-128890566D01*
X167674876Y-128891011D01*
X167678630Y-128892070D01*
X167726335Y-128907569D01*
X167794410Y-128929688D01*
X167794411Y-128929689D01*
X167794412Y-128929689D01*
X167898631Y-128963553D01*
X168131903Y-129000500D01*
X168131908Y-129000500D01*
X168368096Y-129000500D01*
X168368097Y-129000500D01*
X168601368Y-128963553D01*
X168825992Y-128890568D01*
X169036433Y-128783343D01*
X169227510Y-128644517D01*
X169394517Y-128477510D01*
X169533343Y-128286433D01*
X169640568Y-128075992D01*
X169713553Y-127851368D01*
X169723838Y-127786433D01*
X169750500Y-127618097D01*
X169750500Y-127381902D01*
X169713553Y-127148631D01*
X169665422Y-127000500D01*
X169640568Y-126924008D01*
X169640566Y-126924005D01*
X169640566Y-126924003D01*
X169638321Y-126919598D01*
X169638014Y-126918810D01*
X169637286Y-126917566D01*
X169533342Y-126713566D01*
X169394517Y-126522490D01*
X169227510Y-126355483D01*
X169036433Y-126216657D01*
X169036432Y-126216656D01*
X169036430Y-126216655D01*
X169036429Y-126216654D01*
X169030595Y-126213682D01*
X169030555Y-126213661D01*
X169030367Y-126213566D01*
X168825993Y-126109432D01*
X168820898Y-126107776D01*
X168812381Y-126103475D01*
X168809258Y-126100546D01*
X168798289Y-126095148D01*
X168791195Y-126090297D01*
X168785388Y-126086326D01*
X168741161Y-126032237D01*
X168741151Y-126032212D01*
X168740735Y-126031227D01*
X168731731Y-125969225D01*
X168732274Y-125964361D01*
X168732730Y-125960273D01*
X168738921Y-125933086D01*
X168765841Y-125856157D01*
X168767184Y-125844243D01*
X168780499Y-125726058D01*
X168780500Y-125726054D01*
X168780500Y-124388945D01*
X168780499Y-124388941D01*
X168780239Y-124386636D01*
X168765841Y-124258843D01*
X168708122Y-124093894D01*
X168615147Y-123945924D01*
X168541215Y-123871992D01*
X168520068Y-123843741D01*
X168507461Y-123820652D01*
X168492294Y-123761227D01*
X168492294Y-122057908D01*
X168511979Y-121990869D01*
X168564783Y-121945114D01*
X168633941Y-121935170D01*
X168694925Y-121962027D01*
X168748016Y-122005567D01*
X168878893Y-122065338D01*
X168945932Y-122085023D01*
X168945936Y-122085024D01*
X169088352Y-122105500D01*
X169088355Y-122105500D01*
X176198638Y-122105500D01*
X176198640Y-122105500D01*
X176208786Y-122104955D01*
X176252678Y-122102603D01*
X176252686Y-122102602D01*
X176252688Y-122102602D01*
X176252689Y-122102602D01*
X176259682Y-122101849D01*
X176279036Y-122099769D01*
X176279046Y-122099767D01*
X176279049Y-122099767D01*
X176288648Y-122098211D01*
X176332448Y-122091114D01*
X176467257Y-122040832D01*
X176528580Y-122007347D01*
X176643762Y-121921123D01*
X177074300Y-121490584D01*
X177109786Y-121451162D01*
X177126135Y-121430962D01*
X177157295Y-121388039D01*
X177217621Y-121257416D01*
X177237590Y-121190461D01*
X177237590Y-121190459D01*
X177258670Y-121048131D01*
X177286894Y-114395146D01*
X177286410Y-114370762D01*
X177285884Y-114358818D01*
X177285764Y-114357064D01*
X177284225Y-114334509D01*
X177250723Y-114194591D01*
X177250722Y-114194586D01*
X177224948Y-114129644D01*
X177153381Y-114004826D01*
X177153378Y-114004823D01*
X177153377Y-114004820D01*
X176435528Y-113086363D01*
X176435514Y-113086347D01*
X176377821Y-113024101D01*
X176377817Y-113024097D01*
X176347167Y-112996151D01*
X176347164Y-112996148D01*
X176347160Y-112996145D01*
X176279872Y-112944433D01*
X176207579Y-112911417D01*
X176148998Y-112884663D01*
X176081953Y-112864976D01*
X176034480Y-112858150D01*
X175939536Y-112844500D01*
X175939534Y-112844500D01*
X172010746Y-112844500D01*
X171943707Y-112824815D01*
X171923065Y-112808181D01*
X170893776Y-111778892D01*
X170893761Y-111778877D01*
X170890329Y-111775794D01*
X170853519Y-111742728D01*
X170853507Y-111742718D01*
X170832856Y-111726076D01*
X170788974Y-111694433D01*
X170767671Y-111684704D01*
X170745970Y-111674793D01*
X170693168Y-111629038D01*
X170673484Y-111561999D01*
X170693169Y-111494959D01*
X170745974Y-111449205D01*
X170797484Y-111438000D01*
X171519806Y-111438000D01*
X171554741Y-111443023D01*
X171569739Y-111447427D01*
X171628508Y-111485192D01*
X171632922Y-111490285D01*
X171661530Y-111551111D01*
X171683796Y-111684703D01*
X171712437Y-111856552D01*
X171742422Y-111952680D01*
X171747168Y-111960527D01*
X171749368Y-111963226D01*
X171821581Y-112072878D01*
X171931397Y-112165906D01*
X171965230Y-112180902D01*
X172062972Y-112224226D01*
X172097140Y-112228943D01*
X172097139Y-112228944D01*
X172097143Y-112228943D01*
X172162712Y-112237999D01*
X172162717Y-112237999D01*
X172162721Y-112238000D01*
X172162725Y-112238000D01*
X173337276Y-112238001D01*
X173437027Y-112224226D01*
X173568603Y-112165906D01*
X173678418Y-112072878D01*
X173757577Y-111952680D01*
X173787562Y-111856551D01*
X173837121Y-111559195D01*
X173847817Y-111525569D01*
X173854627Y-111511498D01*
X173901547Y-111459731D01*
X173907313Y-111456204D01*
X173971993Y-111438000D01*
X177311441Y-111438000D01*
X177346373Y-111443021D01*
X177374598Y-111451309D01*
X177416976Y-111473340D01*
X177423726Y-111478723D01*
X177550752Y-111580023D01*
X177788555Y-111729445D01*
X178041592Y-111851301D01*
X178162053Y-111893452D01*
X178254099Y-111925660D01*
X178306666Y-111944055D01*
X178306670Y-111944056D01*
X178306682Y-111944060D01*
X178580491Y-112006555D01*
X178580495Y-112006555D01*
X178580498Y-112006555D01*
X178580505Y-112006557D01*
X178587408Y-112007334D01*
X178587409Y-112007335D01*
X178614726Y-112010412D01*
X178766547Y-112027518D01*
X178856560Y-112037660D01*
X178859034Y-112038000D01*
X179140428Y-112038000D01*
X179150222Y-112038000D01*
X179157820Y-112036039D01*
X179283055Y-112021929D01*
X179418788Y-112006636D01*
X179419429Y-112006568D01*
X179419504Y-112006555D01*
X179419509Y-112006555D01*
X179693318Y-111944060D01*
X179958408Y-111851301D01*
X180211445Y-111729445D01*
X180449248Y-111580023D01*
X180668825Y-111404916D01*
X180867416Y-111206325D01*
X181042523Y-110986748D01*
X181090043Y-110911118D01*
X181112879Y-110884216D01*
X181127903Y-110870927D01*
X181183088Y-110842776D01*
X181188288Y-110841617D01*
X181191205Y-110840968D01*
X181218171Y-110838000D01*
X186357670Y-110838000D01*
X186392606Y-110843023D01*
X186407604Y-110847427D01*
X186422594Y-110857057D01*
X186439675Y-110862067D01*
X186466355Y-110885172D01*
X186467542Y-110886541D01*
X186495018Y-110941402D01*
X186496663Y-110948960D01*
X186499500Y-110975331D01*
X186499500Y-111645170D01*
X186494475Y-111680114D01*
X186490070Y-111695112D01*
X186480439Y-111710101D01*
X186475432Y-111727175D01*
X186452327Y-111753855D01*
X186450958Y-111755042D01*
X186396097Y-111782518D01*
X186388539Y-111784163D01*
X186362168Y-111787000D01*
X184459623Y-111787000D01*
X184457692Y-111787159D01*
X184456045Y-111787385D01*
X184400016Y-111793408D01*
X184265166Y-111843704D01*
X184265165Y-111843705D01*
X184149956Y-111929950D01*
X184149950Y-111929956D01*
X184063705Y-112045165D01*
X184063703Y-112045168D01*
X184013405Y-112180023D01*
X184013198Y-112180902D01*
X184007084Y-112199832D01*
X183999943Y-112217071D01*
X183956101Y-112271473D01*
X183956092Y-112271480D01*
X183947823Y-112277220D01*
X183901306Y-112296973D01*
X183758181Y-112325443D01*
X183758175Y-112325444D01*
X183758154Y-112325451D01*
X183576093Y-112400862D01*
X183576083Y-112400867D01*
X183412212Y-112510364D01*
X183412209Y-112510366D01*
X182397003Y-113525573D01*
X182368752Y-113546722D01*
X182345664Y-113559330D01*
X182286234Y-113574500D01*
X182250000Y-113574500D01*
X182249982Y-113574500D01*
X182249979Y-113574501D01*
X182228517Y-113576693D01*
X182147203Y-113585000D01*
X182147201Y-113585000D01*
X182147197Y-113585001D01*
X182147193Y-113585001D01*
X182147032Y-113585056D01*
X181980667Y-113640185D01*
X181980665Y-113640186D01*
X181980663Y-113640187D01*
X181881115Y-113701588D01*
X181831340Y-113732290D01*
X181707290Y-113856340D01*
X181707289Y-113856342D01*
X181615704Y-114004826D01*
X181615185Y-114005667D01*
X181615180Y-114005680D01*
X181587349Y-114089668D01*
X181587349Y-114089671D01*
X181570299Y-114141123D01*
X181561852Y-114154068D01*
X181560364Y-114168635D01*
X181559542Y-114174877D01*
X181559359Y-114178476D01*
X181549500Y-114274973D01*
X181549500Y-114274983D01*
X181549500Y-114900001D01*
X181549500Y-114900009D01*
X181549503Y-114900045D01*
X181560000Y-115002796D01*
X181560003Y-115002804D01*
X181560070Y-115003007D01*
X181611043Y-115156831D01*
X181611044Y-115156834D01*
X181615184Y-115169331D01*
X181615186Y-115169334D01*
X181707288Y-115318656D01*
X181831344Y-115442712D01*
X181980666Y-115534814D01*
X182147203Y-115589999D01*
X182249991Y-115600500D01*
X183250008Y-115600499D01*
X183250016Y-115600498D01*
X183250019Y-115600498D01*
X183250027Y-115600497D01*
X183250317Y-115600479D01*
X183251333Y-115600363D01*
X183296459Y-115595753D01*
X183306303Y-115594748D01*
X183306303Y-115594747D01*
X183352797Y-115589999D01*
X183519334Y-115534814D01*
X183668656Y-115442712D01*
X183792712Y-115318656D01*
X183884814Y-115169334D01*
X183939999Y-115002797D01*
X183950500Y-114900009D01*
X183950499Y-114871107D01*
X183954763Y-114838866D01*
X183955114Y-114837560D01*
X183959144Y-114823836D01*
X183960549Y-114817373D01*
X183961331Y-114814473D01*
X183978040Y-114787134D01*
X183993381Y-114759037D01*
X184037023Y-114715395D01*
X184065275Y-114694246D01*
X184078996Y-114686755D01*
X184147259Y-114671905D01*
X184153583Y-114672357D01*
X184219047Y-114696769D01*
X184247169Y-114717821D01*
X184258076Y-114725986D01*
X184258078Y-114725988D01*
X184265273Y-114731374D01*
X184267217Y-114732060D01*
X184339541Y-114759035D01*
X184362127Y-114767459D01*
X184389370Y-114782335D01*
X184393101Y-114784372D01*
X184405616Y-114793740D01*
X184447489Y-114849672D01*
X184447490Y-114849674D01*
X184451681Y-114860910D01*
X184459500Y-114904245D01*
X184459500Y-118808541D01*
X184467457Y-118848540D01*
X184467457Y-118848543D01*
X184483874Y-118931081D01*
X184483874Y-118931082D01*
X184483874Y-118931084D01*
X184493089Y-118977407D01*
X184494539Y-118984693D01*
X184494540Y-118984700D01*
X184497949Y-119001836D01*
X184497951Y-119001843D01*
X184573360Y-119183900D01*
X184573365Y-119183909D01*
X184573375Y-119183926D01*
X184682858Y-119347779D01*
X184775095Y-119440016D01*
X184787623Y-119462959D01*
X184822237Y-119488920D01*
X184835518Y-119500439D01*
X184839654Y-119504575D01*
X184839659Y-119504579D01*
X185275574Y-119940495D01*
X185296723Y-119968746D01*
X185309331Y-119991835D01*
X185324500Y-120051264D01*
X185324500Y-120087492D01*
X185324501Y-120087519D01*
X185335000Y-120190296D01*
X185335003Y-120190304D01*
X185335001Y-120190304D01*
X185335025Y-120190416D01*
X185335067Y-120190500D01*
X185349716Y-120234704D01*
X185390186Y-120356834D01*
X185482288Y-120506156D01*
X185606344Y-120630212D01*
X185755666Y-120722314D01*
X185922203Y-120777499D01*
X186024991Y-120788000D01*
X186650008Y-120787999D01*
X186650016Y-120787998D01*
X186650019Y-120787998D01*
X186650027Y-120787997D01*
X186650317Y-120787979D01*
X186651333Y-120787863D01*
X186696459Y-120783253D01*
X186706303Y-120782248D01*
X186706303Y-120782247D01*
X186752797Y-120777499D01*
X186919334Y-120722314D01*
X187068656Y-120630212D01*
X187139321Y-120559546D01*
X187200640Y-120526064D01*
X187270332Y-120531048D01*
X187313397Y-120558284D01*
X187740918Y-120973555D01*
X188273197Y-121490584D01*
X188287065Y-121504054D01*
X188298165Y-121523698D01*
X188313070Y-121540640D01*
X188315022Y-121553532D01*
X188321437Y-121564884D01*
X188320154Y-121587411D01*
X188323534Y-121609722D01*
X188318207Y-121621623D01*
X188317466Y-121634641D01*
X188304207Y-121652898D01*
X188294989Y-121673495D01*
X188284072Y-121680627D01*
X188276412Y-121691177D01*
X188255388Y-121699368D01*
X188236497Y-121711711D01*
X188215909Y-121714750D01*
X188211310Y-121716542D01*
X188201601Y-121716996D01*
X188201070Y-121717000D01*
X188072129Y-121717000D01*
X188072123Y-121717001D01*
X188062420Y-121718043D01*
X188062410Y-121718044D01*
X188012516Y-121723408D01*
X187900153Y-121765317D01*
X187877666Y-121773704D01*
X187877665Y-121773705D01*
X187762456Y-121859950D01*
X187762450Y-121859956D01*
X187676205Y-121975165D01*
X187676203Y-121975168D01*
X187625907Y-122110016D01*
X187619500Y-122169619D01*
X187619500Y-123645170D01*
X187614782Y-123677983D01*
X187614477Y-123680104D01*
X187610073Y-123695103D01*
X187572299Y-123753881D01*
X187572289Y-123753890D01*
X187570920Y-123755076D01*
X187516098Y-123782518D01*
X187508540Y-123784163D01*
X187482169Y-123787000D01*
X187081434Y-123787000D01*
X186951369Y-123801654D01*
X186951346Y-123801657D01*
X186951342Y-123801658D01*
X186951340Y-123801659D01*
X186786396Y-123859376D01*
X186638422Y-123952353D01*
X186514853Y-124075922D01*
X186421875Y-124223898D01*
X186392116Y-124308944D01*
X186377821Y-124337410D01*
X186376853Y-124338841D01*
X186372610Y-124344758D01*
X186372096Y-124345882D01*
X186368730Y-124350865D01*
X186345019Y-124370473D01*
X186328009Y-124386636D01*
X186328830Y-124387914D01*
X186326925Y-124389138D01*
X186324684Y-124389795D01*
X186322627Y-124391751D01*
X186318444Y-124393899D01*
X186317922Y-124392882D01*
X186314887Y-124395393D01*
X186299177Y-124397283D01*
X186259896Y-124408816D01*
X186156130Y-124408816D01*
X186156129Y-124408815D01*
X186156129Y-124408816D01*
X186121194Y-124403793D01*
X186095952Y-124396381D01*
X186043207Y-124365085D01*
X185374424Y-123696302D01*
X185353272Y-123668046D01*
X185340665Y-123644957D01*
X185325498Y-123585532D01*
X185325498Y-123347696D01*
X185325498Y-123347686D01*
X185325497Y-123347669D01*
X185314998Y-123244891D01*
X185314997Y-123244888D01*
X185296930Y-123190366D01*
X185259813Y-123078354D01*
X185167711Y-122929032D01*
X185043655Y-122804976D01*
X184894333Y-122712874D01*
X184736264Y-122660495D01*
X184733444Y-122659329D01*
X184727791Y-122657687D01*
X184625018Y-122647188D01*
X184625009Y-122647188D01*
X183999997Y-122647188D01*
X183999979Y-122647189D01*
X183999971Y-122647189D01*
X183999952Y-122647191D01*
X183897196Y-122657688D01*
X183897192Y-122657689D01*
X183897031Y-122657744D01*
X183730666Y-122712873D01*
X183730664Y-122712874D01*
X183730662Y-122712875D01*
X183656001Y-122758926D01*
X183581337Y-122804979D01*
X183500284Y-122886033D01*
X183500281Y-122886034D01*
X183500281Y-122886036D01*
X183472026Y-122907186D01*
X183458308Y-122914676D01*
X183390050Y-122929527D01*
X183390035Y-122929525D01*
X183390035Y-122929526D01*
X183390034Y-122929525D01*
X183388244Y-122929398D01*
X183330043Y-122910030D01*
X183323528Y-122905843D01*
X183302892Y-122889213D01*
X183218656Y-122804977D01*
X183218655Y-122804976D01*
X183069333Y-122712874D01*
X182911264Y-122660495D01*
X182908444Y-122659329D01*
X182902791Y-122657687D01*
X182800018Y-122647188D01*
X182800009Y-122647188D01*
X182174997Y-122647188D01*
X182174979Y-122647189D01*
X182174971Y-122647189D01*
X182174952Y-122647191D01*
X182072196Y-122657688D01*
X182072192Y-122657689D01*
X182072031Y-122657744D01*
X181905666Y-122712873D01*
X181905664Y-122712874D01*
X181905662Y-122712875D01*
X181806114Y-122774276D01*
X181756339Y-122804978D01*
X181632289Y-122929028D01*
X181540186Y-123078350D01*
X181540186Y-123078351D01*
X181540185Y-123078354D01*
X181524400Y-123125990D01*
X181496049Y-123211545D01*
X181496043Y-123211563D01*
X181485000Y-123244891D01*
X181485000Y-123244892D01*
X181484999Y-123244892D01*
X181484229Y-123252423D01*
X181484228Y-123252429D01*
X181474499Y-123347661D01*
X181474499Y-123347669D01*
X181474499Y-123347671D01*
X181474499Y-124347689D01*
X181474500Y-124347707D01*
X181474502Y-124347728D01*
X181474503Y-124347739D01*
X181480437Y-124405829D01*
X181480500Y-124406464D01*
X181485423Y-124457247D01*
X181485338Y-124457256D01*
X181486365Y-124466958D01*
X181486420Y-124467525D01*
X181486378Y-124467740D01*
X181486999Y-124479491D01*
X181486999Y-125821782D01*
X181481975Y-125856721D01*
X181474563Y-125881961D01*
X181443268Y-125934703D01*
X181350991Y-126026979D01*
X181346858Y-126034359D01*
X181324036Y-126065772D01*
X181324035Y-126065774D01*
X181216657Y-126213565D01*
X181193468Y-126259076D01*
X181109433Y-126424003D01*
X181036446Y-126648631D01*
X181036445Y-126648634D01*
X181036445Y-126648636D01*
X180999500Y-126881896D01*
X180999500Y-127118102D01*
X181036445Y-127351362D01*
X181036446Y-127351368D01*
X181109433Y-127575996D01*
X181216657Y-127786433D01*
X181355483Y-127977510D01*
X181522490Y-128144517D01*
X181713567Y-128283343D01*
X181812991Y-128334002D01*
X181924003Y-128390566D01*
X181924876Y-128391011D01*
X181928630Y-128392070D01*
X181976335Y-128407569D01*
X182044410Y-128429688D01*
X182044411Y-128429689D01*
X182044412Y-128429689D01*
X182148631Y-128463553D01*
X182381903Y-128500500D01*
X182381908Y-128500500D01*
X182618096Y-128500500D01*
X182618097Y-128500500D01*
X182851368Y-128463553D01*
X182901352Y-128447312D01*
X183075992Y-128390568D01*
X183286433Y-128283343D01*
X183477510Y-128144517D01*
X183644517Y-127977510D01*
X183783343Y-127786433D01*
X183890568Y-127575992D01*
X183963553Y-127351368D01*
X184000500Y-127118097D01*
X184000500Y-126881902D01*
X183963553Y-126648631D01*
X183927608Y-126538006D01*
X183918481Y-126509915D01*
X183893176Y-126432034D01*
X183893174Y-126432030D01*
X183890568Y-126424008D01*
X183890566Y-126424005D01*
X183890566Y-126424003D01*
X183888333Y-126419621D01*
X183888020Y-126418818D01*
X183887287Y-126417567D01*
X183806531Y-126259076D01*
X183783343Y-126213567D01*
X183644517Y-126022490D01*
X183536920Y-125914893D01*
X183515773Y-125886642D01*
X183503166Y-125863553D01*
X183487999Y-125804128D01*
X183487999Y-125072828D01*
X183493021Y-125037895D01*
X183493082Y-125037687D01*
X183496932Y-125024576D01*
X183534705Y-124965799D01*
X183598257Y-124936774D01*
X183598959Y-124936673D01*
X183658825Y-124942837D01*
X183665110Y-124945115D01*
X183687945Y-124956152D01*
X183730665Y-124982502D01*
X183897202Y-125037687D01*
X183999990Y-125048188D01*
X184180830Y-125048187D01*
X184215761Y-125053208D01*
X184241002Y-125060620D01*
X184293750Y-125091916D01*
X185166186Y-125964354D01*
X185166191Y-125964358D01*
X185166195Y-125964361D01*
X185309582Y-126060170D01*
X185309595Y-126060177D01*
X185309597Y-126060177D01*
X185309601Y-126060180D01*
X185391063Y-126093922D01*
X185468915Y-126126169D01*
X185468920Y-126126171D01*
X185468922Y-126126171D01*
X185468924Y-126126172D01*
X185594267Y-126151104D01*
X185630420Y-126158295D01*
X185633154Y-126159019D01*
X185638062Y-126159816D01*
X185638063Y-126159816D01*
X185638065Y-126159816D01*
X185810523Y-126159816D01*
X186340988Y-126159816D01*
X186367517Y-126163630D01*
X186375920Y-126164838D01*
X186382760Y-126166846D01*
X186395165Y-126170488D01*
X186448357Y-126202231D01*
X186454211Y-126208145D01*
X186471074Y-126229402D01*
X186508018Y-126288198D01*
X186514853Y-126299076D01*
X186638424Y-126422647D01*
X186786394Y-126515622D01*
X186850357Y-126538004D01*
X186943920Y-126570744D01*
X186943921Y-126570744D01*
X186951342Y-126573341D01*
X186951351Y-126573342D01*
X186992748Y-126578005D01*
X186992749Y-126578006D01*
X187008281Y-126579755D01*
X187078440Y-126587660D01*
X187080909Y-126588000D01*
X187718555Y-126588000D01*
X187728348Y-126588000D01*
X187735944Y-126586039D01*
X187848657Y-126573341D01*
X188013606Y-126515622D01*
X188161576Y-126422647D01*
X188285147Y-126299076D01*
X188378122Y-126151106D01*
X188435841Y-125986157D01*
X188450500Y-125856052D01*
X188450500Y-124659823D01*
X188452369Y-124638374D01*
X188454006Y-124629053D01*
X188455405Y-124626223D01*
X188455522Y-124624892D01*
X188456805Y-124620522D01*
X188457776Y-124620807D01*
X188461879Y-124604734D01*
X188461187Y-124604476D01*
X188462248Y-124601630D01*
X188462891Y-124600770D01*
X188463349Y-124598977D01*
X188464587Y-124596267D01*
X188465834Y-124596837D01*
X188474777Y-124584887D01*
X188477657Y-124575102D01*
X188482976Y-124570497D01*
X188484990Y-124566429D01*
X188491520Y-124562513D01*
X188500520Y-124550486D01*
X188499623Y-124549451D01*
X188500679Y-124548535D01*
X188502658Y-124547629D01*
X188504110Y-124545690D01*
X188504147Y-124545663D01*
X188506586Y-124543838D01*
X188507698Y-124545324D01*
X188516954Y-124541091D01*
X188530488Y-124529379D01*
X188564093Y-124519533D01*
X188564216Y-124519477D01*
X188565800Y-124519249D01*
X188583370Y-124517999D01*
X188604917Y-124517999D01*
X188639849Y-124523020D01*
X188665093Y-124530433D01*
X188717839Y-124561729D01*
X189918843Y-125762732D01*
X189972164Y-125816053D01*
X190023375Y-125867265D01*
X190023383Y-125867271D01*
X190146275Y-125949385D01*
X190146280Y-125949388D01*
X190146292Y-125949396D01*
X190146305Y-125949403D01*
X190172558Y-125960277D01*
X190176783Y-125962027D01*
X190182418Y-125964361D01*
X190182420Y-125964362D01*
X190205177Y-125973788D01*
X190282882Y-126005975D01*
X190389538Y-126027190D01*
X190422964Y-126033838D01*
X190422968Y-126033841D01*
X190422969Y-126033840D01*
X190423939Y-126034032D01*
X190427875Y-126034816D01*
X190427876Y-126034816D01*
X190427877Y-126034816D01*
X190575712Y-126034816D01*
X191889395Y-126034816D01*
X191924330Y-126039839D01*
X191939989Y-126044437D01*
X191997931Y-126081258D01*
X192009133Y-126093922D01*
X192021249Y-126110106D01*
X192031344Y-126126172D01*
X192047010Y-126151104D01*
X192114853Y-126259076D01*
X192238424Y-126382647D01*
X192386394Y-126475622D01*
X192434099Y-126492315D01*
X192543920Y-126530744D01*
X192543921Y-126530744D01*
X192551342Y-126533341D01*
X192551351Y-126533342D01*
X192592748Y-126538005D01*
X192592749Y-126538006D01*
X192608281Y-126539755D01*
X192678440Y-126547660D01*
X192680909Y-126548000D01*
X193318555Y-126548000D01*
X193328348Y-126548000D01*
X193335944Y-126546039D01*
X193448657Y-126533341D01*
X193613606Y-126475622D01*
X193761576Y-126382647D01*
X193885147Y-126259076D01*
X193978122Y-126111106D01*
X194035841Y-125946157D01*
X194042547Y-125886642D01*
X194050500Y-125816053D01*
X194050500Y-124619828D01*
X194053888Y-124596267D01*
X194055523Y-124584892D01*
X194055525Y-124584887D01*
X194059927Y-124569893D01*
X194097672Y-124511143D01*
X194097700Y-124511118D01*
X194097699Y-124511118D01*
X194099041Y-124509955D01*
X194153920Y-124482476D01*
X194161479Y-124480832D01*
X194187832Y-124477999D01*
X194867871Y-124477999D01*
X194867872Y-124477999D01*
X194927483Y-124471591D01*
X195062331Y-124421296D01*
X195177546Y-124335046D01*
X195236676Y-124256058D01*
X195263794Y-124219834D01*
X195263794Y-124219833D01*
X195263796Y-124219831D01*
X195271193Y-124199998D01*
X195288536Y-124153501D01*
X195298192Y-124127609D01*
X195314091Y-124084983D01*
X195320500Y-124025373D01*
X195320499Y-123734331D01*
X195325522Y-123699398D01*
X195332932Y-123674161D01*
X195364226Y-123621415D01*
X195492545Y-123493099D01*
X195588358Y-123349705D01*
X195654355Y-123190374D01*
X195688000Y-123021229D01*
X195688000Y-122848771D01*
X195688000Y-122025671D01*
X195692704Y-121991842D01*
X195701755Y-121959924D01*
X195715514Y-121928654D01*
X195720166Y-121921113D01*
X195746445Y-121878509D01*
X195759810Y-121856841D01*
X195759810Y-121856839D01*
X195759814Y-121856834D01*
X195814999Y-121690297D01*
X195825500Y-121587509D01*
X195825499Y-120587492D01*
X195822515Y-120558284D01*
X195814999Y-120484703D01*
X195814998Y-120484700D01*
X195759814Y-120318166D01*
X195667712Y-120168844D01*
X195543656Y-120044788D01*
X195543655Y-120044787D01*
X195439725Y-119980683D01*
X195439720Y-119980680D01*
X195437304Y-119979190D01*
X195394336Y-119952687D01*
X195394331Y-119952685D01*
X195392862Y-119952198D01*
X195357530Y-119940490D01*
X195236265Y-119900307D01*
X195233445Y-119899141D01*
X195227792Y-119897499D01*
X195125019Y-119887000D01*
X195125010Y-119887000D01*
X194499998Y-119887000D01*
X194499980Y-119887001D01*
X194499972Y-119887001D01*
X194499953Y-119887003D01*
X194397669Y-119897452D01*
X194397667Y-119897452D01*
X194397203Y-119897500D01*
X194397200Y-119897501D01*
X194230668Y-119952685D01*
X194230661Y-119952688D01*
X194192997Y-119975919D01*
X194182163Y-119980073D01*
X194178641Y-119980357D01*
X194170504Y-119983893D01*
X194159596Y-119986878D01*
X194089738Y-119985586D01*
X194031668Y-119946732D01*
X194003824Y-119882662D01*
X194003288Y-119878373D01*
X194009288Y-119822036D01*
X194035841Y-119746157D01*
X194050500Y-119616052D01*
X194050500Y-118278948D01*
X194035841Y-118148843D01*
X193978122Y-117983894D01*
X193885147Y-117835924D01*
X193761576Y-117712353D01*
X193631997Y-117630933D01*
X193631992Y-117630930D01*
X193613606Y-117619378D01*
X193613605Y-117619377D01*
X193613604Y-117619377D01*
X193448658Y-117561659D01*
X193448656Y-117561658D01*
X193448652Y-117561657D01*
X193448629Y-117561654D01*
X193318564Y-117547000D01*
X193318558Y-117547000D01*
X193318552Y-117547000D01*
X192941517Y-117547000D01*
X192874478Y-117527315D01*
X192828723Y-117474511D01*
X192817517Y-117423000D01*
X192817517Y-116444061D01*
X192817517Y-116444057D01*
X192805985Y-116336699D01*
X192794799Y-116285231D01*
X192786833Y-116261275D01*
X192786769Y-116260911D01*
X192786662Y-116260756D01*
X192785965Y-116256394D01*
X192780560Y-116225993D01*
X192780500Y-116224057D01*
X192780500Y-116208945D01*
X192780499Y-116208941D01*
X192772678Y-116139529D01*
X192765841Y-116078843D01*
X192708122Y-115913894D01*
X192615147Y-115765924D01*
X192491576Y-115642353D01*
X192461957Y-115623742D01*
X192361997Y-115560933D01*
X192361992Y-115560930D01*
X192343606Y-115549378D01*
X192343605Y-115549377D01*
X192343604Y-115549377D01*
X192305978Y-115536211D01*
X192178658Y-115491659D01*
X192178656Y-115491658D01*
X192178652Y-115491657D01*
X192178629Y-115491654D01*
X192048564Y-115477000D01*
X192048558Y-115477000D01*
X192048552Y-115477000D01*
X191411448Y-115477000D01*
X191411441Y-115477000D01*
X191411434Y-115477000D01*
X191281369Y-115491654D01*
X191281346Y-115491657D01*
X191281342Y-115491658D01*
X191281340Y-115491659D01*
X191116396Y-115549376D01*
X190968422Y-115642353D01*
X190844852Y-115765923D01*
X190843738Y-115767321D01*
X190842788Y-115767987D01*
X190839929Y-115770847D01*
X190839428Y-115770346D01*
X190786549Y-115807460D01*
X190746746Y-115814006D01*
X188476285Y-115813139D01*
X188476258Y-115813140D01*
X188433102Y-115815279D01*
X188425908Y-115815636D01*
X188401334Y-115818087D01*
X188351511Y-115825579D01*
X188215957Y-115873823D01*
X188155289Y-115905772D01*
X188154295Y-115906281D01*
X188154136Y-115906378D01*
X188037668Y-115990858D01*
X187297496Y-116709065D01*
X187297492Y-116709069D01*
X187258288Y-116751738D01*
X187240325Y-116773691D01*
X187240316Y-116773702D01*
X187206265Y-116820558D01*
X187146510Y-116951435D01*
X187146508Y-116951441D01*
X187126830Y-117018480D01*
X187125570Y-117027244D01*
X187125570Y-117027258D01*
X187106369Y-117160891D01*
X187106368Y-117160899D01*
X187106481Y-118345932D01*
X187086803Y-118412974D01*
X187034003Y-118458733D01*
X186964846Y-118468684D01*
X186941765Y-118463069D01*
X186928938Y-118458610D01*
X186919334Y-118452686D01*
X186760396Y-118400019D01*
X186759553Y-118399726D01*
X186759133Y-118399426D01*
X186758439Y-118399139D01*
X186752796Y-118397499D01*
X186650025Y-118387000D01*
X186650016Y-118387000D01*
X186650009Y-118387000D01*
X186621112Y-118387000D01*
X186588823Y-118382722D01*
X186587492Y-118382363D01*
X186573843Y-118378355D01*
X186567577Y-118376991D01*
X186564626Y-118376196D01*
X186537324Y-118359493D01*
X186509227Y-118344149D01*
X186506680Y-118340746D01*
X186505025Y-118339734D01*
X186503384Y-118336343D01*
X186488079Y-118315894D01*
X186475664Y-118293154D01*
X186460500Y-118233734D01*
X186460500Y-114907701D01*
X186465523Y-114872765D01*
X186469927Y-114857767D01*
X186479564Y-114842770D01*
X186484584Y-114825670D01*
X186507695Y-114798995D01*
X186516764Y-114791136D01*
X186554631Y-114768667D01*
X186648329Y-114733720D01*
X186653467Y-114732126D01*
X186659875Y-114729414D01*
X186690956Y-114717821D01*
X186716145Y-114685395D01*
X186770046Y-114645046D01*
X186856296Y-114529831D01*
X186856298Y-114529826D01*
X186857168Y-114527492D01*
X186874080Y-114496517D01*
X186882399Y-114485403D01*
X186938331Y-114443529D01*
X187008022Y-114438542D01*
X187008026Y-114438542D01*
X187016046Y-114440287D01*
X187062566Y-114461134D01*
X187130902Y-114510783D01*
X187213567Y-114570843D01*
X187311407Y-114620695D01*
X187424003Y-114678066D01*
X187424876Y-114678511D01*
X187428630Y-114679570D01*
X187446555Y-114685394D01*
X187544410Y-114717188D01*
X187544411Y-114717189D01*
X187544412Y-114717189D01*
X187648631Y-114751053D01*
X187881903Y-114788000D01*
X187881908Y-114788000D01*
X188118096Y-114788000D01*
X188118097Y-114788000D01*
X188351368Y-114751053D01*
X188575992Y-114678068D01*
X188786433Y-114570843D01*
X188977510Y-114432017D01*
X189144517Y-114265010D01*
X189283343Y-114073933D01*
X189390568Y-113863492D01*
X189463553Y-113638868D01*
X189469373Y-113602122D01*
X189500500Y-113405597D01*
X189500500Y-110334359D01*
X189505523Y-110299423D01*
X189509927Y-110284425D01*
X189510739Y-110283161D01*
X189547692Y-110225656D01*
X189552787Y-110221240D01*
X189613609Y-110192635D01*
X190019050Y-110125063D01*
X190115180Y-110095077D01*
X190235378Y-110015919D01*
X190328406Y-109906103D01*
X190386726Y-109774527D01*
X190393016Y-109728970D01*
X190400499Y-109674787D01*
X190400500Y-109674774D01*
X190400501Y-108500224D01*
X190386726Y-108400473D01*
X190328406Y-108268897D01*
X190328404Y-108268895D01*
X190328404Y-108268894D01*
X190235380Y-108159084D01*
X190235372Y-108159077D01*
X190235371Y-108159076D01*
X190115181Y-108079922D01*
X190019056Y-108049939D01*
X190019051Y-108049938D01*
X188931475Y-107868675D01*
X186424791Y-107450893D01*
X186403330Y-107440506D01*
X186305656Y-107431885D01*
X186305643Y-107431885D01*
X186305641Y-107431885D01*
X186162980Y-107450772D01*
X186162972Y-107450773D01*
X186162968Y-107450775D01*
X186031394Y-107509094D01*
X185921582Y-107602120D01*
X185921581Y-107602122D01*
X185842420Y-107722323D01*
X185842287Y-107722764D01*
X185839395Y-107732219D01*
X185824380Y-107764148D01*
X185815783Y-107777203D01*
X185802170Y-107788735D01*
X185800963Y-107790569D01*
X185798957Y-107791457D01*
X185762478Y-107822364D01*
X185757371Y-107824628D01*
X185753465Y-107826359D01*
X185703210Y-107837000D01*
X180904933Y-107837000D01*
X180904932Y-107836999D01*
X180904932Y-107837000D01*
X180869997Y-107831977D01*
X180844755Y-107824565D01*
X180792010Y-107793269D01*
X180668824Y-107670083D01*
X180668823Y-107670082D01*
X180583603Y-107602122D01*
X180583601Y-107602120D01*
X180466950Y-107509094D01*
X180449248Y-107494977D01*
X180212857Y-107346442D01*
X180211798Y-107345756D01*
X180211440Y-107345552D01*
X179958418Y-107223703D01*
X179958404Y-107223697D01*
X179693353Y-107130950D01*
X179693332Y-107130943D01*
X179693320Y-107130940D01*
X179693317Y-107130939D01*
X179581467Y-107105410D01*
X179419514Y-107068445D01*
X179419479Y-107068439D01*
X179140437Y-107037000D01*
X179140431Y-107037000D01*
X179140425Y-107037000D01*
X178859575Y-107037000D01*
X178859568Y-107037000D01*
X178859561Y-107037000D01*
X178580519Y-107068439D01*
X178580484Y-107068445D01*
X178306678Y-107130940D01*
X178306666Y-107130943D01*
X178306645Y-107130950D01*
X178041594Y-107223697D01*
X178041572Y-107223706D01*
X177788562Y-107345549D01*
X177550754Y-107494975D01*
X177331175Y-107670082D01*
X177132582Y-107868675D01*
X176957475Y-108088254D01*
X176808056Y-108326051D01*
X176808046Y-108326069D01*
X176796169Y-108350731D01*
X176796169Y-108350735D01*
X176776486Y-108380031D01*
X176765551Y-108392143D01*
X176707237Y-108428374D01*
X176703246Y-108429501D01*
X176693250Y-108432326D01*
X176659529Y-108437000D01*
X174521695Y-108437000D01*
X174486756Y-108431976D01*
X174473438Y-108428065D01*
X174458439Y-108418425D01*
X174441334Y-108413402D01*
X174429660Y-108399929D01*
X174414661Y-108390289D01*
X174407254Y-108374068D01*
X174395581Y-108360596D01*
X174385639Y-108326732D01*
X174383851Y-108314293D01*
X174384278Y-108276254D01*
X174384482Y-108275035D01*
X174385505Y-108268894D01*
X174386186Y-108264812D01*
X174403808Y-108159076D01*
X174404660Y-108153966D01*
X174405615Y-108143150D01*
X174386726Y-108000473D01*
X174328406Y-107868897D01*
X174235378Y-107759081D01*
X174115180Y-107679923D01*
X174115179Y-107679922D01*
X174115178Y-107679922D01*
X174115178Y-107679921D01*
X174107747Y-107677648D01*
X174103910Y-107675466D01*
X174097458Y-107674502D01*
X173977558Y-107637837D01*
X173977550Y-107637835D01*
X173977549Y-107637835D01*
X173977546Y-107637834D01*
X173975379Y-107637567D01*
X173972793Y-107637468D01*
X173966729Y-107637000D01*
X173966724Y-107637000D01*
X171533277Y-107637000D01*
X171533263Y-107637000D01*
X171526779Y-107637500D01*
X171526780Y-107637501D01*
X171522451Y-107637834D01*
X171522449Y-107637834D01*
X171522441Y-107637836D01*
X171384855Y-107679911D01*
X171384836Y-107679917D01*
X171384824Y-107679921D01*
X171384821Y-107679922D01*
X171384820Y-107679922D01*
X171384816Y-107679924D01*
X171376442Y-107685100D01*
X171374275Y-107686866D01*
X171338173Y-107710642D01*
X171264623Y-107759080D01*
X171264618Y-107759085D01*
X171171595Y-107868892D01*
X171113275Y-108000468D01*
X171113270Y-108000494D01*
X171094385Y-108143141D01*
X171094385Y-108143153D01*
X171095339Y-108153952D01*
X171095342Y-108153979D01*
X171115518Y-108275031D01*
X171115518Y-108275035D01*
X171115519Y-108275037D01*
X171116306Y-108310322D01*
X171114638Y-108324097D01*
X171087037Y-108388284D01*
X171029126Y-108427356D01*
X171029118Y-108427358D01*
X171029116Y-108427360D01*
X171029113Y-108427360D01*
X171017152Y-108431165D01*
X170979563Y-108437000D01*
X167781898Y-108437000D01*
X167548636Y-108473945D01*
X167548634Y-108473945D01*
X167548631Y-108473946D01*
X167467757Y-108500224D01*
X167323998Y-108546934D01*
X167113572Y-108654153D01*
X167113569Y-108654154D01*
X167113565Y-108654157D01*
X166922488Y-108792984D01*
X166922486Y-108792986D01*
X166922485Y-108792986D01*
X165355486Y-110359985D01*
X165355479Y-110359994D01*
X165216663Y-110551054D01*
X165216653Y-110551070D01*
X165120658Y-110739474D01*
X165120650Y-110739491D01*
X165119292Y-110742157D01*
X165119291Y-110742159D01*
X165109434Y-110761502D01*
X165109433Y-110761506D01*
X165106028Y-110771983D01*
X165106022Y-110771998D01*
X165036445Y-110986134D01*
X164999500Y-111219396D01*
X164999500Y-111645170D01*
X164999499Y-111645176D01*
X164999500Y-111645179D01*
X164994475Y-111680114D01*
X164990070Y-111695112D01*
X164952327Y-111753855D01*
X164952292Y-111753885D01*
X164952291Y-111753887D01*
X164952289Y-111753887D01*
X164950958Y-111755042D01*
X164896097Y-111782518D01*
X164888539Y-111784163D01*
X164862168Y-111787000D01*
X162959623Y-111787000D01*
X162957692Y-111787159D01*
X162956045Y-111787385D01*
X162900016Y-111793408D01*
X162765166Y-111843704D01*
X162765165Y-111843705D01*
X162649956Y-111929950D01*
X162649950Y-111929956D01*
X162563705Y-112045165D01*
X162563701Y-112045171D01*
X162563700Y-112045173D01*
X162513411Y-112180007D01*
X162513411Y-112180009D01*
X162513409Y-112180017D01*
X162510342Y-112208534D01*
X162501617Y-112242719D01*
X162495636Y-112257161D01*
X162451798Y-112311568D01*
X162451784Y-112311578D01*
X162447412Y-112314613D01*
X162396593Y-112335145D01*
X162395625Y-112335302D01*
X162395057Y-112335394D01*
X162375168Y-112337000D01*
X161542329Y-112337000D01*
X161542324Y-112336999D01*
X161542322Y-112337000D01*
X161507388Y-112331975D01*
X161492389Y-112327570D01*
X161433643Y-112289827D01*
X161433614Y-112289793D01*
X161433613Y-112289793D01*
X161433612Y-112289791D01*
X161432456Y-112288458D01*
X161404976Y-112233583D01*
X161403331Y-112226021D01*
X161400499Y-112199668D01*
X161400499Y-111787508D01*
X161400499Y-111787498D01*
X161400498Y-111787481D01*
X161389999Y-111684703D01*
X161389998Y-111684700D01*
X161355311Y-111580023D01*
X161342584Y-111541614D01*
X161334816Y-111518170D01*
X161330703Y-111511501D01*
X161242712Y-111368844D01*
X161118656Y-111244788D01*
X160969334Y-111152686D01*
X160811265Y-111100307D01*
X160808445Y-111099141D01*
X160802792Y-111097499D01*
X160700019Y-111087000D01*
X160700010Y-111087000D01*
X159299998Y-111087000D01*
X159299981Y-111087001D01*
X159285959Y-111088433D01*
X159197198Y-111097500D01*
X159197193Y-111097501D01*
X159197032Y-111097556D01*
X159030667Y-111152685D01*
X159030665Y-111152686D01*
X159030663Y-111152687D01*
X158943704Y-111206324D01*
X158881340Y-111244790D01*
X158757290Y-111368840D01*
X158757289Y-111368842D01*
X158669297Y-111511501D01*
X158665185Y-111518167D01*
X158665180Y-111518180D01*
X158637349Y-111602168D01*
X158637349Y-111602171D01*
X158620299Y-111653623D01*
X158611852Y-111666568D01*
X158610364Y-111681135D01*
X158609542Y-111687377D01*
X158609387Y-111690413D01*
X158609396Y-111690604D01*
X158609355Y-111691014D01*
X158599500Y-111787483D01*
X155000500Y-111787483D01*
X155000500Y-89499983D01*
X158549500Y-89499983D01*
X158549500Y-92600001D01*
X158549501Y-92600018D01*
X158560000Y-92702796D01*
X158560001Y-92702799D01*
X158615185Y-92869331D01*
X158615186Y-92869334D01*
X158707288Y-93018656D01*
X158831344Y-93142712D01*
X158875422Y-93169899D01*
X158898323Y-93189011D01*
X158902517Y-93192511D01*
X158915745Y-93207217D01*
X158944468Y-93262656D01*
X158946415Y-93271221D01*
X158949500Y-93298708D01*
X158949500Y-96561044D01*
X158949500Y-96561046D01*
X158949499Y-96561046D01*
X158968614Y-96657140D01*
X158968636Y-96657247D01*
X158968724Y-96657688D01*
X158987946Y-96754328D01*
X158987948Y-96754332D01*
X158987949Y-96754336D01*
X159010038Y-96807664D01*
X159046804Y-96896426D01*
X159063368Y-96936416D01*
X159146132Y-97060281D01*
X159172860Y-97100281D01*
X159172863Y-97100285D01*
X159316537Y-97243959D01*
X159316547Y-97243968D01*
X159317580Y-97245001D01*
X159317623Y-97245043D01*
X159725574Y-97652994D01*
X159746723Y-97681245D01*
X159759331Y-97704334D01*
X159774500Y-97763763D01*
X159774500Y-97799992D01*
X159774501Y-97800019D01*
X159785000Y-97902796D01*
X159785003Y-97902804D01*
X159785001Y-97902804D01*
X159785025Y-97902916D01*
X159785067Y-97903000D01*
X159799716Y-97947204D01*
X159840186Y-98069334D01*
X159932288Y-98218656D01*
X160056344Y-98342712D01*
X160205666Y-98434814D01*
X160372203Y-98489999D01*
X160474991Y-98500500D01*
X161100008Y-98500499D01*
X161100016Y-98500498D01*
X161100019Y-98500498D01*
X161100027Y-98500497D01*
X161100317Y-98500479D01*
X161101333Y-98500363D01*
X161146459Y-98495753D01*
X161156303Y-98494748D01*
X161156303Y-98494747D01*
X161202797Y-98489999D01*
X161369334Y-98434814D01*
X161518656Y-98342712D01*
X161518659Y-98342708D01*
X161523059Y-98339995D01*
X161590452Y-98321555D01*
X161657115Y-98342477D01*
X161688549Y-98372752D01*
X161772063Y-98487950D01*
X161772076Y-98487966D01*
X162580240Y-99321283D01*
X162612782Y-99383112D01*
X162606730Y-99452719D01*
X162564007Y-99508004D01*
X162498176Y-99531415D01*
X162491226Y-99531610D01*
X161471590Y-99531610D01*
X161471587Y-99531609D01*
X161471586Y-99531610D01*
X161436651Y-99526586D01*
X161414830Y-99520178D01*
X161365266Y-99491950D01*
X161362607Y-99489474D01*
X161356530Y-99482708D01*
X161356053Y-99482402D01*
X161355844Y-99481944D01*
X161347844Y-99473038D01*
X161272549Y-99372458D01*
X161272547Y-99372455D01*
X161272544Y-99372452D01*
X161272542Y-99372450D01*
X161206448Y-99322972D01*
X161157335Y-99286206D01*
X161157332Y-99286204D01*
X161157330Y-99286203D01*
X161157328Y-99286202D01*
X161022482Y-99235908D01*
X161022483Y-99235908D01*
X160962883Y-99229501D01*
X160962881Y-99229500D01*
X160962873Y-99229500D01*
X160962864Y-99229500D01*
X160961841Y-99229500D01*
X159067123Y-99229500D01*
X159065192Y-99229659D01*
X159063545Y-99229885D01*
X159007516Y-99235908D01*
X158898794Y-99276459D01*
X158872666Y-99286204D01*
X158872665Y-99286205D01*
X158757456Y-99372450D01*
X158757450Y-99372456D01*
X158671205Y-99487665D01*
X158671203Y-99487668D01*
X158620907Y-99622516D01*
X158614501Y-99682116D01*
X158614500Y-99682139D01*
X158614500Y-100877876D01*
X158614659Y-100879806D01*
X158614885Y-100881454D01*
X158620907Y-100937482D01*
X158640429Y-100989822D01*
X158671202Y-101072328D01*
X158671206Y-101072335D01*
X158693287Y-101101831D01*
X158757450Y-101187542D01*
X158757456Y-101187548D01*
X158781569Y-101205599D01*
X158872664Y-101273793D01*
X158872671Y-101273797D01*
X159007517Y-101324091D01*
X159007516Y-101324091D01*
X159014444Y-101324835D01*
X159067127Y-101330500D01*
X160542670Y-101330499D01*
X160576276Y-101335331D01*
X160577604Y-101335522D01*
X160592603Y-101339926D01*
X160651381Y-101377700D01*
X160651390Y-101377710D01*
X160652576Y-101379079D01*
X160680018Y-101433901D01*
X160681663Y-101441459D01*
X160684500Y-101467830D01*
X160684500Y-101868564D01*
X160699154Y-101998629D01*
X160699157Y-101998652D01*
X160699158Y-101998656D01*
X160699159Y-101998659D01*
X160753402Y-102153673D01*
X160753542Y-102154071D01*
X160756878Y-102163606D01*
X160849853Y-102311576D01*
X160973424Y-102435147D01*
X161121394Y-102528122D01*
X161286343Y-102585841D01*
X161286349Y-102585841D01*
X161286351Y-102585842D01*
X161310617Y-102588576D01*
X161413446Y-102600161D01*
X161415911Y-102600500D01*
X162753555Y-102600500D01*
X162763348Y-102600500D01*
X162770943Y-102598540D01*
X162883657Y-102585841D01*
X162883659Y-102585840D01*
X162884130Y-102585787D01*
X162905579Y-102585239D01*
X162913021Y-102585694D01*
X162912956Y-102586757D01*
X162929503Y-102587306D01*
X162929636Y-102586349D01*
X162939042Y-102587652D01*
X162938992Y-102588012D01*
X162939002Y-102588015D01*
X162938973Y-102588144D01*
X162938754Y-102589729D01*
X162947901Y-102593034D01*
X162966296Y-102594345D01*
X162995211Y-102610125D01*
X162996272Y-102610508D01*
X162997277Y-102611252D01*
X162998524Y-102612185D01*
X163011920Y-102623790D01*
X163032313Y-102644183D01*
X163053465Y-102672439D01*
X163060957Y-102686160D01*
X163075809Y-102754423D01*
X163075140Y-102763785D01*
X163062845Y-102809429D01*
X163056951Y-102821478D01*
X163057302Y-102827894D01*
X163054301Y-102838512D01*
X163021047Y-102938862D01*
X163021032Y-102938912D01*
X163010001Y-102972203D01*
X163010001Y-102972204D01*
X163010000Y-102972204D01*
X163009230Y-102979734D01*
X163009230Y-102979737D01*
X162999500Y-103074973D01*
X162999500Y-103699991D01*
X162999499Y-103699997D01*
X162999503Y-103700045D01*
X163007363Y-103776979D01*
X163010000Y-103802796D01*
X163010001Y-103802799D01*
X163015710Y-103820027D01*
X163065182Y-103969322D01*
X163065186Y-103969333D01*
X163065188Y-103969338D01*
X163075203Y-103985575D01*
X163112648Y-104046284D01*
X163157288Y-104118656D01*
X163238344Y-104199712D01*
X163259495Y-104227967D01*
X163266987Y-104241688D01*
X163281839Y-104309948D01*
X163281710Y-104311754D01*
X163262342Y-104369956D01*
X163258163Y-104376459D01*
X163241527Y-104397103D01*
X163157291Y-104481338D01*
X163065186Y-104630665D01*
X163065177Y-104630691D01*
X163050824Y-104674007D01*
X163050823Y-104674010D01*
X163020298Y-104766124D01*
X163011852Y-104779067D01*
X163010365Y-104793630D01*
X163009542Y-104799881D01*
X163009359Y-104803476D01*
X162999500Y-104899973D01*
X162999500Y-105524998D01*
X162999503Y-105525045D01*
X163004605Y-105574992D01*
X163010000Y-105627796D01*
X163010001Y-105627799D01*
X163043043Y-105727511D01*
X163065186Y-105794334D01*
X163157288Y-105943656D01*
X163281344Y-106067712D01*
X163430666Y-106159814D01*
X163597203Y-106214999D01*
X163699991Y-106225500D01*
X164700008Y-106225499D01*
X164700016Y-106225498D01*
X164700019Y-106225498D01*
X164700023Y-106225497D01*
X164700323Y-106225478D01*
X164701351Y-106225361D01*
X164787803Y-106216530D01*
X164794092Y-106216050D01*
X164800375Y-106215730D01*
X164806682Y-106215569D01*
X167024349Y-106215569D01*
X167059284Y-106220592D01*
X167084527Y-106228004D01*
X167137273Y-106259300D01*
X167272490Y-106394517D01*
X167463567Y-106533343D01*
X167562991Y-106584002D01*
X167674003Y-106640566D01*
X167674876Y-106641011D01*
X167678630Y-106642070D01*
X167726335Y-106657569D01*
X167794410Y-106679688D01*
X167794411Y-106679689D01*
X167794412Y-106679689D01*
X167898631Y-106713553D01*
X168131903Y-106750500D01*
X168131908Y-106750500D01*
X168368096Y-106750500D01*
X168368097Y-106750500D01*
X168601368Y-106713553D01*
X168825992Y-106640568D01*
X169036433Y-106533343D01*
X169227510Y-106394517D01*
X169394517Y-106227510D01*
X169533343Y-106036433D01*
X169640568Y-105825992D01*
X169713553Y-105601368D01*
X169723838Y-105536433D01*
X169750500Y-105368097D01*
X169750500Y-105131902D01*
X169713553Y-104898631D01*
X169640566Y-104674003D01*
X169584002Y-104562991D01*
X169533343Y-104463567D01*
X169394517Y-104272490D01*
X169227510Y-104105483D01*
X169036433Y-103966657D01*
X169030355Y-103963560D01*
X168825992Y-103859431D01*
X168737039Y-103830528D01*
X168737038Y-103830528D01*
X168737035Y-103830526D01*
X168737033Y-103830526D01*
X168705365Y-103814956D01*
X168693909Y-103807123D01*
X168649679Y-103753035D01*
X168648956Y-103746735D01*
X168641711Y-103683628D01*
X168643248Y-103674748D01*
X168656388Y-103640499D01*
X168655101Y-103639879D01*
X168658122Y-103633605D01*
X168715841Y-103468657D01*
X168730500Y-103338552D01*
X168730500Y-102001448D01*
X168715841Y-101871343D01*
X168658122Y-101706394D01*
X168565147Y-101558424D01*
X168457805Y-101451082D01*
X168436658Y-101422831D01*
X168424051Y-101399742D01*
X168408884Y-101340317D01*
X168408884Y-99701673D01*
X168413904Y-99666748D01*
X168417528Y-99654405D01*
X168417530Y-99654394D01*
X168418035Y-99652675D01*
X168455805Y-99593893D01*
X168519358Y-99564864D01*
X168588518Y-99574802D01*
X168626185Y-99601433D01*
X168657798Y-99634149D01*
X168748016Y-99708136D01*
X168878893Y-99767907D01*
X168945932Y-99787592D01*
X168945936Y-99787593D01*
X169088352Y-99808069D01*
X169088355Y-99808069D01*
X176198638Y-99808069D01*
X176198640Y-99808069D01*
X176208786Y-99807524D01*
X176252678Y-99805172D01*
X176252686Y-99805171D01*
X176252688Y-99805171D01*
X176252689Y-99805171D01*
X176259682Y-99804418D01*
X176279036Y-99802338D01*
X176279046Y-99802336D01*
X176279049Y-99802336D01*
X176288648Y-99800780D01*
X176332448Y-99793683D01*
X176467257Y-99743401D01*
X176528580Y-99709916D01*
X176643762Y-99623692D01*
X177074300Y-99193153D01*
X177109786Y-99153731D01*
X177126135Y-99133531D01*
X177157295Y-99090608D01*
X177217621Y-98959985D01*
X177237590Y-98893030D01*
X177237590Y-98893028D01*
X177258670Y-98750700D01*
X177286894Y-92097715D01*
X177286410Y-92073331D01*
X177285884Y-92061387D01*
X177285784Y-92059927D01*
X177284225Y-92037078D01*
X177250723Y-91897160D01*
X177250722Y-91897155D01*
X177224948Y-91832213D01*
X177153381Y-91707395D01*
X177153378Y-91707392D01*
X177153377Y-91707389D01*
X176435528Y-90788932D01*
X176435514Y-90788916D01*
X176377821Y-90726670D01*
X176377817Y-90726666D01*
X176347167Y-90698720D01*
X176347164Y-90698717D01*
X176347160Y-90698714D01*
X176279872Y-90647002D01*
X176207579Y-90613986D01*
X176148998Y-90587232D01*
X176081953Y-90567545D01*
X176034480Y-90560719D01*
X175939536Y-90547069D01*
X175939534Y-90547069D01*
X172010746Y-90547069D01*
X171943707Y-90527384D01*
X171923065Y-90510750D01*
X170893776Y-89481461D01*
X170893761Y-89481446D01*
X170893737Y-89481424D01*
X170853519Y-89445297D01*
X170853507Y-89445287D01*
X170832856Y-89428645D01*
X170788974Y-89397002D01*
X170781601Y-89393635D01*
X170767714Y-89387293D01*
X170714913Y-89341538D01*
X170695229Y-89274499D01*
X170714914Y-89207460D01*
X170767719Y-89161705D01*
X170819229Y-89150500D01*
X171434755Y-89150500D01*
X171469690Y-89155523D01*
X171484688Y-89159927D01*
X171543456Y-89197691D01*
X171547871Y-89202785D01*
X171576480Y-89263612D01*
X171610270Y-89466355D01*
X171623173Y-89543769D01*
X171653156Y-89639891D01*
X171653157Y-89639893D01*
X171689940Y-89695748D01*
X171689941Y-89695748D01*
X171732316Y-89760092D01*
X171842132Y-89853120D01*
X171915387Y-89885589D01*
X171973707Y-89911440D01*
X172007875Y-89916157D01*
X172007874Y-89916158D01*
X172007878Y-89916157D01*
X172073447Y-89925213D01*
X172073452Y-89925213D01*
X172073456Y-89925214D01*
X172073460Y-89925214D01*
X173248011Y-89925215D01*
X173347762Y-89911440D01*
X173479338Y-89853120D01*
X173589153Y-89760092D01*
X173616178Y-89719057D01*
X173668308Y-89639900D01*
X173668307Y-89639900D01*
X173668312Y-89639894D01*
X173668313Y-89639889D01*
X173671179Y-89635539D01*
X173671179Y-89635538D01*
X173679677Y-89622634D01*
X173678587Y-89617483D01*
X173683844Y-89590097D01*
X173698297Y-89543765D01*
X173743643Y-89271686D01*
X173754341Y-89238060D01*
X173757922Y-89230663D01*
X173761151Y-89223991D01*
X173808074Y-89172226D01*
X173813825Y-89168709D01*
X173878513Y-89150500D01*
X177261441Y-89150500D01*
X177296373Y-89155521D01*
X177324598Y-89163809D01*
X177366976Y-89185840D01*
X177371936Y-89189795D01*
X177373727Y-89191224D01*
X177399453Y-89211739D01*
X177500752Y-89292523D01*
X177738555Y-89441945D01*
X177738557Y-89441946D01*
X177789243Y-89466355D01*
X177991592Y-89563801D01*
X178112053Y-89605952D01*
X178196607Y-89635539D01*
X178256666Y-89656555D01*
X178256670Y-89656556D01*
X178256682Y-89656560D01*
X178530491Y-89719055D01*
X178530495Y-89719055D01*
X178530498Y-89719055D01*
X178530505Y-89719057D01*
X178537408Y-89719834D01*
X178537409Y-89719835D01*
X178564726Y-89722912D01*
X178716547Y-89740018D01*
X178806560Y-89750160D01*
X178809034Y-89750500D01*
X179090428Y-89750500D01*
X179100222Y-89750500D01*
X179107820Y-89748539D01*
X179233055Y-89734429D01*
X179368788Y-89719136D01*
X179369429Y-89719068D01*
X179369504Y-89719055D01*
X179369509Y-89719055D01*
X179643318Y-89656560D01*
X179908408Y-89563801D01*
X180161445Y-89441945D01*
X180399248Y-89292523D01*
X180618825Y-89117416D01*
X180817416Y-88918825D01*
X180992523Y-88699248D01*
X181040043Y-88623618D01*
X181062879Y-88596716D01*
X181077903Y-88583427D01*
X181133088Y-88555276D01*
X181138288Y-88554117D01*
X181141205Y-88553468D01*
X181168171Y-88550500D01*
X186307670Y-88550500D01*
X186342606Y-88555523D01*
X186357604Y-88559927D01*
X186372594Y-88569557D01*
X186389675Y-88574567D01*
X186416355Y-88597672D01*
X186417542Y-88599041D01*
X186445018Y-88653902D01*
X186446663Y-88661460D01*
X186449500Y-88687831D01*
X186449500Y-89357670D01*
X186444475Y-89392614D01*
X186440070Y-89407612D01*
X186430439Y-89422601D01*
X186425432Y-89439675D01*
X186402327Y-89466355D01*
X186400958Y-89467542D01*
X186346097Y-89495018D01*
X186338539Y-89496663D01*
X186312168Y-89499500D01*
X184409623Y-89499500D01*
X184407692Y-89499659D01*
X184406045Y-89499885D01*
X184350016Y-89505908D01*
X184248517Y-89543765D01*
X184215166Y-89556204D01*
X184215165Y-89556205D01*
X184099956Y-89642450D01*
X184099950Y-89642456D01*
X184013705Y-89757665D01*
X184013703Y-89757668D01*
X183963405Y-89892523D01*
X183963198Y-89893402D01*
X183957084Y-89912332D01*
X183949943Y-89929571D01*
X183906101Y-89983973D01*
X183906092Y-89983980D01*
X183897823Y-89989720D01*
X183851306Y-90009473D01*
X183708181Y-90037943D01*
X183708175Y-90037944D01*
X183708154Y-90037951D01*
X183526093Y-90113362D01*
X183526083Y-90113367D01*
X183362212Y-90222864D01*
X183362209Y-90222866D01*
X182347003Y-91238073D01*
X182318752Y-91259222D01*
X182295664Y-91271830D01*
X182236234Y-91287000D01*
X182200000Y-91287000D01*
X182199982Y-91287000D01*
X182199979Y-91287001D01*
X182178517Y-91289193D01*
X182097203Y-91297500D01*
X182097201Y-91297500D01*
X182097197Y-91297501D01*
X182097193Y-91297501D01*
X182097032Y-91297556D01*
X181930667Y-91352685D01*
X181930665Y-91352686D01*
X181930663Y-91352687D01*
X181831115Y-91414088D01*
X181781340Y-91444790D01*
X181657290Y-91568840D01*
X181626588Y-91618615D01*
X181571833Y-91707389D01*
X181565185Y-91718167D01*
X181565180Y-91718180D01*
X181537349Y-91802168D01*
X181537349Y-91802171D01*
X181520299Y-91853623D01*
X181511852Y-91866568D01*
X181510364Y-91881135D01*
X181509542Y-91887377D01*
X181509359Y-91890976D01*
X181499500Y-91987473D01*
X181499500Y-91987483D01*
X181499500Y-92612501D01*
X181499500Y-92612509D01*
X181499503Y-92612545D01*
X181510000Y-92715296D01*
X181510003Y-92715304D01*
X181510070Y-92715507D01*
X181561043Y-92869331D01*
X181561044Y-92869334D01*
X181565184Y-92881831D01*
X181565186Y-92881834D01*
X181657288Y-93031156D01*
X181781344Y-93155212D01*
X181930666Y-93247314D01*
X182097203Y-93302499D01*
X182199991Y-93313000D01*
X183200008Y-93312999D01*
X183200016Y-93312998D01*
X183200019Y-93312998D01*
X183200027Y-93312997D01*
X183200317Y-93312979D01*
X183201333Y-93312863D01*
X183246459Y-93308253D01*
X183256303Y-93307248D01*
X183256303Y-93307247D01*
X183302797Y-93302499D01*
X183469334Y-93247314D01*
X183618656Y-93155212D01*
X183742712Y-93031156D01*
X183834814Y-92881834D01*
X183889999Y-92715297D01*
X183900500Y-92612509D01*
X183900499Y-92583607D01*
X183904763Y-92551366D01*
X183905114Y-92550060D01*
X183909144Y-92536336D01*
X183910549Y-92529873D01*
X183911331Y-92526973D01*
X183928040Y-92499634D01*
X183943381Y-92471537D01*
X183987023Y-92427895D01*
X184015275Y-92406746D01*
X184028996Y-92399255D01*
X184097259Y-92384405D01*
X184103583Y-92384857D01*
X184169047Y-92409269D01*
X184197169Y-92430321D01*
X184208076Y-92438486D01*
X184208078Y-92438488D01*
X184215273Y-92443874D01*
X184217217Y-92444560D01*
X184289541Y-92471535D01*
X184312127Y-92479959D01*
X184339370Y-92494835D01*
X184343101Y-92496872D01*
X184355616Y-92506240D01*
X184397489Y-92562172D01*
X184397490Y-92562174D01*
X184401681Y-92573410D01*
X184409500Y-92616745D01*
X184409500Y-96476674D01*
X184404237Y-96494594D01*
X184447945Y-96714322D01*
X184447946Y-96714326D01*
X184447947Y-96714329D01*
X184447950Y-96714339D01*
X184447953Y-96714347D01*
X184447958Y-96714361D01*
X184523360Y-96896400D01*
X184523365Y-96896409D01*
X184523375Y-96896426D01*
X184632858Y-97060279D01*
X184725095Y-97152516D01*
X184737623Y-97175459D01*
X184772237Y-97201420D01*
X184785518Y-97212939D01*
X184789654Y-97217075D01*
X184789659Y-97217079D01*
X185225574Y-97652995D01*
X185246723Y-97681246D01*
X185259331Y-97704335D01*
X185274500Y-97763764D01*
X185274500Y-97799992D01*
X185274501Y-97800019D01*
X185285000Y-97902796D01*
X185285003Y-97902804D01*
X185285001Y-97902804D01*
X185285025Y-97902916D01*
X185285067Y-97903000D01*
X185299716Y-97947204D01*
X185340186Y-98069334D01*
X185432288Y-98218656D01*
X185556344Y-98342712D01*
X185705666Y-98434814D01*
X185872203Y-98489999D01*
X185974991Y-98500500D01*
X186600008Y-98500499D01*
X186600016Y-98500498D01*
X186600019Y-98500498D01*
X186600027Y-98500497D01*
X186600317Y-98500479D01*
X186601333Y-98500363D01*
X186646459Y-98495753D01*
X186656303Y-98494748D01*
X186656303Y-98494747D01*
X186702797Y-98489999D01*
X186869334Y-98434814D01*
X187018656Y-98342712D01*
X187090001Y-98271366D01*
X187151320Y-98237884D01*
X187221012Y-98242868D01*
X187264077Y-98270104D01*
X187758849Y-98750700D01*
X188146963Y-99127693D01*
X188158016Y-99147255D01*
X188172885Y-99164101D01*
X188174873Y-99177087D01*
X188181335Y-99188523D01*
X188180058Y-99210953D01*
X188183459Y-99233166D01*
X188178110Y-99245166D01*
X188177364Y-99258280D01*
X188164162Y-99276459D01*
X188155015Y-99296984D01*
X188144028Y-99304187D01*
X188136310Y-99314816D01*
X188115374Y-99322972D01*
X188096583Y-99335293D01*
X188075858Y-99338369D01*
X188071208Y-99340181D01*
X188061696Y-99340634D01*
X188061147Y-99340639D01*
X187957330Y-99340639D01*
X187957324Y-99340640D01*
X187947714Y-99341672D01*
X187947703Y-99341673D01*
X187897717Y-99347047D01*
X187762867Y-99397343D01*
X187762866Y-99397344D01*
X187647657Y-99483589D01*
X187647651Y-99483595D01*
X187561406Y-99598804D01*
X187561404Y-99598807D01*
X187511108Y-99733655D01*
X187504701Y-99793258D01*
X187504701Y-101268809D01*
X187503626Y-101276287D01*
X187499678Y-101303743D01*
X187495274Y-101318742D01*
X187457500Y-101377520D01*
X187457490Y-101377529D01*
X187456121Y-101378715D01*
X187401299Y-101406157D01*
X187393741Y-101407802D01*
X187367370Y-101410639D01*
X186966635Y-101410639D01*
X186836570Y-101425293D01*
X186836547Y-101425296D01*
X186836543Y-101425297D01*
X186836541Y-101425298D01*
X186671597Y-101483015D01*
X186523623Y-101575992D01*
X186400051Y-101699564D01*
X186307080Y-101847530D01*
X186279364Y-101926735D01*
X186265071Y-101955197D01*
X186264080Y-101956663D01*
X186259855Y-101962554D01*
X186259342Y-101963675D01*
X186255978Y-101968656D01*
X186232248Y-101988282D01*
X186215255Y-102004430D01*
X186216076Y-102005708D01*
X186214171Y-102006932D01*
X186211930Y-102007589D01*
X186209873Y-102009545D01*
X186205690Y-102011693D01*
X186205168Y-102010678D01*
X186202137Y-102013186D01*
X186186423Y-102015077D01*
X186147142Y-102026610D01*
X186072720Y-102026610D01*
X186072719Y-102026609D01*
X186072719Y-102026610D01*
X186037784Y-102021587D01*
X186012542Y-102014175D01*
X185959797Y-101982879D01*
X185353342Y-101376424D01*
X185332190Y-101348168D01*
X185319583Y-101325079D01*
X185304416Y-101265654D01*
X185304416Y-101044150D01*
X185304416Y-101044140D01*
X185304415Y-101044123D01*
X185293916Y-100941345D01*
X185293915Y-100941342D01*
X185270890Y-100871858D01*
X185238731Y-100774808D01*
X185146629Y-100625486D01*
X185022573Y-100501430D01*
X184873251Y-100409328D01*
X184715182Y-100356949D01*
X184712362Y-100355783D01*
X184706709Y-100354141D01*
X184603936Y-100343642D01*
X184603927Y-100343642D01*
X183978915Y-100343642D01*
X183978897Y-100343643D01*
X183978889Y-100343643D01*
X183978870Y-100343645D01*
X183876114Y-100354142D01*
X183876110Y-100354143D01*
X183875949Y-100354198D01*
X183709584Y-100409327D01*
X183709582Y-100409328D01*
X183709580Y-100409329D01*
X183634919Y-100455380D01*
X183560255Y-100501433D01*
X183479202Y-100582487D01*
X183479199Y-100582488D01*
X183479199Y-100582490D01*
X183450944Y-100603640D01*
X183437226Y-100611130D01*
X183368968Y-100625981D01*
X183368953Y-100625979D01*
X183368953Y-100625980D01*
X183368952Y-100625979D01*
X183367162Y-100625852D01*
X183308961Y-100606484D01*
X183302446Y-100602297D01*
X183281810Y-100585667D01*
X183197574Y-100501431D01*
X183197573Y-100501430D01*
X183048251Y-100409328D01*
X182890182Y-100356949D01*
X182887362Y-100355783D01*
X182881709Y-100354141D01*
X182778936Y-100343642D01*
X182778927Y-100343642D01*
X182153915Y-100343642D01*
X182153897Y-100343643D01*
X182153889Y-100343643D01*
X182153870Y-100343645D01*
X182051114Y-100354142D01*
X182051110Y-100354143D01*
X182050949Y-100354198D01*
X181884584Y-100409327D01*
X181884582Y-100409328D01*
X181884580Y-100409329D01*
X181785032Y-100470730D01*
X181735257Y-100501432D01*
X181611207Y-100625482D01*
X181519104Y-100774804D01*
X181519069Y-100774912D01*
X181474967Y-100907999D01*
X181474961Y-100908017D01*
X181463918Y-100941345D01*
X181463918Y-100941346D01*
X181463917Y-100941346D01*
X181463147Y-100948877D01*
X181463146Y-100948883D01*
X181453417Y-101044115D01*
X181453417Y-101044123D01*
X181453417Y-101044125D01*
X181453417Y-102044143D01*
X181453418Y-102044161D01*
X181453420Y-102044182D01*
X181453421Y-102044193D01*
X181459355Y-102102283D01*
X181459418Y-102102918D01*
X181464341Y-102153701D01*
X181464256Y-102153710D01*
X181465283Y-102163412D01*
X181465338Y-102163979D01*
X181465296Y-102164194D01*
X181465917Y-102175945D01*
X181465917Y-103592864D01*
X181460893Y-103627803D01*
X181453481Y-103653043D01*
X181422186Y-103705785D01*
X181350991Y-103776979D01*
X181346857Y-103784361D01*
X181309603Y-103835637D01*
X181259103Y-103905144D01*
X181216657Y-103963566D01*
X181216655Y-103963568D01*
X181216653Y-103963573D01*
X181179006Y-104037459D01*
X181109433Y-104174003D01*
X181036446Y-104398631D01*
X181036445Y-104398634D01*
X181036445Y-104398636D01*
X180999500Y-104631896D01*
X180999500Y-104868102D01*
X181036445Y-105101362D01*
X181036446Y-105101368D01*
X181109433Y-105325996D01*
X181210832Y-105525001D01*
X181216657Y-105536433D01*
X181355483Y-105727510D01*
X181522490Y-105894517D01*
X181713567Y-106033343D01*
X181781016Y-106067710D01*
X181781015Y-106067710D01*
X181847365Y-106101517D01*
X181924003Y-106140566D01*
X181924004Y-106140566D01*
X181924875Y-106141010D01*
X181928628Y-106142069D01*
X181983235Y-106159812D01*
X182148631Y-106213553D01*
X182381903Y-106250500D01*
X182381908Y-106250500D01*
X182618096Y-106250500D01*
X182618097Y-106250500D01*
X182851368Y-106213553D01*
X183075992Y-106140568D01*
X183286433Y-106033343D01*
X183477510Y-105894517D01*
X183644517Y-105727510D01*
X183783343Y-105536433D01*
X183890568Y-105325992D01*
X183963553Y-105101368D01*
X183995448Y-104899991D01*
X183995450Y-104899983D01*
X184000500Y-104868096D01*
X184000500Y-104631902D01*
X183976653Y-104481342D01*
X183963553Y-104398631D01*
X183898032Y-104196980D01*
X183890568Y-104174008D01*
X183890566Y-104174005D01*
X183890566Y-104174003D01*
X183888328Y-104169611D01*
X183888018Y-104168816D01*
X183887283Y-104167560D01*
X183821222Y-104037909D01*
X183783343Y-103963567D01*
X183644517Y-103772490D01*
X183515838Y-103643811D01*
X183494691Y-103615560D01*
X183482084Y-103592471D01*
X183466917Y-103533046D01*
X183466917Y-102769282D01*
X183471939Y-102734349D01*
X183472000Y-102734141D01*
X183475850Y-102721030D01*
X183513623Y-102662253D01*
X183577175Y-102633228D01*
X183577877Y-102633127D01*
X183637743Y-102639291D01*
X183644028Y-102641569D01*
X183666863Y-102652606D01*
X183709583Y-102678956D01*
X183876120Y-102734141D01*
X183978908Y-102744642D01*
X184176080Y-102744641D01*
X184194026Y-102747221D01*
X184211011Y-102749662D01*
X184236252Y-102757074D01*
X184289000Y-102788370D01*
X184960839Y-103460209D01*
X185025729Y-103525099D01*
X185082785Y-103582155D01*
X185226172Y-103677964D01*
X185226185Y-103677971D01*
X185226187Y-103677971D01*
X185226191Y-103677974D01*
X185297281Y-103707420D01*
X185336361Y-103723607D01*
X185385510Y-103743965D01*
X185528900Y-103772487D01*
X185550239Y-103776731D01*
X185551993Y-103777178D01*
X185554652Y-103777610D01*
X185554653Y-103777610D01*
X185554655Y-103777610D01*
X186222516Y-103777610D01*
X186257448Y-103782632D01*
X186263337Y-103784361D01*
X186276693Y-103788282D01*
X186329885Y-103820025D01*
X186335740Y-103825940D01*
X186352603Y-103847198D01*
X186367920Y-103871576D01*
X186367921Y-103871576D01*
X186400054Y-103922715D01*
X186523625Y-104046286D01*
X186671595Y-104139261D01*
X186731314Y-104160158D01*
X186829121Y-104194383D01*
X186829122Y-104194383D01*
X186836543Y-104196980D01*
X186836552Y-104196981D01*
X186877949Y-104201644D01*
X186877950Y-104201645D01*
X186893482Y-104203394D01*
X186963641Y-104211299D01*
X186966110Y-104211639D01*
X187603756Y-104211639D01*
X187613549Y-104211639D01*
X187621145Y-104209678D01*
X187733858Y-104196980D01*
X187898807Y-104139261D01*
X188046777Y-104046286D01*
X188170348Y-103922715D01*
X188263323Y-103774745D01*
X188321042Y-103609796D01*
X188335701Y-103479691D01*
X188335701Y-102283462D01*
X188337570Y-102262013D01*
X188339207Y-102252692D01*
X188340606Y-102249862D01*
X188340723Y-102248531D01*
X188342006Y-102244161D01*
X188342977Y-102244446D01*
X188347080Y-102228373D01*
X188346388Y-102228115D01*
X188347449Y-102225269D01*
X188348092Y-102224409D01*
X188348550Y-102222616D01*
X188349788Y-102219906D01*
X188351035Y-102220476D01*
X188359978Y-102208526D01*
X188362858Y-102198741D01*
X188368177Y-102194136D01*
X188370191Y-102190068D01*
X188376721Y-102186152D01*
X188385721Y-102174125D01*
X188384824Y-102173090D01*
X188385880Y-102172174D01*
X188387859Y-102171268D01*
X188389311Y-102169329D01*
X188389348Y-102169302D01*
X188391787Y-102167477D01*
X188392899Y-102168963D01*
X188402155Y-102164730D01*
X188415689Y-102153018D01*
X188449294Y-102143172D01*
X188449417Y-102143116D01*
X188451001Y-102142888D01*
X188468571Y-102141638D01*
X188527352Y-102141638D01*
X188562284Y-102146659D01*
X188587528Y-102154072D01*
X188640274Y-102185368D01*
X189235867Y-102780960D01*
X189907518Y-103452611D01*
X189939965Y-103485059D01*
X189939973Y-103485065D01*
X190062865Y-103567179D01*
X190062870Y-103567182D01*
X190062882Y-103567190D01*
X190062895Y-103567197D01*
X190093373Y-103579821D01*
X190099008Y-103582155D01*
X190199472Y-103623769D01*
X190306128Y-103644984D01*
X190339554Y-103651632D01*
X190339558Y-103651635D01*
X190339559Y-103651634D01*
X190340529Y-103651826D01*
X190344465Y-103652610D01*
X190344466Y-103652610D01*
X190344467Y-103652610D01*
X190492302Y-103652610D01*
X191841944Y-103652610D01*
X191876876Y-103657632D01*
X191883921Y-103659700D01*
X191892530Y-103662228D01*
X191950481Y-103699055D01*
X191964382Y-103714772D01*
X191976490Y-103730947D01*
X192042272Y-103835638D01*
X192064853Y-103871576D01*
X192188424Y-103995147D01*
X192336394Y-104088122D01*
X192386008Y-104105483D01*
X192493920Y-104143244D01*
X192493921Y-104143244D01*
X192501342Y-104145841D01*
X192501351Y-104145842D01*
X192542748Y-104150505D01*
X192542749Y-104150506D01*
X192558281Y-104152255D01*
X192628440Y-104160160D01*
X192630909Y-104160500D01*
X193268555Y-104160500D01*
X193278348Y-104160500D01*
X193285944Y-104158539D01*
X193398657Y-104145841D01*
X193563606Y-104088122D01*
X193711576Y-103995147D01*
X193835147Y-103871576D01*
X193928122Y-103723606D01*
X193985841Y-103558657D01*
X194000500Y-103428552D01*
X194000500Y-102232328D01*
X194005523Y-102197392D01*
X194009927Y-102182394D01*
X194047672Y-102123643D01*
X194047700Y-102123618D01*
X194047699Y-102123618D01*
X194049041Y-102122455D01*
X194103920Y-102094976D01*
X194111479Y-102093332D01*
X194137832Y-102090499D01*
X194817871Y-102090499D01*
X194817872Y-102090499D01*
X194877483Y-102084091D01*
X195012331Y-102033796D01*
X195127546Y-101947546D01*
X195213796Y-101832331D01*
X195264091Y-101697483D01*
X195270500Y-101637873D01*
X195270499Y-101446832D01*
X195271272Y-101441460D01*
X195275521Y-101411900D01*
X195282932Y-101386659D01*
X195314228Y-101333914D01*
X195329400Y-101318742D01*
X195442545Y-101205599D01*
X195538358Y-101062205D01*
X195604355Y-100902874D01*
X195638000Y-100733729D01*
X195638000Y-100561271D01*
X195638000Y-99738171D01*
X195642704Y-99704342D01*
X195651755Y-99672424D01*
X195665514Y-99641154D01*
X195709810Y-99569341D01*
X195709810Y-99569339D01*
X195709814Y-99569334D01*
X195764999Y-99402797D01*
X195775500Y-99300009D01*
X195775499Y-98299992D01*
X195771136Y-98257285D01*
X195764999Y-98197203D01*
X195764998Y-98197200D01*
X195738287Y-98116593D01*
X195709814Y-98030666D01*
X195617712Y-97881344D01*
X195493656Y-97757288D01*
X195354694Y-97671576D01*
X195344336Y-97665187D01*
X195344331Y-97665185D01*
X195342862Y-97664698D01*
X195334293Y-97661858D01*
X195334292Y-97661858D01*
X195186265Y-97612807D01*
X195183445Y-97611641D01*
X195177792Y-97609999D01*
X195075019Y-97599500D01*
X195075010Y-97599500D01*
X194449998Y-97599500D01*
X194449980Y-97599501D01*
X194449972Y-97599501D01*
X194449953Y-97599503D01*
X194347197Y-97610000D01*
X194347193Y-97610001D01*
X194347032Y-97610056D01*
X194180668Y-97665185D01*
X194180662Y-97665187D01*
X194091915Y-97719926D01*
X194079150Y-97723418D01*
X194059544Y-97733990D01*
X194049504Y-97736737D01*
X194031679Y-97736406D01*
X194024522Y-97738365D01*
X194010148Y-97737260D01*
X194001584Y-97736098D01*
X194001002Y-97735837D01*
X193979647Y-97735442D01*
X193938428Y-97707859D01*
X193937800Y-97707579D01*
X193937637Y-97707330D01*
X193921579Y-97696585D01*
X193903696Y-97655427D01*
X193899560Y-97649102D01*
X193899534Y-97645847D01*
X193893736Y-97632503D01*
X193899071Y-97587641D01*
X193899005Y-97579235D01*
X193900319Y-97577153D01*
X193900773Y-97573334D01*
X193902257Y-97569406D01*
X193913262Y-97547253D01*
X193928122Y-97523606D01*
X193985841Y-97358657D01*
X194000500Y-97228552D01*
X194000500Y-95891448D01*
X193989498Y-95793797D01*
X193985842Y-95761351D01*
X193985841Y-95761349D01*
X193985841Y-95761343D01*
X193985838Y-95761336D01*
X193985798Y-95760975D01*
X193984972Y-95758415D01*
X193984567Y-95757050D01*
X193983243Y-95753918D01*
X193928122Y-95596395D01*
X193928122Y-95596394D01*
X193835147Y-95448424D01*
X193711576Y-95324853D01*
X193581997Y-95243433D01*
X193581992Y-95243430D01*
X193563606Y-95231878D01*
X193563605Y-95231877D01*
X193563604Y-95231877D01*
X193398658Y-95174159D01*
X193398656Y-95174158D01*
X193398652Y-95174157D01*
X193398629Y-95174154D01*
X193268564Y-95159500D01*
X193268558Y-95159500D01*
X193268552Y-95159500D01*
X192894857Y-95159500D01*
X192827818Y-95139815D01*
X192782063Y-95087011D01*
X192770857Y-95035500D01*
X192770857Y-94158465D01*
X192770857Y-94158461D01*
X192759325Y-94051103D01*
X192748139Y-93999635D01*
X192736833Y-93965634D01*
X192736453Y-93963335D01*
X192735777Y-93962300D01*
X192731674Y-93934479D01*
X192730503Y-93927402D01*
X192730500Y-93926985D01*
X192730500Y-93821445D01*
X192730499Y-93821441D01*
X192728329Y-93802185D01*
X192717054Y-93702105D01*
X192715842Y-93691351D01*
X192715841Y-93691349D01*
X192715841Y-93691343D01*
X192715840Y-93691342D01*
X192715800Y-93690981D01*
X192714971Y-93688413D01*
X192714567Y-93687050D01*
X192713245Y-93683923D01*
X192690938Y-93620176D01*
X192658122Y-93526394D01*
X192565147Y-93378424D01*
X192441576Y-93254853D01*
X192429578Y-93247314D01*
X192311997Y-93173433D01*
X192311992Y-93173430D01*
X192293606Y-93161878D01*
X192293605Y-93161877D01*
X192293604Y-93161877D01*
X192238834Y-93142712D01*
X192128658Y-93104159D01*
X192128656Y-93104158D01*
X192128652Y-93104157D01*
X192128629Y-93104154D01*
X191998564Y-93089500D01*
X191998558Y-93089500D01*
X191998552Y-93089500D01*
X191361448Y-93089500D01*
X191361441Y-93089500D01*
X191361434Y-93089500D01*
X191231369Y-93104154D01*
X191231346Y-93104157D01*
X191231342Y-93104158D01*
X191231340Y-93104159D01*
X191066396Y-93161876D01*
X190918422Y-93254853D01*
X190794851Y-93378424D01*
X190737086Y-93470357D01*
X190684751Y-93516647D01*
X190632046Y-93528384D01*
X188429625Y-93527543D01*
X188429598Y-93527544D01*
X188386442Y-93529683D01*
X188379248Y-93530040D01*
X188354674Y-93532491D01*
X188304851Y-93539983D01*
X188169297Y-93588227D01*
X188108629Y-93620176D01*
X188107635Y-93620685D01*
X188107476Y-93620782D01*
X187991008Y-93705262D01*
X187770541Y-93919187D01*
X187264806Y-94409914D01*
X187250836Y-94423469D01*
X187250832Y-94423473D01*
X187211628Y-94466142D01*
X187193665Y-94488095D01*
X187193656Y-94488106D01*
X187159605Y-94534962D01*
X187099850Y-94665839D01*
X187099848Y-94665845D01*
X187080170Y-94732884D01*
X187078910Y-94741648D01*
X187078910Y-94741662D01*
X187059709Y-94875295D01*
X187059708Y-94875303D01*
X187059821Y-96060493D01*
X187059669Y-96061010D01*
X187059817Y-96061530D01*
X187049835Y-96094513D01*
X187040143Y-96127535D01*
X187039735Y-96127888D01*
X187039579Y-96128405D01*
X187013358Y-96150747D01*
X186987343Y-96173294D01*
X186986808Y-96173370D01*
X186986398Y-96173721D01*
X186952283Y-96178338D01*
X186918186Y-96183245D01*
X186917514Y-96183044D01*
X186917160Y-96183093D01*
X186914933Y-96182275D01*
X186883379Y-96172870D01*
X186876857Y-96169826D01*
X186869336Y-96165187D01*
X186869331Y-96165185D01*
X186867862Y-96164698D01*
X186711265Y-96112807D01*
X186708439Y-96111639D01*
X186702796Y-96109999D01*
X186600025Y-96099500D01*
X186600016Y-96099500D01*
X186600009Y-96099500D01*
X186571112Y-96099500D01*
X186538823Y-96095222D01*
X186537492Y-96094863D01*
X186523843Y-96090855D01*
X186517577Y-96089491D01*
X186514626Y-96088696D01*
X186487324Y-96071993D01*
X186459227Y-96056649D01*
X186456680Y-96053246D01*
X186455025Y-96052234D01*
X186453384Y-96048843D01*
X186438079Y-96028394D01*
X186425664Y-96005654D01*
X186410500Y-95946234D01*
X186410500Y-92620201D01*
X186415523Y-92585265D01*
X186419927Y-92570267D01*
X186429564Y-92555270D01*
X186434584Y-92538170D01*
X186457695Y-92511495D01*
X186466764Y-92503636D01*
X186504631Y-92481167D01*
X186598329Y-92446220D01*
X186603467Y-92444626D01*
X186609875Y-92441914D01*
X186640956Y-92430321D01*
X186666145Y-92397895D01*
X186720046Y-92357546D01*
X186806296Y-92242331D01*
X186806298Y-92242326D01*
X186807168Y-92239992D01*
X186824080Y-92209017D01*
X186832399Y-92197903D01*
X186888331Y-92156029D01*
X186958022Y-92151042D01*
X186958026Y-92151042D01*
X186966046Y-92152787D01*
X187012566Y-92173634D01*
X187080902Y-92223283D01*
X187163567Y-92283343D01*
X187261407Y-92333195D01*
X187374003Y-92390566D01*
X187374876Y-92391011D01*
X187378630Y-92392070D01*
X187396555Y-92397894D01*
X187494410Y-92429688D01*
X187494411Y-92429689D01*
X187494412Y-92429689D01*
X187598631Y-92463553D01*
X187831903Y-92500500D01*
X187831908Y-92500500D01*
X188068096Y-92500500D01*
X188068097Y-92500500D01*
X188301368Y-92463553D01*
X188525992Y-92390568D01*
X188736433Y-92283343D01*
X188927510Y-92144517D01*
X189094517Y-91977510D01*
X189233343Y-91786433D01*
X189340568Y-91575992D01*
X189413553Y-91351368D01*
X189423378Y-91289336D01*
X189450500Y-91118097D01*
X189450500Y-88046859D01*
X189455523Y-88011923D01*
X189459789Y-87997397D01*
X189459927Y-87996924D01*
X189461514Y-87994455D01*
X189497692Y-87938156D01*
X189498404Y-87937539D01*
X189502787Y-87933740D01*
X189563609Y-87905135D01*
X189969050Y-87837563D01*
X190065180Y-87807577D01*
X190185378Y-87728419D01*
X190278406Y-87618603D01*
X190336726Y-87487027D01*
X190343016Y-87441470D01*
X190350499Y-87387287D01*
X190350500Y-87387274D01*
X190350501Y-86212724D01*
X190336726Y-86112973D01*
X190278406Y-85981397D01*
X190278404Y-85981395D01*
X190278404Y-85981394D01*
X190185380Y-85871584D01*
X190185372Y-85871577D01*
X190185371Y-85871576D01*
X190065181Y-85792422D01*
X189969056Y-85762439D01*
X189969051Y-85762438D01*
X188881475Y-85581175D01*
X186374791Y-85163393D01*
X186353330Y-85153006D01*
X186255656Y-85144385D01*
X186255643Y-85144385D01*
X186255641Y-85144385D01*
X186112980Y-85163272D01*
X186112972Y-85163273D01*
X186112968Y-85163275D01*
X185981394Y-85221594D01*
X185871582Y-85314620D01*
X185871580Y-85314622D01*
X185871580Y-85314623D01*
X185864711Y-85325053D01*
X185792420Y-85434823D01*
X185792287Y-85435264D01*
X185789395Y-85444719D01*
X185774380Y-85476648D01*
X185765783Y-85489703D01*
X185752170Y-85501235D01*
X185750963Y-85503069D01*
X185748957Y-85503957D01*
X185712478Y-85534864D01*
X185707371Y-85537128D01*
X185703465Y-85538859D01*
X185653210Y-85549500D01*
X180854933Y-85549500D01*
X180854932Y-85549499D01*
X180854932Y-85549500D01*
X180819997Y-85544477D01*
X180794755Y-85537065D01*
X180742010Y-85505769D01*
X180618824Y-85382583D01*
X180599454Y-85367136D01*
X180533603Y-85314622D01*
X180533601Y-85314620D01*
X180416950Y-85221594D01*
X180399248Y-85207477D01*
X180162857Y-85058942D01*
X180161798Y-85058256D01*
X180161440Y-85058052D01*
X179908418Y-84936203D01*
X179908404Y-84936197D01*
X179643353Y-84843450D01*
X179643332Y-84843443D01*
X179643320Y-84843440D01*
X179643317Y-84843439D01*
X179531467Y-84817910D01*
X179369514Y-84780945D01*
X179369479Y-84780939D01*
X179090437Y-84749500D01*
X179090431Y-84749500D01*
X179090425Y-84749500D01*
X178809575Y-84749500D01*
X178809568Y-84749500D01*
X178809561Y-84749500D01*
X178530519Y-84780939D01*
X178530484Y-84780945D01*
X178256678Y-84843440D01*
X178256666Y-84843443D01*
X178256645Y-84843450D01*
X177991594Y-84936197D01*
X177991572Y-84936206D01*
X177738562Y-85058049D01*
X177500754Y-85207475D01*
X177281175Y-85382582D01*
X177082582Y-85581175D01*
X176907475Y-85800754D01*
X176758056Y-86038551D01*
X176758046Y-86038569D01*
X176746169Y-86063231D01*
X176746169Y-86063235D01*
X176726486Y-86092531D01*
X176715551Y-86104643D01*
X176657237Y-86140874D01*
X176653246Y-86142001D01*
X176643250Y-86144826D01*
X176609529Y-86149500D01*
X174428215Y-86149500D01*
X174393276Y-86144476D01*
X174379958Y-86140565D01*
X174364960Y-86130926D01*
X174347857Y-86125904D01*
X174336182Y-86112430D01*
X174321181Y-86102789D01*
X174313774Y-86086569D01*
X174302103Y-86073100D01*
X174292159Y-86039236D01*
X174292063Y-86038569D01*
X174290371Y-86026797D01*
X174290798Y-85988757D01*
X174292027Y-85981387D01*
X174301373Y-85925307D01*
X174315395Y-85841180D01*
X174316350Y-85830364D01*
X174297461Y-85687687D01*
X174239141Y-85556111D01*
X174146113Y-85446295D01*
X174025915Y-85367137D01*
X174025914Y-85367136D01*
X174025913Y-85367136D01*
X174025913Y-85367135D01*
X174018482Y-85364862D01*
X174014645Y-85362680D01*
X174008193Y-85361716D01*
X173888293Y-85325051D01*
X173888285Y-85325049D01*
X173888284Y-85325049D01*
X173888281Y-85325048D01*
X173886114Y-85324781D01*
X173883528Y-85324682D01*
X173877464Y-85324214D01*
X173877459Y-85324214D01*
X171444012Y-85324214D01*
X171443998Y-85324214D01*
X171437514Y-85324714D01*
X171437515Y-85324715D01*
X171433186Y-85325048D01*
X171433184Y-85325048D01*
X171433176Y-85325050D01*
X171295590Y-85367125D01*
X171295571Y-85367131D01*
X171295559Y-85367135D01*
X171295556Y-85367136D01*
X171295555Y-85367136D01*
X171295551Y-85367138D01*
X171287183Y-85372310D01*
X171285013Y-85374079D01*
X171275501Y-85380344D01*
X171272100Y-85382584D01*
X171206799Y-85425588D01*
X171175355Y-85446296D01*
X171175353Y-85446299D01*
X171082330Y-85556106D01*
X171024010Y-85687682D01*
X171024005Y-85687708D01*
X171005120Y-85830355D01*
X171005120Y-85830367D01*
X171006074Y-85841166D01*
X171006077Y-85841193D01*
X171030467Y-85987530D01*
X171030467Y-85987533D01*
X171030468Y-85987535D01*
X171031255Y-86022820D01*
X171029587Y-86036596D01*
X171001987Y-86100783D01*
X170944081Y-86139855D01*
X170937400Y-86141980D01*
X170932105Y-86143664D01*
X170894514Y-86149500D01*
X167731898Y-86149500D01*
X167498636Y-86186445D01*
X167498634Y-86186445D01*
X167498631Y-86186446D01*
X167417757Y-86212724D01*
X167273998Y-86259434D01*
X167063572Y-86366653D01*
X167063569Y-86366654D01*
X167063565Y-86366657D01*
X166872488Y-86505484D01*
X166872486Y-86505486D01*
X166872485Y-86505486D01*
X165305486Y-88072485D01*
X165305479Y-88072494D01*
X165166663Y-88263554D01*
X165166653Y-88263570D01*
X165070658Y-88451974D01*
X165070650Y-88451991D01*
X165069292Y-88454657D01*
X165069291Y-88454659D01*
X165059434Y-88474002D01*
X165059433Y-88474006D01*
X165056028Y-88484483D01*
X165056022Y-88484498D01*
X164986445Y-88698634D01*
X164949500Y-88931896D01*
X164949500Y-89357670D01*
X164949499Y-89357676D01*
X164949500Y-89357679D01*
X164944475Y-89392614D01*
X164940070Y-89407612D01*
X164902327Y-89466355D01*
X164902292Y-89466385D01*
X164902291Y-89466387D01*
X164902289Y-89466387D01*
X164900958Y-89467542D01*
X164846097Y-89495018D01*
X164838539Y-89496663D01*
X164812168Y-89499500D01*
X162909623Y-89499500D01*
X162907692Y-89499659D01*
X162906045Y-89499885D01*
X162850016Y-89505908D01*
X162748517Y-89543765D01*
X162715166Y-89556204D01*
X162715165Y-89556205D01*
X162599956Y-89642450D01*
X162599950Y-89642456D01*
X162513705Y-89757665D01*
X162513701Y-89757671D01*
X162513700Y-89757673D01*
X162463411Y-89892507D01*
X162463411Y-89892509D01*
X162463409Y-89892517D01*
X162460342Y-89921034D01*
X162452064Y-89953467D01*
X162451617Y-89955219D01*
X162445636Y-89969661D01*
X162401798Y-90024068D01*
X162401784Y-90024078D01*
X162397412Y-90027113D01*
X162346593Y-90047645D01*
X162345625Y-90047802D01*
X162345057Y-90047894D01*
X162325168Y-90049500D01*
X161492329Y-90049500D01*
X161492324Y-90049499D01*
X161492322Y-90049500D01*
X161457388Y-90044475D01*
X161442389Y-90040070D01*
X161383643Y-90002327D01*
X161383614Y-90002293D01*
X161383613Y-90002293D01*
X161383612Y-90002291D01*
X161382456Y-90000958D01*
X161354976Y-89946083D01*
X161353331Y-89938521D01*
X161350499Y-89912168D01*
X161350499Y-89500008D01*
X161350499Y-89499998D01*
X161350498Y-89499981D01*
X161339999Y-89397203D01*
X161339998Y-89397200D01*
X161305311Y-89292523D01*
X161292584Y-89254114D01*
X161284816Y-89230670D01*
X161284812Y-89230663D01*
X161192712Y-89081344D01*
X161068656Y-88957288D01*
X160919334Y-88865186D01*
X160761265Y-88812807D01*
X160758445Y-88811641D01*
X160752792Y-88809999D01*
X160650019Y-88799500D01*
X160650010Y-88799500D01*
X159249998Y-88799500D01*
X159249981Y-88799501D01*
X159235959Y-88800933D01*
X159147198Y-88810000D01*
X159147193Y-88810001D01*
X159147032Y-88810056D01*
X158980667Y-88865185D01*
X158980665Y-88865186D01*
X158980663Y-88865187D01*
X158929929Y-88896480D01*
X158831340Y-88957290D01*
X158707290Y-89081340D01*
X158707289Y-89081342D01*
X158619303Y-89223991D01*
X158615185Y-89230667D01*
X158615180Y-89230680D01*
X158587349Y-89314668D01*
X158587349Y-89314670D01*
X158586396Y-89317546D01*
X158570299Y-89366123D01*
X158561852Y-89379068D01*
X158560364Y-89393635D01*
X158559542Y-89399877D01*
X158559387Y-89402913D01*
X158559396Y-89403104D01*
X158559355Y-89403514D01*
X158549500Y-89499983D01*
X155000500Y-89499983D01*
X155000500Y-67199983D01*
X158599500Y-67199983D01*
X158599500Y-70300001D01*
X158599501Y-70300018D01*
X158610000Y-70402796D01*
X158610001Y-70402799D01*
X158620260Y-70433757D01*
X158665186Y-70569334D01*
X158757288Y-70718656D01*
X158881344Y-70842712D01*
X158925422Y-70869899D01*
X158947669Y-70888465D01*
X158952517Y-70892511D01*
X158965745Y-70907217D01*
X158994468Y-70962656D01*
X158996415Y-70971221D01*
X158999500Y-70998708D01*
X158999500Y-74261048D01*
X159018360Y-74355868D01*
X159018379Y-74355958D01*
X159018724Y-74357688D01*
X159037946Y-74454329D01*
X159037947Y-74454330D01*
X159037948Y-74454333D01*
X159037949Y-74454336D01*
X159056219Y-74498443D01*
X159059246Y-74505753D01*
X159059248Y-74505757D01*
X159060095Y-74507801D01*
X159060095Y-74507803D01*
X159113358Y-74636393D01*
X159113364Y-74636407D01*
X159113371Y-74636420D01*
X159222860Y-74800281D01*
X159222863Y-74800285D01*
X159366537Y-74943959D01*
X159366547Y-74943968D01*
X159367580Y-74945001D01*
X159367623Y-74945043D01*
X159775574Y-75352994D01*
X159796723Y-75381245D01*
X159809331Y-75404334D01*
X159824500Y-75463763D01*
X159824500Y-75499992D01*
X159824501Y-75500019D01*
X159835000Y-75602796D01*
X159835003Y-75602804D01*
X159835001Y-75602804D01*
X159835025Y-75602916D01*
X159835067Y-75603000D01*
X159849716Y-75647204D01*
X159890186Y-75769334D01*
X159982288Y-75918656D01*
X160106344Y-76042712D01*
X160255666Y-76134814D01*
X160422203Y-76189999D01*
X160524991Y-76200500D01*
X161150008Y-76200499D01*
X161150016Y-76200498D01*
X161150019Y-76200498D01*
X161150027Y-76200497D01*
X161150317Y-76200479D01*
X161151333Y-76200363D01*
X161196459Y-76195753D01*
X161206303Y-76194748D01*
X161206303Y-76194747D01*
X161252797Y-76189999D01*
X161419334Y-76134814D01*
X161534179Y-76063976D01*
X161601568Y-76045538D01*
X161668232Y-76066460D01*
X161709002Y-76111764D01*
X161722265Y-76136963D01*
X161806713Y-76253450D01*
X162548367Y-77018188D01*
X162549322Y-77019172D01*
X162581864Y-77081001D01*
X162575812Y-77150609D01*
X162533089Y-77205894D01*
X162467258Y-77229305D01*
X162460308Y-77229500D01*
X161535010Y-77229500D01*
X161535005Y-77229499D01*
X161535004Y-77229500D01*
X161500070Y-77224476D01*
X161478250Y-77218068D01*
X161428719Y-77189870D01*
X161426056Y-77187392D01*
X161419964Y-77180606D01*
X161419473Y-77180291D01*
X161419258Y-77179820D01*
X161411207Y-77170853D01*
X161410979Y-77170548D01*
X161337546Y-77072454D01*
X161289125Y-77036206D01*
X161289124Y-77036205D01*
X161289124Y-77036204D01*
X161222335Y-76986206D01*
X161222333Y-76986204D01*
X161221539Y-76985908D01*
X161087482Y-76935908D01*
X161087483Y-76935908D01*
X161027883Y-76929501D01*
X161027881Y-76929500D01*
X161027873Y-76929500D01*
X161027864Y-76929500D01*
X161026841Y-76929500D01*
X159132123Y-76929500D01*
X159130192Y-76929659D01*
X159128545Y-76929885D01*
X159072516Y-76935908D01*
X158938460Y-76985908D01*
X158937666Y-76986204D01*
X158937665Y-76986205D01*
X158822456Y-77072450D01*
X158822450Y-77072456D01*
X158736205Y-77187665D01*
X158736203Y-77187668D01*
X158685907Y-77322516D01*
X158679501Y-77382116D01*
X158679500Y-77382139D01*
X158679500Y-78577876D01*
X158679659Y-78579806D01*
X158679885Y-78581454D01*
X158685907Y-78637482D01*
X158711944Y-78707288D01*
X158736202Y-78772328D01*
X158736206Y-78772335D01*
X158779086Y-78829616D01*
X158822450Y-78887542D01*
X158822456Y-78887548D01*
X158846569Y-78905599D01*
X158937664Y-78973793D01*
X158937671Y-78973797D01*
X159072517Y-79024091D01*
X159072516Y-79024091D01*
X159079444Y-79024835D01*
X159132127Y-79030500D01*
X160607670Y-79030499D01*
X160641276Y-79035331D01*
X160642604Y-79035522D01*
X160657603Y-79039926D01*
X160716381Y-79077700D01*
X160716390Y-79077710D01*
X160717576Y-79079079D01*
X160745018Y-79133901D01*
X160746663Y-79141459D01*
X160749500Y-79167830D01*
X160749500Y-79568564D01*
X160764154Y-79698629D01*
X160764157Y-79698652D01*
X160764158Y-79698656D01*
X160764159Y-79698658D01*
X160812248Y-79836087D01*
X160820464Y-79859565D01*
X160821878Y-79863606D01*
X160821879Y-79863608D01*
X160869287Y-79939058D01*
X160914853Y-80011576D01*
X161038424Y-80135147D01*
X161186394Y-80228122D01*
X161254601Y-80251989D01*
X161343920Y-80283244D01*
X161343921Y-80283244D01*
X161351342Y-80285841D01*
X161351351Y-80285842D01*
X161392748Y-80290505D01*
X161392749Y-80290506D01*
X161408281Y-80292255D01*
X161478440Y-80300160D01*
X161480909Y-80300500D01*
X162818555Y-80300500D01*
X162828347Y-80300500D01*
X162835945Y-80298539D01*
X162866820Y-80295061D01*
X162866823Y-80295060D01*
X162866826Y-80295061D01*
X162944033Y-80286363D01*
X162951581Y-80285745D01*
X162974534Y-80284571D01*
X162974541Y-80284726D01*
X162998519Y-80283254D01*
X163000210Y-80283392D01*
X163034049Y-80291022D01*
X163039313Y-80293016D01*
X163069689Y-80309701D01*
X163070011Y-80309942D01*
X163083391Y-80321535D01*
X163091364Y-80329508D01*
X163112516Y-80357764D01*
X163120008Y-80371485D01*
X163123797Y-80388902D01*
X163132338Y-80404539D01*
X163134860Y-80439742D01*
X163134282Y-80447836D01*
X163120485Y-80488161D01*
X163115646Y-80504143D01*
X163114674Y-80507209D01*
X163071047Y-80638862D01*
X163071032Y-80638912D01*
X163060001Y-80672203D01*
X163060001Y-80672204D01*
X163060000Y-80672204D01*
X163059230Y-80679734D01*
X163059230Y-80679737D01*
X163049500Y-80774973D01*
X163049500Y-80774983D01*
X163049500Y-81400001D01*
X163049500Y-81400009D01*
X163049503Y-81400045D01*
X163053242Y-81436643D01*
X163060000Y-81502796D01*
X163060001Y-81502799D01*
X163095336Y-81609431D01*
X163095335Y-81609431D01*
X163115182Y-81669325D01*
X163115184Y-81669330D01*
X163115186Y-81669334D01*
X163137081Y-81704832D01*
X163198489Y-81804392D01*
X163207288Y-81818656D01*
X163288344Y-81899712D01*
X163309495Y-81927967D01*
X163316987Y-81941688D01*
X163331839Y-82009948D01*
X163331710Y-82011754D01*
X163312342Y-82069956D01*
X163308163Y-82076459D01*
X163291527Y-82097103D01*
X163207291Y-82181338D01*
X163115187Y-82330662D01*
X163115152Y-82330770D01*
X163071050Y-82463857D01*
X163071044Y-82463875D01*
X163060001Y-82497203D01*
X163060001Y-82497204D01*
X163060000Y-82497204D01*
X163059230Y-82504735D01*
X163059229Y-82504741D01*
X163049500Y-82599973D01*
X163049500Y-83224998D01*
X163049503Y-83225045D01*
X163060000Y-83327796D01*
X163060001Y-83327799D01*
X163109611Y-83477510D01*
X163115186Y-83494334D01*
X163207288Y-83643656D01*
X163331344Y-83767712D01*
X163480666Y-83859814D01*
X163647203Y-83914999D01*
X163749991Y-83925500D01*
X164750008Y-83925499D01*
X164750015Y-83925498D01*
X164750017Y-83925498D01*
X164750019Y-83925498D01*
X164750022Y-83925497D01*
X164750320Y-83925479D01*
X164751333Y-83925363D01*
X164808150Y-83919559D01*
X164809999Y-83919903D01*
X164859566Y-83914659D01*
X164859567Y-83914660D01*
X164868755Y-83913688D01*
X164881800Y-83913000D01*
X166977603Y-83913000D01*
X167012538Y-83918023D01*
X167033908Y-83924298D01*
X167084102Y-83953115D01*
X167087346Y-83956178D01*
X167092324Y-83961840D01*
X167092686Y-83962073D01*
X167092855Y-83962445D01*
X167102533Y-83973452D01*
X167105466Y-83977489D01*
X167105468Y-83977492D01*
X167105477Y-83977503D01*
X167105481Y-83977508D01*
X167105483Y-83977510D01*
X167272490Y-84144517D01*
X167463567Y-84283343D01*
X167562991Y-84334002D01*
X167674003Y-84390566D01*
X167674876Y-84391011D01*
X167678630Y-84392070D01*
X167726335Y-84407569D01*
X167794410Y-84429688D01*
X167794411Y-84429689D01*
X167794412Y-84429689D01*
X167898631Y-84463553D01*
X168131903Y-84500500D01*
X168131908Y-84500500D01*
X168368096Y-84500500D01*
X168368097Y-84500500D01*
X168601368Y-84463553D01*
X168825992Y-84390568D01*
X169036433Y-84283343D01*
X169227510Y-84144517D01*
X169394517Y-83977510D01*
X169533343Y-83786433D01*
X169640568Y-83575992D01*
X169713553Y-83351368D01*
X169733565Y-83225019D01*
X169750500Y-83118097D01*
X169750500Y-82881902D01*
X169713553Y-82648631D01*
X169664351Y-82497204D01*
X169642069Y-82428627D01*
X169641008Y-82424864D01*
X169640013Y-82422861D01*
X169638221Y-82419162D01*
X169637286Y-82417566D01*
X169533342Y-82213566D01*
X169394517Y-82022490D01*
X169227510Y-81855483D01*
X169036433Y-81716657D01*
X169036432Y-81716656D01*
X169036430Y-81716655D01*
X169036427Y-81716653D01*
X169030369Y-81713566D01*
X169030369Y-81713567D01*
X168825993Y-81609431D01*
X168794208Y-81599103D01*
X168762541Y-81583533D01*
X168751085Y-81575700D01*
X168706855Y-81521612D01*
X168698889Y-81452201D01*
X168701321Y-81438146D01*
X168706461Y-81418352D01*
X168708122Y-81413606D01*
X168765841Y-81248657D01*
X168780500Y-81118552D01*
X168780500Y-79781448D01*
X168765841Y-79651343D01*
X168708122Y-79486394D01*
X168615147Y-79338424D01*
X168529426Y-79252703D01*
X168529424Y-79252700D01*
X168529423Y-79252700D01*
X168508273Y-79224445D01*
X168495666Y-79201355D01*
X168480500Y-79141932D01*
X168480500Y-77442275D01*
X168500185Y-77375236D01*
X168552989Y-77329481D01*
X168622147Y-77319537D01*
X168681822Y-77345336D01*
X168736861Y-77389240D01*
X168736866Y-77389243D01*
X168791087Y-77422048D01*
X168791092Y-77422050D01*
X168791100Y-77422055D01*
X168910350Y-77474574D01*
X168928829Y-77480000D01*
X168999305Y-77495332D01*
X169034240Y-77500355D01*
X169106182Y-77505500D01*
X176188156Y-77505500D01*
X176188157Y-77505500D01*
X176313181Y-77489795D01*
X176372611Y-77474625D01*
X176489862Y-77428489D01*
X176512950Y-77415881D01*
X176573615Y-77376892D01*
X176601866Y-77355743D01*
X176656369Y-77308515D01*
X177066830Y-76898053D01*
X177143577Y-76799473D01*
X177174724Y-76747230D01*
X177224950Y-76632837D01*
X177232495Y-76607538D01*
X177248124Y-76537133D01*
X177253295Y-76502221D01*
X177256660Y-76457816D01*
X177258744Y-76430322D01*
X177258744Y-76430314D01*
X177258743Y-76430314D01*
X177258745Y-76430301D01*
X177286836Y-69808619D01*
X177278050Y-69712609D01*
X177269307Y-69666344D01*
X177242452Y-69573750D01*
X177231530Y-69546228D01*
X177200207Y-69481250D01*
X177200201Y-69481238D01*
X177182660Y-69450645D01*
X177182636Y-69450608D01*
X177142416Y-69390798D01*
X177142406Y-69390785D01*
X177142401Y-69390777D01*
X176441950Y-68494581D01*
X176439448Y-68491643D01*
X176439065Y-68491191D01*
X176420290Y-68468931D01*
X176419937Y-68468380D01*
X176419525Y-68468023D01*
X176416595Y-68464549D01*
X176416142Y-68464111D01*
X176408077Y-68455410D01*
X176408078Y-68455410D01*
X176400260Y-68446975D01*
X176400249Y-68446964D01*
X176398499Y-68445076D01*
X176398459Y-68445035D01*
X176384174Y-68429624D01*
X176375305Y-68422223D01*
X176370111Y-68417072D01*
X176370112Y-68417072D01*
X176370101Y-68417062D01*
X176368310Y-68415429D01*
X176368301Y-68415422D01*
X176368297Y-68415419D01*
X176275585Y-68348406D01*
X176275577Y-68348401D01*
X176275575Y-68348400D01*
X176275574Y-68348399D01*
X176226963Y-68321052D01*
X176226962Y-68321051D01*
X176226954Y-68321047D01*
X176121559Y-68276607D01*
X176121552Y-68276605D01*
X176121549Y-68276604D01*
X176121544Y-68276602D01*
X176106060Y-68272055D01*
X176099070Y-68270002D01*
X176028570Y-68254665D01*
X176028561Y-68254663D01*
X176028558Y-68254663D01*
X175993626Y-68249642D01*
X175993617Y-68249641D01*
X175993618Y-68249641D01*
X175921711Y-68244500D01*
X175921706Y-68244500D01*
X172010746Y-68244500D01*
X171943707Y-68224815D01*
X171923065Y-68208181D01*
X170901183Y-67186298D01*
X170901167Y-67186284D01*
X170801678Y-67108997D01*
X170801668Y-67108990D01*
X170754731Y-67081141D01*
X170707121Y-67030004D01*
X170694716Y-66961244D01*
X170721454Y-66896693D01*
X170778847Y-66856845D01*
X170818005Y-66850500D01*
X171519806Y-66850500D01*
X171554741Y-66855523D01*
X171569739Y-66859927D01*
X171628508Y-66897692D01*
X171632922Y-66902785D01*
X171661530Y-66963611D01*
X171683796Y-67097203D01*
X171712437Y-67269052D01*
X171713509Y-67272488D01*
X171742422Y-67365179D01*
X171746603Y-67371527D01*
X171821581Y-67485378D01*
X171931397Y-67578406D01*
X171965230Y-67593402D01*
X172062972Y-67636726D01*
X172097140Y-67641443D01*
X172097139Y-67641444D01*
X172097143Y-67641443D01*
X172162712Y-67650499D01*
X172162717Y-67650499D01*
X172162721Y-67650500D01*
X172162725Y-67650500D01*
X173337276Y-67650501D01*
X173437027Y-67636726D01*
X173568603Y-67578406D01*
X173678418Y-67485378D01*
X173757577Y-67365180D01*
X173787562Y-67269051D01*
X173837121Y-66971695D01*
X173847817Y-66938069D01*
X173849093Y-66935433D01*
X173854627Y-66923998D01*
X173901547Y-66872231D01*
X173907313Y-66868704D01*
X173971993Y-66850500D01*
X177311441Y-66850500D01*
X177346375Y-66855523D01*
X177374595Y-66863809D01*
X177381670Y-66867486D01*
X177386527Y-66867984D01*
X177416973Y-66885838D01*
X177434332Y-66899681D01*
X177550752Y-66992523D01*
X177788555Y-67141945D01*
X178041592Y-67263801D01*
X178162053Y-67305952D01*
X178254099Y-67338160D01*
X178306666Y-67356555D01*
X178306670Y-67356556D01*
X178306682Y-67356560D01*
X178580491Y-67419055D01*
X178580495Y-67419055D01*
X178580498Y-67419055D01*
X178580505Y-67419057D01*
X178587408Y-67419834D01*
X178587409Y-67419835D01*
X178614726Y-67422912D01*
X178766547Y-67440018D01*
X178856560Y-67450160D01*
X178859034Y-67450500D01*
X179140428Y-67450500D01*
X179150222Y-67450500D01*
X179157820Y-67448539D01*
X179283055Y-67434429D01*
X179418788Y-67419136D01*
X179419429Y-67419068D01*
X179419504Y-67419055D01*
X179419509Y-67419055D01*
X179693318Y-67356560D01*
X179958408Y-67263801D01*
X180211445Y-67141945D01*
X180449248Y-66992523D01*
X180668825Y-66817416D01*
X180867416Y-66618825D01*
X181042523Y-66399248D01*
X181090043Y-66323618D01*
X181112879Y-66296716D01*
X181127903Y-66283427D01*
X181183088Y-66255276D01*
X181188288Y-66254117D01*
X181191205Y-66253468D01*
X181218171Y-66250500D01*
X186357670Y-66250500D01*
X186392606Y-66255523D01*
X186407604Y-66259927D01*
X186422594Y-66269557D01*
X186439675Y-66274567D01*
X186466355Y-66297672D01*
X186467542Y-66299041D01*
X186495018Y-66353902D01*
X186496663Y-66361460D01*
X186499500Y-66387831D01*
X186499500Y-67057670D01*
X186494475Y-67092612D01*
X186493353Y-67096431D01*
X186490070Y-67107612D01*
X186480439Y-67122601D01*
X186475432Y-67139675D01*
X186452327Y-67166355D01*
X186450958Y-67167542D01*
X186396097Y-67195018D01*
X186388539Y-67196663D01*
X186362168Y-67199500D01*
X184459623Y-67199500D01*
X184457692Y-67199659D01*
X184456045Y-67199885D01*
X184400016Y-67205908D01*
X184265166Y-67256204D01*
X184265165Y-67256205D01*
X184149956Y-67342450D01*
X184149955Y-67342452D01*
X184149952Y-67342455D01*
X184129170Y-67370216D01*
X184063705Y-67457665D01*
X184063703Y-67457668D01*
X184013405Y-67592523D01*
X184013198Y-67593402D01*
X184007084Y-67612332D01*
X183999943Y-67629571D01*
X183956101Y-67683973D01*
X183956092Y-67683980D01*
X183947823Y-67689720D01*
X183901306Y-67709473D01*
X183758181Y-67737943D01*
X183758175Y-67737944D01*
X183758154Y-67737951D01*
X183576093Y-67813362D01*
X183576083Y-67813367D01*
X183412212Y-67922864D01*
X183412209Y-67922866D01*
X182397003Y-68938073D01*
X182387151Y-68945448D01*
X182368752Y-68959222D01*
X182345664Y-68971830D01*
X182286234Y-68987000D01*
X182250000Y-68987000D01*
X182249982Y-68987000D01*
X182249979Y-68987001D01*
X182228517Y-68989193D01*
X182147203Y-68997500D01*
X182147201Y-68997500D01*
X182147197Y-68997501D01*
X182147193Y-68997501D01*
X182147032Y-68997556D01*
X181980667Y-69052685D01*
X181980665Y-69052686D01*
X181980663Y-69052687D01*
X181881115Y-69114088D01*
X181831340Y-69144790D01*
X181707290Y-69268840D01*
X181676588Y-69318615D01*
X181618653Y-69412545D01*
X181615185Y-69418167D01*
X181615178Y-69418185D01*
X181588069Y-69499999D01*
X181588068Y-69500003D01*
X181570298Y-69553625D01*
X181561852Y-69566568D01*
X181560365Y-69581130D01*
X181559542Y-69587381D01*
X181559359Y-69590976D01*
X181549500Y-69687473D01*
X181549500Y-69687483D01*
X181549500Y-70312501D01*
X181549500Y-70312509D01*
X181549503Y-70312545D01*
X181558298Y-70398631D01*
X181560000Y-70415296D01*
X181560001Y-70415299D01*
X181611043Y-70569331D01*
X181611044Y-70569334D01*
X181615184Y-70581831D01*
X181615186Y-70581834D01*
X181707288Y-70731156D01*
X181831344Y-70855212D01*
X181980666Y-70947314D01*
X182147203Y-71002499D01*
X182249991Y-71013000D01*
X183250008Y-71012999D01*
X183250016Y-71012998D01*
X183250019Y-71012998D01*
X183250027Y-71012997D01*
X183250317Y-71012979D01*
X183251333Y-71012863D01*
X183296459Y-71008253D01*
X183306303Y-71007248D01*
X183306303Y-71007247D01*
X183352797Y-71002499D01*
X183519334Y-70947314D01*
X183668656Y-70855212D01*
X183792712Y-70731156D01*
X183884814Y-70581834D01*
X183939999Y-70415297D01*
X183950500Y-70312509D01*
X183950499Y-70283607D01*
X183954763Y-70251366D01*
X183955114Y-70250060D01*
X183959144Y-70236336D01*
X183960549Y-70229873D01*
X183961331Y-70226973D01*
X183978040Y-70199634D01*
X183993381Y-70171537D01*
X184037023Y-70127895D01*
X184065275Y-70106746D01*
X184078996Y-70099255D01*
X184147259Y-70084405D01*
X184153583Y-70084857D01*
X184219047Y-70109269D01*
X184247169Y-70130321D01*
X184258076Y-70138486D01*
X184258078Y-70138488D01*
X184265273Y-70143874D01*
X184267217Y-70144560D01*
X184339541Y-70171535D01*
X184362127Y-70179959D01*
X184389370Y-70194835D01*
X184393101Y-70196872D01*
X184405616Y-70206240D01*
X184447489Y-70262172D01*
X184447490Y-70262174D01*
X184451681Y-70273410D01*
X184459500Y-70316745D01*
X184459500Y-74221042D01*
X184461415Y-74230668D01*
X184472510Y-74286447D01*
X184495034Y-74399685D01*
X184495035Y-74399690D01*
X184495034Y-74399690D01*
X184496707Y-74408095D01*
X184496708Y-74408101D01*
X184497947Y-74414333D01*
X184497948Y-74414336D01*
X184573358Y-74596393D01*
X184573366Y-74596411D01*
X184573375Y-74596426D01*
X184682858Y-74760279D01*
X184775095Y-74852516D01*
X184787623Y-74875459D01*
X184822237Y-74901420D01*
X184835518Y-74912939D01*
X184839654Y-74917075D01*
X184839659Y-74917079D01*
X185275574Y-75352995D01*
X185296723Y-75381246D01*
X185309331Y-75404335D01*
X185324500Y-75463764D01*
X185324500Y-75499992D01*
X185324501Y-75500019D01*
X185335000Y-75602796D01*
X185335003Y-75602804D01*
X185335001Y-75602804D01*
X185335025Y-75602916D01*
X185335067Y-75603000D01*
X185349716Y-75647204D01*
X185390186Y-75769334D01*
X185482288Y-75918656D01*
X185606344Y-76042712D01*
X185755666Y-76134814D01*
X185922203Y-76189999D01*
X186024991Y-76200500D01*
X186650008Y-76200499D01*
X186650016Y-76200498D01*
X186650019Y-76200498D01*
X186650027Y-76200497D01*
X186650317Y-76200479D01*
X186651333Y-76200363D01*
X186696459Y-76195753D01*
X186706303Y-76194748D01*
X186706303Y-76194747D01*
X186752797Y-76189999D01*
X186919334Y-76134814D01*
X187068656Y-76042712D01*
X187100042Y-76011325D01*
X187161362Y-75977841D01*
X187231054Y-75982825D01*
X187281751Y-76020208D01*
X187282576Y-76019473D01*
X187285524Y-76022777D01*
X188063046Y-76778022D01*
X188097418Y-76838852D01*
X188093447Y-76908609D01*
X188052393Y-76965145D01*
X188019001Y-76981096D01*
X188019785Y-76983197D01*
X188012516Y-76985907D01*
X188012516Y-76985908D01*
X187877671Y-77036202D01*
X187877666Y-77036204D01*
X187877665Y-77036205D01*
X187762456Y-77122450D01*
X187762450Y-77122456D01*
X187676205Y-77237665D01*
X187676203Y-77237668D01*
X187625907Y-77372517D01*
X187621191Y-77416395D01*
X187619500Y-77432123D01*
X187619500Y-78907670D01*
X187617343Y-78922670D01*
X187614477Y-78942604D01*
X187610073Y-78957603D01*
X187572299Y-79016381D01*
X187572289Y-79016390D01*
X187570920Y-79017576D01*
X187516098Y-79045018D01*
X187508540Y-79046663D01*
X187482169Y-79049500D01*
X187081434Y-79049500D01*
X186951369Y-79064154D01*
X186951346Y-79064157D01*
X186951342Y-79064158D01*
X186951340Y-79064159D01*
X186786396Y-79121876D01*
X186638422Y-79214853D01*
X186514853Y-79338422D01*
X186421875Y-79486398D01*
X186373507Y-79624625D01*
X186359215Y-79653086D01*
X186358221Y-79654556D01*
X186354000Y-79660442D01*
X186353488Y-79661562D01*
X186350123Y-79666544D01*
X186326410Y-79686156D01*
X186309407Y-79702313D01*
X186310229Y-79703592D01*
X186308326Y-79704815D01*
X186306080Y-79705474D01*
X186304017Y-79707435D01*
X186299832Y-79709584D01*
X186299311Y-79708570D01*
X186296283Y-79711075D01*
X186280557Y-79712968D01*
X186241287Y-79724500D01*
X186144336Y-79724500D01*
X186144335Y-79724499D01*
X186144335Y-79724500D01*
X186109400Y-79719477D01*
X186084158Y-79712065D01*
X186031413Y-79680769D01*
X185424425Y-79073781D01*
X185403273Y-79045525D01*
X185390666Y-79022436D01*
X185375499Y-78963011D01*
X185375499Y-78750008D01*
X185375499Y-78749998D01*
X185375498Y-78749981D01*
X185364999Y-78647203D01*
X185364998Y-78647200D01*
X185332170Y-78548132D01*
X185309814Y-78480666D01*
X185217712Y-78331344D01*
X185093656Y-78207288D01*
X184944334Y-78115186D01*
X184786265Y-78062807D01*
X184783445Y-78061641D01*
X184777792Y-78059999D01*
X184675019Y-78049500D01*
X184675010Y-78049500D01*
X184049998Y-78049500D01*
X184049980Y-78049501D01*
X184049972Y-78049501D01*
X184049953Y-78049503D01*
X183947197Y-78060000D01*
X183947193Y-78060001D01*
X183947032Y-78060056D01*
X183780667Y-78115185D01*
X183780665Y-78115186D01*
X183780663Y-78115187D01*
X183706002Y-78161238D01*
X183631338Y-78207291D01*
X183550285Y-78288345D01*
X183550282Y-78288346D01*
X183550282Y-78288348D01*
X183522027Y-78309498D01*
X183508309Y-78316988D01*
X183440051Y-78331839D01*
X183440036Y-78331837D01*
X183440036Y-78331838D01*
X183440035Y-78331837D01*
X183438245Y-78331710D01*
X183380044Y-78312342D01*
X183373529Y-78308155D01*
X183352893Y-78291525D01*
X183268657Y-78207289D01*
X183268656Y-78207288D01*
X183119334Y-78115186D01*
X182961265Y-78062807D01*
X182958445Y-78061641D01*
X182952792Y-78059999D01*
X182850019Y-78049500D01*
X182850010Y-78049500D01*
X182224998Y-78049500D01*
X182224980Y-78049501D01*
X182224972Y-78049501D01*
X182224953Y-78049503D01*
X182122197Y-78060000D01*
X182122193Y-78060001D01*
X182122032Y-78060056D01*
X181955667Y-78115185D01*
X181955665Y-78115186D01*
X181955663Y-78115187D01*
X181856115Y-78176588D01*
X181806340Y-78207290D01*
X181682290Y-78331340D01*
X181590187Y-78480662D01*
X181590152Y-78480770D01*
X181546050Y-78613857D01*
X181546044Y-78613875D01*
X181535001Y-78647203D01*
X181535001Y-78647204D01*
X181535000Y-78647204D01*
X181534230Y-78654735D01*
X181534229Y-78654741D01*
X181524500Y-78749973D01*
X181524500Y-78749981D01*
X181524500Y-78749983D01*
X181524500Y-79750001D01*
X181524501Y-79750019D01*
X181524503Y-79750040D01*
X181524504Y-79750051D01*
X181530438Y-79808141D01*
X181530501Y-79808776D01*
X181535424Y-79859559D01*
X181535339Y-79859568D01*
X181536366Y-79869270D01*
X181536421Y-79869837D01*
X181536379Y-79870052D01*
X181537000Y-79881803D01*
X181537000Y-81271781D01*
X181531976Y-81306720D01*
X181524564Y-81331960D01*
X181493269Y-81384702D01*
X181350992Y-81526978D01*
X181346857Y-81534361D01*
X181319820Y-81571576D01*
X181319819Y-81571575D01*
X181217756Y-81712053D01*
X181216657Y-81713566D01*
X181109433Y-81924003D01*
X181036446Y-82148631D01*
X181036445Y-82148634D01*
X181036445Y-82148636D01*
X180999500Y-82381896D01*
X180999500Y-82618102D01*
X181036445Y-82851362D01*
X181036446Y-82851368D01*
X181109433Y-83075996D01*
X181185356Y-83225001D01*
X181216657Y-83286433D01*
X181355483Y-83477510D01*
X181522490Y-83644517D01*
X181713567Y-83783343D01*
X181812991Y-83834002D01*
X181924003Y-83890566D01*
X181924876Y-83891011D01*
X181928630Y-83892070D01*
X181956232Y-83901038D01*
X181999194Y-83914997D01*
X181999195Y-83914998D01*
X182031511Y-83925498D01*
X182148631Y-83963553D01*
X182381903Y-84000500D01*
X182381908Y-84000500D01*
X182618096Y-84000500D01*
X182618097Y-84000500D01*
X182851368Y-83963553D01*
X183075992Y-83890568D01*
X183286433Y-83783343D01*
X183477510Y-83644517D01*
X183644517Y-83477510D01*
X183783343Y-83286433D01*
X183890568Y-83075992D01*
X183963553Y-82851368D01*
X184000500Y-82618097D01*
X184000500Y-82381902D01*
X183963553Y-82148631D01*
X183890566Y-81924003D01*
X183794438Y-81735343D01*
X183794437Y-81735340D01*
X183783345Y-81713569D01*
X183783343Y-81713567D01*
X183765850Y-81689490D01*
X183644517Y-81522490D01*
X183586921Y-81464894D01*
X183565774Y-81436643D01*
X183553167Y-81413554D01*
X183538000Y-81354129D01*
X183538000Y-80475140D01*
X183543022Y-80440207D01*
X183543083Y-80439999D01*
X183546933Y-80426888D01*
X183584706Y-80368111D01*
X183648258Y-80339086D01*
X183648960Y-80338985D01*
X183708826Y-80345149D01*
X183715111Y-80347427D01*
X183737946Y-80358464D01*
X183780666Y-80384814D01*
X183947203Y-80439999D01*
X184049991Y-80450500D01*
X184255664Y-80450499D01*
X184290595Y-80455520D01*
X184315836Y-80462932D01*
X184368584Y-80494228D01*
X185032455Y-81158099D01*
X185097345Y-81222989D01*
X185154401Y-81280045D01*
X185297788Y-81375854D01*
X185297801Y-81375861D01*
X185297803Y-81375861D01*
X185297807Y-81375864D01*
X185319145Y-81384702D01*
X185413054Y-81423600D01*
X185457126Y-81441855D01*
X185621664Y-81474583D01*
X185623570Y-81475062D01*
X185626268Y-81475500D01*
X185626269Y-81475500D01*
X185626271Y-81475500D01*
X186374406Y-81475500D01*
X186409338Y-81480522D01*
X186416178Y-81482530D01*
X186428583Y-81486172D01*
X186481783Y-81517923D01*
X186485434Y-81521612D01*
X186487632Y-81523833D01*
X186504490Y-81545085D01*
X186514850Y-81561572D01*
X186514851Y-81561574D01*
X186514853Y-81561576D01*
X186638424Y-81685147D01*
X186786394Y-81778122D01*
X186814972Y-81788122D01*
X186943914Y-81833242D01*
X186943915Y-81833242D01*
X186947281Y-81834419D01*
X186951343Y-81835841D01*
X186951349Y-81835841D01*
X186951351Y-81835842D01*
X186967079Y-81837614D01*
X187078446Y-81850161D01*
X187080911Y-81850500D01*
X187718555Y-81850500D01*
X187728348Y-81850500D01*
X187735944Y-81848539D01*
X187848657Y-81835841D01*
X188013606Y-81778122D01*
X188161576Y-81685147D01*
X188285147Y-81561576D01*
X188378122Y-81413606D01*
X188435841Y-81248657D01*
X188450500Y-81118552D01*
X188450500Y-79939058D01*
X188455521Y-79904131D01*
X188458707Y-79893278D01*
X188496477Y-79834497D01*
X188560031Y-79805468D01*
X188629186Y-79815406D01*
X188636177Y-79818598D01*
X188672341Y-79843709D01*
X189907049Y-81078416D01*
X189979134Y-81150501D01*
X190011581Y-81182949D01*
X190011589Y-81182955D01*
X190134481Y-81265069D01*
X190134486Y-81265072D01*
X190134498Y-81265080D01*
X190134511Y-81265087D01*
X190164989Y-81277711D01*
X190170624Y-81280045D01*
X190271088Y-81321659D01*
X190377744Y-81342874D01*
X190411170Y-81349522D01*
X190411174Y-81349525D01*
X190411175Y-81349524D01*
X190412145Y-81349716D01*
X190416081Y-81350500D01*
X190416082Y-81350500D01*
X190416083Y-81350500D01*
X190563918Y-81350500D01*
X191890927Y-81350500D01*
X191911204Y-81353415D01*
X191925858Y-81355521D01*
X191941522Y-81360121D01*
X191999462Y-81396939D01*
X192012284Y-81411434D01*
X192024394Y-81427611D01*
X192071635Y-81502795D01*
X192084009Y-81522488D01*
X192114853Y-81571576D01*
X192238424Y-81695147D01*
X192386394Y-81788122D01*
X192432902Y-81804396D01*
X192515337Y-81833242D01*
X192551343Y-81845841D01*
X192551349Y-81845841D01*
X192551351Y-81845842D01*
X192592685Y-81850499D01*
X192678486Y-81860166D01*
X192680915Y-81860500D01*
X193318555Y-81860500D01*
X193328348Y-81860500D01*
X193335944Y-81858539D01*
X193448657Y-81845841D01*
X193613606Y-81788122D01*
X193761576Y-81695147D01*
X193885147Y-81571576D01*
X193978122Y-81423606D01*
X194035841Y-81258657D01*
X194050500Y-81128552D01*
X194050500Y-79932328D01*
X194055523Y-79897392D01*
X194059927Y-79882394D01*
X194060307Y-79881803D01*
X194097672Y-79823643D01*
X194097700Y-79823618D01*
X194097699Y-79823618D01*
X194099041Y-79822455D01*
X194153920Y-79794976D01*
X194161479Y-79793332D01*
X194187832Y-79790499D01*
X194867871Y-79790499D01*
X194867872Y-79790499D01*
X194927483Y-79784091D01*
X195062331Y-79733796D01*
X195177546Y-79647546D01*
X195263796Y-79532331D01*
X195314091Y-79397483D01*
X195320500Y-79337873D01*
X195320499Y-79146832D01*
X195321272Y-79141460D01*
X195325521Y-79111900D01*
X195332932Y-79086659D01*
X195364228Y-79033914D01*
X195381761Y-79016381D01*
X195492545Y-78905599D01*
X195588358Y-78762205D01*
X195654355Y-78602874D01*
X195688000Y-78433729D01*
X195688000Y-78261271D01*
X195688000Y-77438171D01*
X195692704Y-77404342D01*
X195701755Y-77372424D01*
X195715514Y-77341154D01*
X195759810Y-77269341D01*
X195759810Y-77269339D01*
X195759814Y-77269334D01*
X195814999Y-77102797D01*
X195825500Y-77000009D01*
X195825499Y-75999992D01*
X195823745Y-75982825D01*
X195814999Y-75897203D01*
X195814998Y-75897200D01*
X195801440Y-75856286D01*
X195759814Y-75730666D01*
X195667712Y-75581344D01*
X195543656Y-75457288D01*
X195404122Y-75371223D01*
X195394336Y-75365187D01*
X195394331Y-75365185D01*
X195383440Y-75361576D01*
X195357535Y-75352992D01*
X195236265Y-75312807D01*
X195233445Y-75311641D01*
X195227792Y-75309999D01*
X195125019Y-75299500D01*
X195125010Y-75299500D01*
X194499998Y-75299500D01*
X194499980Y-75299501D01*
X194499972Y-75299501D01*
X194499953Y-75299503D01*
X194397197Y-75310000D01*
X194397193Y-75310001D01*
X194397032Y-75310056D01*
X194230668Y-75365185D01*
X194230662Y-75365187D01*
X194141915Y-75419926D01*
X194129150Y-75423418D01*
X194109544Y-75433990D01*
X194099504Y-75436737D01*
X194081679Y-75436406D01*
X194074522Y-75438365D01*
X194060148Y-75437260D01*
X194051584Y-75436098D01*
X194051002Y-75435837D01*
X194029647Y-75435442D01*
X193988428Y-75407859D01*
X193987800Y-75407579D01*
X193987637Y-75407330D01*
X193971579Y-75396585D01*
X193953696Y-75355427D01*
X193949560Y-75349102D01*
X193949534Y-75345847D01*
X193943736Y-75332503D01*
X193949071Y-75287641D01*
X193949005Y-75279235D01*
X193950319Y-75277153D01*
X193950773Y-75273334D01*
X193952257Y-75269406D01*
X193963262Y-75247253D01*
X193978122Y-75223606D01*
X194035841Y-75058657D01*
X194050500Y-74928552D01*
X194050500Y-73591448D01*
X194035841Y-73461343D01*
X193978122Y-73296394D01*
X193885147Y-73148424D01*
X193761576Y-73024853D01*
X193631997Y-72943433D01*
X193631992Y-72943430D01*
X193613606Y-72931878D01*
X193613605Y-72931877D01*
X193613604Y-72931877D01*
X193448658Y-72874159D01*
X193448656Y-72874158D01*
X193448652Y-72874157D01*
X193448629Y-72874154D01*
X193318564Y-72859500D01*
X193318558Y-72859500D01*
X193318552Y-72859500D01*
X192929500Y-72859500D01*
X192862461Y-72839815D01*
X192816706Y-72787011D01*
X192805500Y-72735500D01*
X192805500Y-71923956D01*
X192805500Y-71923952D01*
X192793968Y-71816594D01*
X192791597Y-71805689D01*
X192783329Y-71767640D01*
X192780501Y-71741759D01*
X192780500Y-71741485D01*
X192780500Y-71521445D01*
X192780499Y-71521441D01*
X192779372Y-71511441D01*
X192774788Y-71470757D01*
X192765842Y-71391350D01*
X192765841Y-71391348D01*
X192765841Y-71391343D01*
X192708122Y-71226394D01*
X192615147Y-71078424D01*
X192491576Y-70954853D01*
X192479578Y-70947314D01*
X192361997Y-70873433D01*
X192361992Y-70873430D01*
X192343606Y-70861878D01*
X192343605Y-70861877D01*
X192343604Y-70861877D01*
X192288834Y-70842712D01*
X192178658Y-70804159D01*
X192178656Y-70804158D01*
X192178652Y-70804157D01*
X192178629Y-70804154D01*
X192048564Y-70789500D01*
X192048558Y-70789500D01*
X192048552Y-70789500D01*
X191411448Y-70789500D01*
X191411441Y-70789500D01*
X191411434Y-70789500D01*
X191281369Y-70804154D01*
X191281346Y-70804157D01*
X191281342Y-70804158D01*
X191281340Y-70804159D01*
X191116396Y-70861876D01*
X190968422Y-70954853D01*
X190844853Y-71078422D01*
X190748172Y-71232291D01*
X190746407Y-71231181D01*
X190706359Y-71275531D01*
X190641423Y-71293865D01*
X188464268Y-71293034D01*
X188464241Y-71293035D01*
X188421085Y-71295174D01*
X188413891Y-71295531D01*
X188389317Y-71297982D01*
X188339494Y-71305474D01*
X188203940Y-71353718D01*
X188143272Y-71385667D01*
X188142278Y-71386176D01*
X188142119Y-71386273D01*
X188025651Y-71470753D01*
X187911913Y-71581116D01*
X187299449Y-72175405D01*
X187285479Y-72188960D01*
X187285475Y-72188964D01*
X187246271Y-72231633D01*
X187228308Y-72253586D01*
X187228299Y-72253597D01*
X187194248Y-72300453D01*
X187134493Y-72431330D01*
X187134491Y-72431336D01*
X187114813Y-72498375D01*
X187113553Y-72507139D01*
X187113553Y-72507153D01*
X187094352Y-72640786D01*
X187094351Y-72640794D01*
X187094457Y-73752194D01*
X187086370Y-73779744D01*
X187081205Y-73807981D01*
X187076655Y-73812844D01*
X187074779Y-73819236D01*
X187053083Y-73838038D01*
X187033470Y-73859002D01*
X187027011Y-73860633D01*
X187021979Y-73864995D01*
X186993565Y-73869083D01*
X186965729Y-73876116D01*
X186957879Y-73874218D01*
X186952822Y-73874946D01*
X186931011Y-73869765D01*
X186921683Y-73866635D01*
X186919334Y-73865186D01*
X186760956Y-73812704D01*
X186760823Y-73812660D01*
X186760697Y-73812572D01*
X186758439Y-73811639D01*
X186752796Y-73809999D01*
X186650025Y-73799500D01*
X186650016Y-73799500D01*
X186650009Y-73799500D01*
X186621112Y-73799500D01*
X186588823Y-73795222D01*
X186587492Y-73794863D01*
X186573843Y-73790855D01*
X186567577Y-73789491D01*
X186564626Y-73788696D01*
X186537324Y-73771993D01*
X186509227Y-73756649D01*
X186506680Y-73753246D01*
X186505025Y-73752234D01*
X186503384Y-73748843D01*
X186488079Y-73728394D01*
X186475664Y-73705654D01*
X186460500Y-73646234D01*
X186460500Y-70320201D01*
X186465523Y-70285265D01*
X186469927Y-70270267D01*
X186479564Y-70255270D01*
X186484584Y-70238170D01*
X186507695Y-70211495D01*
X186516764Y-70203636D01*
X186554631Y-70181167D01*
X186648329Y-70146220D01*
X186653467Y-70144626D01*
X186659875Y-70141914D01*
X186690956Y-70130321D01*
X186716145Y-70097895D01*
X186770046Y-70057546D01*
X186856296Y-69942331D01*
X186856298Y-69942326D01*
X186857168Y-69939992D01*
X186874080Y-69909017D01*
X186882399Y-69897903D01*
X186938331Y-69856029D01*
X187008022Y-69851042D01*
X187008026Y-69851042D01*
X187016046Y-69852787D01*
X187062566Y-69873634D01*
X187130902Y-69923283D01*
X187213567Y-69983343D01*
X187311407Y-70033195D01*
X187424003Y-70090566D01*
X187424876Y-70091011D01*
X187428630Y-70092070D01*
X187446555Y-70097894D01*
X187544410Y-70129688D01*
X187544411Y-70129689D01*
X187544412Y-70129689D01*
X187648631Y-70163553D01*
X187881903Y-70200500D01*
X187881908Y-70200500D01*
X188118096Y-70200500D01*
X188118097Y-70200500D01*
X188351368Y-70163553D01*
X188575992Y-70090568D01*
X188786433Y-69983343D01*
X188977510Y-69844517D01*
X189144517Y-69677510D01*
X189283343Y-69486433D01*
X189390568Y-69275992D01*
X189463553Y-69051368D01*
X189500500Y-68818097D01*
X189500500Y-65746859D01*
X189505523Y-65711923D01*
X189509927Y-65696925D01*
X189510739Y-65695661D01*
X189547692Y-65638156D01*
X189552787Y-65633740D01*
X189613609Y-65605135D01*
X190019050Y-65537563D01*
X190115180Y-65507577D01*
X190235378Y-65428419D01*
X190328406Y-65318603D01*
X190386726Y-65187027D01*
X190393016Y-65141470D01*
X190400499Y-65087287D01*
X190400500Y-65087274D01*
X190400500Y-64500000D01*
X190400501Y-63912724D01*
X190386726Y-63812973D01*
X190328406Y-63681397D01*
X190328404Y-63681395D01*
X190328404Y-63681394D01*
X190235380Y-63571584D01*
X190235372Y-63571577D01*
X190235371Y-63571576D01*
X190115181Y-63492422D01*
X190019056Y-63462439D01*
X190019051Y-63462438D01*
X189452975Y-63368092D01*
X188740480Y-63249342D01*
X188035802Y-63131896D01*
X198249500Y-63131896D01*
X198249500Y-63368102D01*
X198281729Y-63571584D01*
X198286446Y-63601368D01*
X198359433Y-63825996D01*
X198466657Y-64036433D01*
X198605483Y-64227510D01*
X198605485Y-64227512D01*
X198775935Y-64397962D01*
X198775787Y-64398109D01*
X198789518Y-64412545D01*
X198798962Y-64424793D01*
X198824309Y-64489903D01*
X198810432Y-64558380D01*
X198810425Y-64558393D01*
X198807163Y-64564573D01*
X198775339Y-64601310D01*
X198776198Y-64602315D01*
X198772491Y-64605480D01*
X198600991Y-64776980D01*
X198596858Y-64784361D01*
X198545862Y-64854550D01*
X198545861Y-64854549D01*
X198466659Y-64963562D01*
X198466657Y-64963566D01*
X198359433Y-65174003D01*
X198286446Y-65398631D01*
X198286445Y-65398634D01*
X198286445Y-65398636D01*
X198249500Y-65631896D01*
X198249500Y-65868102D01*
X198264621Y-65963570D01*
X198286446Y-66101368D01*
X198359433Y-66325996D01*
X198447839Y-66499500D01*
X198466657Y-66536433D01*
X198605483Y-66727510D01*
X198605485Y-66727512D01*
X198775935Y-66897962D01*
X198775787Y-66898109D01*
X198789518Y-66912545D01*
X198798962Y-66924793D01*
X198824309Y-66989903D01*
X198810432Y-67058380D01*
X198810425Y-67058393D01*
X198807163Y-67064573D01*
X198775339Y-67101310D01*
X198776198Y-67102315D01*
X198772491Y-67105480D01*
X198600990Y-67276981D01*
X198596858Y-67284360D01*
X198554651Y-67342453D01*
X198466661Y-67463560D01*
X198466657Y-67463566D01*
X198359433Y-67674003D01*
X198286446Y-67898631D01*
X198286445Y-67898634D01*
X198286445Y-67898636D01*
X198249500Y-68131896D01*
X198249500Y-68368102D01*
X198269533Y-68494582D01*
X198286446Y-68601368D01*
X198359433Y-68825996D01*
X198446820Y-68997501D01*
X198446819Y-68997501D01*
X198466653Y-69036428D01*
X198466657Y-69036433D01*
X198605483Y-69227510D01*
X198605485Y-69227512D01*
X198775935Y-69397962D01*
X198775787Y-69398109D01*
X198789518Y-69412545D01*
X198798962Y-69424793D01*
X198824309Y-69489903D01*
X198810432Y-69558380D01*
X198810425Y-69558393D01*
X198807163Y-69564573D01*
X198775339Y-69601310D01*
X198776198Y-69602315D01*
X198772491Y-69605480D01*
X198600991Y-69776980D01*
X198596858Y-69784361D01*
X198553154Y-69844514D01*
X198466657Y-69963565D01*
X198456580Y-69983343D01*
X198359433Y-70174003D01*
X198286446Y-70398631D01*
X198286445Y-70398634D01*
X198286445Y-70398636D01*
X198249500Y-70631896D01*
X198249500Y-70868102D01*
X198272450Y-71012999D01*
X198286446Y-71101368D01*
X198359433Y-71325996D01*
X198459018Y-71521441D01*
X198466657Y-71536433D01*
X198605483Y-71727510D01*
X198605485Y-71727512D01*
X198775935Y-71897962D01*
X198775787Y-71898109D01*
X198789518Y-71912545D01*
X198798962Y-71924793D01*
X198824309Y-71989903D01*
X198810432Y-72058380D01*
X198810425Y-72058393D01*
X198807163Y-72064573D01*
X198775339Y-72101310D01*
X198776198Y-72102315D01*
X198772491Y-72105480D01*
X198600991Y-72276980D01*
X198596858Y-72284361D01*
X198545862Y-72354550D01*
X198545861Y-72354549D01*
X198466659Y-72463562D01*
X198466657Y-72463566D01*
X198359433Y-72674003D01*
X198286446Y-72898631D01*
X198286445Y-72898634D01*
X198286445Y-72898636D01*
X198249500Y-73131896D01*
X198249500Y-73368102D01*
X198280882Y-73566239D01*
X198286446Y-73601368D01*
X198359433Y-73825996D01*
X198466657Y-74036433D01*
X198605483Y-74227510D01*
X198605485Y-74227512D01*
X198775935Y-74397962D01*
X198775787Y-74398109D01*
X198789518Y-74412545D01*
X198798962Y-74424793D01*
X198824309Y-74489903D01*
X198810432Y-74558380D01*
X198810425Y-74558393D01*
X198807163Y-74564573D01*
X198775339Y-74601310D01*
X198776198Y-74602315D01*
X198772491Y-74605480D01*
X198600991Y-74776980D01*
X198596862Y-74784354D01*
X198585296Y-74800275D01*
X198585292Y-74800281D01*
X198466657Y-74963566D01*
X198359433Y-75174003D01*
X198286446Y-75398631D01*
X198286445Y-75398634D01*
X198286445Y-75398636D01*
X198249500Y-75631896D01*
X198249500Y-75868102D01*
X198280524Y-76063978D01*
X198286446Y-76101368D01*
X198359433Y-76325996D01*
X198466657Y-76536433D01*
X198605483Y-76727510D01*
X198772490Y-76894517D01*
X198963567Y-77033343D01*
X199062991Y-77084002D01*
X199174003Y-77140566D01*
X199174876Y-77141011D01*
X199178630Y-77142070D01*
X199204911Y-77150609D01*
X199260449Y-77168654D01*
X199260450Y-77168655D01*
X199294785Y-77179811D01*
X199398631Y-77213553D01*
X199631903Y-77250500D01*
X199631908Y-77250500D01*
X199868096Y-77250500D01*
X199868097Y-77250500D01*
X200101368Y-77213553D01*
X200112872Y-77209815D01*
X200325992Y-77140568D01*
X200536433Y-77033343D01*
X200536441Y-77033336D01*
X200540587Y-77030797D01*
X200540917Y-77031335D01*
X200565826Y-77018193D01*
X200595210Y-77007709D01*
X200636873Y-77000500D01*
X203073937Y-77000500D01*
X203093335Y-77002027D01*
X203112371Y-77005042D01*
X203131290Y-77009584D01*
X203176219Y-77024182D01*
X203176220Y-77024182D01*
X203198235Y-77031335D01*
X203308756Y-77067246D01*
X203341651Y-77072456D01*
X203518713Y-77100500D01*
X203518714Y-77100500D01*
X203981286Y-77100500D01*
X203981287Y-77100500D01*
X204191243Y-77067246D01*
X204393412Y-77001557D01*
X204582816Y-76905051D01*
X204654738Y-76852797D01*
X204754786Y-76780109D01*
X204754787Y-76780107D01*
X204754843Y-76780067D01*
X204755605Y-76779290D01*
X204905104Y-76629792D01*
X204905106Y-76629788D01*
X204905109Y-76629786D01*
X205030048Y-76457820D01*
X205030047Y-76457820D01*
X205030051Y-76457816D01*
X205030053Y-76457810D01*
X205050445Y-76429744D01*
X205058730Y-76401529D01*
X205126557Y-76268412D01*
X205192246Y-76066243D01*
X205225500Y-75856287D01*
X205225500Y-75643713D01*
X205192246Y-75433757D01*
X205126557Y-75231588D01*
X205030051Y-75042184D01*
X205030049Y-75042181D01*
X205030048Y-75042179D01*
X205029702Y-75041703D01*
X205029700Y-75041699D01*
X204905112Y-74870216D01*
X204754788Y-74719892D01*
X204654740Y-74647205D01*
X204654736Y-74647202D01*
X204604623Y-74610791D01*
X204579317Y-74586198D01*
X204570844Y-74575210D01*
X204564373Y-74558591D01*
X204561959Y-74555460D01*
X204561620Y-74551521D01*
X204545494Y-74510104D01*
X204559368Y-74441626D01*
X204562636Y-74435433D01*
X204599414Y-74392990D01*
X204754792Y-74280104D01*
X204905104Y-74129792D01*
X204905106Y-74129788D01*
X204905109Y-74129786D01*
X205030048Y-73957820D01*
X205030047Y-73957820D01*
X205030051Y-73957816D01*
X205030053Y-73957810D01*
X205050445Y-73929744D01*
X205058730Y-73901529D01*
X205126557Y-73768412D01*
X205192246Y-73566243D01*
X205225500Y-73356287D01*
X205225500Y-73143713D01*
X205192246Y-72933757D01*
X205126557Y-72731588D01*
X205030051Y-72542184D01*
X205030049Y-72542181D01*
X205030048Y-72542179D01*
X205029702Y-72541703D01*
X205029700Y-72541699D01*
X204905112Y-72370216D01*
X204754794Y-72219898D01*
X204754788Y-72219893D01*
X204604627Y-72110795D01*
X204579316Y-72086197D01*
X204570843Y-72075209D01*
X204545494Y-72010100D01*
X204559368Y-71941626D01*
X204562636Y-71935433D01*
X204599414Y-71892990D01*
X204754792Y-71780104D01*
X204905104Y-71629792D01*
X204905106Y-71629788D01*
X204905109Y-71629786D01*
X204981429Y-71524740D01*
X205026288Y-71462996D01*
X205027228Y-71461701D01*
X205030051Y-71457816D01*
X205126557Y-71268412D01*
X205192246Y-71066243D01*
X205225500Y-70856287D01*
X205225500Y-70643713D01*
X205192246Y-70433757D01*
X205126557Y-70231588D01*
X205030051Y-70042184D01*
X205030049Y-70042181D01*
X205030048Y-70042179D01*
X205029702Y-70041703D01*
X205029700Y-70041699D01*
X204905112Y-69870216D01*
X204754794Y-69719898D01*
X204754788Y-69719893D01*
X204604627Y-69610795D01*
X204579316Y-69586197D01*
X204570843Y-69575209D01*
X204545494Y-69510100D01*
X204559368Y-69441626D01*
X204562636Y-69435433D01*
X204599414Y-69392990D01*
X204754792Y-69280104D01*
X204905104Y-69129792D01*
X204905106Y-69129788D01*
X204905109Y-69129786D01*
X205030048Y-68957820D01*
X205030047Y-68957820D01*
X205030051Y-68957816D01*
X205030053Y-68957810D01*
X205050445Y-68929744D01*
X205058730Y-68901529D01*
X205126557Y-68768412D01*
X205192246Y-68566243D01*
X205225500Y-68356287D01*
X205225500Y-68143713D01*
X205192246Y-67933757D01*
X205126557Y-67731588D01*
X205030051Y-67542184D01*
X205030049Y-67542181D01*
X205030048Y-67542179D01*
X205029702Y-67541703D01*
X205029700Y-67541699D01*
X204905112Y-67370216D01*
X204754793Y-67219897D01*
X204754785Y-67219890D01*
X204732530Y-67203720D01*
X204732507Y-67203705D01*
X204604627Y-67110795D01*
X204579316Y-67086197D01*
X204577698Y-67084099D01*
X204570842Y-67075208D01*
X204564374Y-67058595D01*
X204561961Y-67055465D01*
X204561622Y-67051526D01*
X204545494Y-67010100D01*
X204559368Y-66941626D01*
X204562636Y-66935433D01*
X204599414Y-66892990D01*
X204754792Y-66780104D01*
X204905104Y-66629792D01*
X204905106Y-66629788D01*
X204905109Y-66629786D01*
X205030048Y-66457820D01*
X205030047Y-66457820D01*
X205030051Y-66457816D01*
X205030053Y-66457810D01*
X205050445Y-66429744D01*
X205058730Y-66401529D01*
X205126557Y-66268412D01*
X205192246Y-66066243D01*
X205225500Y-65856287D01*
X205225500Y-65643713D01*
X205192246Y-65433757D01*
X205126557Y-65231588D01*
X205030051Y-65042184D01*
X205030049Y-65042181D01*
X205030048Y-65042179D01*
X205029702Y-65041703D01*
X205029700Y-65041699D01*
X204905112Y-64870216D01*
X204754794Y-64719898D01*
X204754788Y-64719893D01*
X204604627Y-64610795D01*
X204579316Y-64586197D01*
X204570843Y-64575209D01*
X204545494Y-64510100D01*
X204559368Y-64441626D01*
X204562636Y-64435433D01*
X204599414Y-64392990D01*
X204754792Y-64280104D01*
X204905104Y-64129792D01*
X204905106Y-64129788D01*
X204905109Y-64129786D01*
X205030048Y-63957820D01*
X205030047Y-63957820D01*
X205030051Y-63957816D01*
X205030053Y-63957810D01*
X205050445Y-63929744D01*
X205058730Y-63901529D01*
X205126557Y-63768412D01*
X205192246Y-63566243D01*
X205225500Y-63356287D01*
X205225500Y-63143713D01*
X205192246Y-62933757D01*
X205126557Y-62731588D01*
X205030051Y-62542184D01*
X205030049Y-62542181D01*
X205030048Y-62542179D01*
X205029702Y-62541703D01*
X205029700Y-62541699D01*
X204905112Y-62370216D01*
X204754788Y-62219892D01*
X204754786Y-62219890D01*
X204582820Y-62094951D01*
X204569167Y-62087994D01*
X204415245Y-62009567D01*
X204415240Y-62009565D01*
X204393414Y-61998444D01*
X204393413Y-61998443D01*
X204393412Y-61998443D01*
X204295004Y-61966468D01*
X204200074Y-61935623D01*
X204195552Y-61933770D01*
X204186362Y-61931600D01*
X204181599Y-61931226D01*
X204029957Y-61907208D01*
X204010489Y-61904124D01*
X203981290Y-61899500D01*
X203981287Y-61899500D01*
X203518713Y-61899500D01*
X203518712Y-61899500D01*
X203479200Y-61905757D01*
X203479199Y-61905756D01*
X203308760Y-61932752D01*
X203308757Y-61932753D01*
X203131290Y-61990415D01*
X203112377Y-61994956D01*
X203093341Y-61997972D01*
X203073937Y-61999500D01*
X200639758Y-61999500D01*
X200604823Y-61994477D01*
X200574908Y-61985693D01*
X200537333Y-61967306D01*
X200536502Y-61966706D01*
X200536436Y-61966659D01*
X200536435Y-61966658D01*
X200536433Y-61966657D01*
X200536432Y-61966656D01*
X200536423Y-61966650D01*
X200536062Y-61966468D01*
X200469893Y-61932753D01*
X200466896Y-61931226D01*
X200325996Y-61859433D01*
X200101368Y-61786446D01*
X200101362Y-61786445D01*
X199868102Y-61749500D01*
X199868097Y-61749500D01*
X199868092Y-61749500D01*
X199631908Y-61749500D01*
X199631903Y-61749500D01*
X199631898Y-61749500D01*
X199398636Y-61786445D01*
X199398634Y-61786445D01*
X199398631Y-61786446D01*
X199174003Y-61859433D01*
X199033103Y-61931226D01*
X198963562Y-61966659D01*
X198854549Y-62045861D01*
X198854550Y-62045862D01*
X198784361Y-62096858D01*
X198776980Y-62100991D01*
X198600991Y-62276980D01*
X198596858Y-62284361D01*
X198545862Y-62354550D01*
X198545861Y-62354549D01*
X198466659Y-62463562D01*
X198466657Y-62463566D01*
X198359433Y-62674003D01*
X198286446Y-62898631D01*
X198286445Y-62898634D01*
X198286445Y-62898636D01*
X198249500Y-63131896D01*
X188035802Y-63131896D01*
X187541425Y-63049500D01*
X186424791Y-62863393D01*
X186403330Y-62853006D01*
X186305656Y-62844385D01*
X186305643Y-62844385D01*
X186305641Y-62844385D01*
X186162980Y-62863272D01*
X186162972Y-62863273D01*
X186162968Y-62863275D01*
X186031394Y-62921594D01*
X185921582Y-63014620D01*
X185921581Y-63014622D01*
X185842420Y-63134823D01*
X185842287Y-63135264D01*
X185839395Y-63144719D01*
X185824380Y-63176648D01*
X185815783Y-63189703D01*
X185802170Y-63201235D01*
X185800963Y-63203069D01*
X185798957Y-63203957D01*
X185762478Y-63234864D01*
X185757371Y-63237128D01*
X185753465Y-63238859D01*
X185703210Y-63249500D01*
X180904933Y-63249500D01*
X180904932Y-63249499D01*
X180904932Y-63249500D01*
X180869997Y-63244477D01*
X180844755Y-63237065D01*
X180792010Y-63205769D01*
X180668824Y-63082583D01*
X180668823Y-63082582D01*
X180583603Y-63014622D01*
X180583601Y-63014620D01*
X180529181Y-62971221D01*
X180449248Y-62907477D01*
X180212857Y-62758942D01*
X180211798Y-62758256D01*
X180211440Y-62758052D01*
X179958418Y-62636203D01*
X179958404Y-62636197D01*
X179693353Y-62543450D01*
X179693332Y-62543443D01*
X179693320Y-62543440D01*
X179693317Y-62543439D01*
X179581467Y-62517910D01*
X179419514Y-62480945D01*
X179419479Y-62480939D01*
X179140437Y-62449500D01*
X179140431Y-62449500D01*
X179140425Y-62449500D01*
X178859575Y-62449500D01*
X178859568Y-62449500D01*
X178859561Y-62449500D01*
X178580519Y-62480939D01*
X178580484Y-62480945D01*
X178337554Y-62536392D01*
X178312203Y-62542179D01*
X178306678Y-62543440D01*
X178306666Y-62543443D01*
X178306645Y-62543450D01*
X178041594Y-62636197D01*
X178041572Y-62636206D01*
X177788562Y-62758049D01*
X177550754Y-62907475D01*
X177331175Y-63082582D01*
X177132582Y-63281175D01*
X176957475Y-63500754D01*
X176808056Y-63738551D01*
X176808046Y-63738569D01*
X176796169Y-63763231D01*
X176796169Y-63763235D01*
X176776486Y-63792531D01*
X176765551Y-63804643D01*
X176707237Y-63840874D01*
X176703246Y-63842001D01*
X176693250Y-63844826D01*
X176659529Y-63849500D01*
X174521695Y-63849500D01*
X174486756Y-63844476D01*
X174473438Y-63840565D01*
X174458439Y-63830925D01*
X174441334Y-63825902D01*
X174429660Y-63812429D01*
X174414661Y-63802789D01*
X174407254Y-63786568D01*
X174395581Y-63773096D01*
X174385639Y-63739232D01*
X174383851Y-63726793D01*
X174384278Y-63688754D01*
X174384482Y-63687535D01*
X174385505Y-63681394D01*
X174386186Y-63677312D01*
X174403808Y-63571576D01*
X174404660Y-63566466D01*
X174405615Y-63555650D01*
X174386726Y-63412973D01*
X174328406Y-63281397D01*
X174235378Y-63171581D01*
X174115180Y-63092423D01*
X174115179Y-63092422D01*
X174115178Y-63092422D01*
X174115178Y-63092421D01*
X174107747Y-63090148D01*
X174103910Y-63087966D01*
X174097458Y-63087002D01*
X173977558Y-63050337D01*
X173977550Y-63050335D01*
X173977549Y-63050335D01*
X173977546Y-63050334D01*
X173975379Y-63050067D01*
X173972793Y-63049968D01*
X173966729Y-63049500D01*
X173966724Y-63049500D01*
X171533277Y-63049500D01*
X171533263Y-63049500D01*
X171526779Y-63050000D01*
X171526780Y-63050001D01*
X171522451Y-63050334D01*
X171522449Y-63050334D01*
X171522441Y-63050336D01*
X171384855Y-63092411D01*
X171384836Y-63092417D01*
X171384824Y-63092421D01*
X171384821Y-63092422D01*
X171384820Y-63092422D01*
X171384816Y-63092424D01*
X171376442Y-63097600D01*
X171374275Y-63099366D01*
X171338173Y-63123142D01*
X171264623Y-63171580D01*
X171264618Y-63171585D01*
X171171595Y-63281392D01*
X171113275Y-63412968D01*
X171113270Y-63412994D01*
X171094385Y-63555641D01*
X171094385Y-63555644D01*
X171094385Y-63555657D01*
X171095339Y-63566452D01*
X171095342Y-63566479D01*
X171115518Y-63687531D01*
X171115518Y-63687535D01*
X171115519Y-63687537D01*
X171116306Y-63722822D01*
X171114638Y-63736597D01*
X171087037Y-63800784D01*
X171029126Y-63839856D01*
X171029118Y-63839858D01*
X171029116Y-63839860D01*
X171029113Y-63839860D01*
X171017152Y-63843665D01*
X170979563Y-63849500D01*
X167781898Y-63849500D01*
X167548636Y-63886445D01*
X167548634Y-63886445D01*
X167548631Y-63886446D01*
X167467757Y-63912724D01*
X167323998Y-63959434D01*
X167113572Y-64066653D01*
X167113569Y-64066654D01*
X167113565Y-64066657D01*
X166922488Y-64205484D01*
X166922486Y-64205486D01*
X166922485Y-64205486D01*
X165355486Y-65772485D01*
X165355479Y-65772494D01*
X165216663Y-65963554D01*
X165216653Y-65963570D01*
X165120658Y-66151974D01*
X165120650Y-66151991D01*
X165119292Y-66154657D01*
X165119291Y-66154659D01*
X165109434Y-66174002D01*
X165109433Y-66174006D01*
X165106028Y-66184483D01*
X165106022Y-66184498D01*
X165036445Y-66398634D01*
X164999500Y-66631896D01*
X164999500Y-67057670D01*
X164999499Y-67057676D01*
X164999500Y-67057679D01*
X164994475Y-67092612D01*
X164993353Y-67096431D01*
X164990070Y-67107612D01*
X164952327Y-67166355D01*
X164952292Y-67166385D01*
X164952291Y-67166387D01*
X164952289Y-67166387D01*
X164950958Y-67167542D01*
X164896097Y-67195018D01*
X164888539Y-67196663D01*
X164862168Y-67199500D01*
X162959623Y-67199500D01*
X162957692Y-67199659D01*
X162956045Y-67199885D01*
X162900016Y-67205908D01*
X162765166Y-67256204D01*
X162765165Y-67256205D01*
X162649956Y-67342450D01*
X162649955Y-67342452D01*
X162649952Y-67342455D01*
X162629170Y-67370216D01*
X162563705Y-67457665D01*
X162563701Y-67457671D01*
X162563700Y-67457673D01*
X162513411Y-67592507D01*
X162513411Y-67592509D01*
X162513409Y-67592517D01*
X162510342Y-67621034D01*
X162501617Y-67655219D01*
X162495636Y-67669661D01*
X162451798Y-67724068D01*
X162451784Y-67724078D01*
X162447412Y-67727113D01*
X162396593Y-67747645D01*
X162395625Y-67747802D01*
X162395057Y-67747894D01*
X162375168Y-67749500D01*
X161542329Y-67749500D01*
X161542324Y-67749499D01*
X161542322Y-67749500D01*
X161507388Y-67744475D01*
X161492389Y-67740070D01*
X161433643Y-67702327D01*
X161433614Y-67702293D01*
X161433613Y-67702293D01*
X161433612Y-67702291D01*
X161432456Y-67700958D01*
X161404976Y-67646083D01*
X161403331Y-67638521D01*
X161400499Y-67612168D01*
X161400499Y-67200008D01*
X161400499Y-67199998D01*
X161400498Y-67199981D01*
X161389999Y-67097203D01*
X161389998Y-67097200D01*
X161372697Y-67044989D01*
X161334814Y-66930666D01*
X161242712Y-66781344D01*
X161118656Y-66657288D01*
X160969334Y-66565186D01*
X160811265Y-66512807D01*
X160808445Y-66511641D01*
X160802792Y-66509999D01*
X160700019Y-66499500D01*
X160700010Y-66499500D01*
X159299998Y-66499500D01*
X159299981Y-66499501D01*
X159285959Y-66500933D01*
X159197198Y-66510000D01*
X159197193Y-66510001D01*
X159197032Y-66510056D01*
X159030667Y-66565185D01*
X159030665Y-66565186D01*
X159030663Y-66565187D01*
X158943704Y-66618824D01*
X158881340Y-66657290D01*
X158757290Y-66781340D01*
X158757289Y-66781342D01*
X158669297Y-66924001D01*
X158665185Y-66930667D01*
X158665178Y-66930685D01*
X158642211Y-66999999D01*
X158642210Y-67000002D01*
X158620298Y-67066124D01*
X158611852Y-67079067D01*
X158610365Y-67093630D01*
X158609542Y-67099881D01*
X158609387Y-67102913D01*
X158609396Y-67103104D01*
X158609355Y-67103514D01*
X158599500Y-67199983D01*
X155000500Y-67199983D01*
X155000500Y-60142329D01*
X155005523Y-60107393D01*
X155009927Y-60092395D01*
X155047672Y-60033644D01*
X155047700Y-60033619D01*
X155047699Y-60033619D01*
X155049041Y-60032456D01*
X155103920Y-60004977D01*
X155111479Y-60003333D01*
X155137832Y-60000500D01*
X207857670Y-60000500D01*
X207892606Y-60005523D01*
G37*
%TD.AperFunction*%
%TD*%
%TA.AperFunction,Conductor*%
%TO.N,/half_bridge1/OUT*%
G36*
X207892606Y-93105023D02*
G01*
X207907604Y-93109427D01*
X207922594Y-93119057D01*
X207939675Y-93124067D01*
X207966355Y-93147172D01*
X207967542Y-93148541D01*
X207995018Y-93203402D01*
X207996663Y-93210960D01*
X207999500Y-93237331D01*
X207999500Y-96758170D01*
X207994475Y-96793114D01*
X207990070Y-96808112D01*
X207980439Y-96823101D01*
X207975432Y-96840175D01*
X207952327Y-96866855D01*
X207950958Y-96868042D01*
X207896097Y-96895518D01*
X207888539Y-96897163D01*
X207862168Y-96900000D01*
X201569192Y-96900000D01*
X201534256Y-96894977D01*
X201509014Y-96887565D01*
X201456269Y-96856269D01*
X200798926Y-96198926D01*
X200798921Y-96198921D01*
X200777774Y-96170670D01*
X200765167Y-96147581D01*
X200750000Y-96088156D01*
X200750000Y-93919191D01*
X200755022Y-93884258D01*
X200762434Y-93859013D01*
X200793728Y-93806271D01*
X201451076Y-93148923D01*
X201479326Y-93127775D01*
X201502418Y-93115167D01*
X201561843Y-93100000D01*
X207857670Y-93100000D01*
X207892606Y-93105023D01*
G37*
%TD.AperFunction*%
%TD*%
%TA.AperFunction,Conductor*%
%TO.N,+24V*%
G36*
X207892078Y-123754056D02*
G01*
X207907087Y-123758461D01*
X207922094Y-123768102D01*
X207939209Y-123773129D01*
X207965844Y-123796210D01*
X207965865Y-123796224D01*
X207965879Y-123796240D01*
X207965882Y-123796243D01*
X207967069Y-123797613D01*
X207994513Y-123852428D01*
X207996159Y-123859987D01*
X207998998Y-123886350D01*
X207999500Y-126947762D01*
X207999500Y-129857670D01*
X207999499Y-129857676D01*
X207999500Y-129857679D01*
X207994475Y-129892614D01*
X207990070Y-129907612D01*
X207952327Y-129966355D01*
X207952292Y-129966385D01*
X207952291Y-129966387D01*
X207952289Y-129966387D01*
X207950958Y-129967542D01*
X207896097Y-129995018D01*
X207888539Y-129996663D01*
X207862168Y-129999500D01*
X207261282Y-129999500D01*
X201639628Y-129995694D01*
X201639625Y-129995693D01*
X201639625Y-129995694D01*
X201604698Y-129990647D01*
X201589698Y-129986232D01*
X201530949Y-129948417D01*
X201529752Y-129947034D01*
X201502349Y-129892188D01*
X201500709Y-129884627D01*
X201497894Y-129858271D01*
X201497894Y-129857670D01*
X201501933Y-123891791D01*
X201506979Y-123856875D01*
X201511396Y-123841871D01*
X201549186Y-123783145D01*
X201550586Y-123781934D01*
X201605406Y-123754518D01*
X201612931Y-123752883D01*
X201639218Y-123750058D01*
X207857155Y-123749040D01*
X207892078Y-123754056D01*
G37*
%TD.AperFunction*%
%TD*%
%TA.AperFunction,Conductor*%
%TO.N,Net-(D15-K)*%
G36*
X192188066Y-116320057D02*
G01*
X192255096Y-116339767D01*
X192300831Y-116392589D01*
X192312017Y-116444057D01*
X192312017Y-117572075D01*
X192292332Y-117639114D01*
X192265017Y-117669271D01*
X191912017Y-117948922D01*
X191912017Y-121845105D01*
X191912016Y-121845105D01*
X192162417Y-122032905D01*
X192204238Y-122088876D01*
X192212017Y-122132105D01*
X192212017Y-123672729D01*
X192192332Y-123739768D01*
X192139528Y-123785523D01*
X192089422Y-123796721D01*
X191432251Y-123804166D01*
X191364993Y-123785242D01*
X191344448Y-123769120D01*
X187649751Y-120180283D01*
X187615379Y-120119453D01*
X187612149Y-120091357D01*
X187611868Y-117160851D01*
X187631546Y-117093811D01*
X187649517Y-117071848D01*
X188389683Y-116353647D01*
X188451503Y-116321091D01*
X188476077Y-116318640D01*
X192188066Y-116320057D01*
G37*
%TD.AperFunction*%
%TD*%
%TA.AperFunction,Conductor*%
%TO.N,Net-(D10-K)*%
G36*
X192141406Y-94034461D02*
G01*
X192208436Y-94054171D01*
X192254171Y-94106993D01*
X192265357Y-94158461D01*
X192265357Y-95120002D01*
X192245672Y-95187041D01*
X192218357Y-95217198D01*
X191865357Y-95496847D01*
X191865357Y-99559509D01*
X191865356Y-99559509D01*
X192115757Y-99747309D01*
X192157578Y-99803280D01*
X192165357Y-99846509D01*
X192165357Y-101311906D01*
X192145672Y-101378945D01*
X192092868Y-101424700D01*
X192042762Y-101435898D01*
X191309038Y-101444211D01*
X191241780Y-101425287D01*
X191221235Y-101409165D01*
X189612486Y-99846509D01*
X187603090Y-97894686D01*
X187568719Y-97833857D01*
X187565489Y-97805761D01*
X187565208Y-94875255D01*
X187584886Y-94808215D01*
X187602857Y-94786252D01*
X188343023Y-94068051D01*
X188404843Y-94035495D01*
X188429417Y-94033044D01*
X192141406Y-94034461D01*
G37*
%TD.AperFunction*%
%TD*%
%TA.AperFunction,Conductor*%
%TO.N,+12V*%
G36*
X207942539Y-118519685D02*
G01*
X207988294Y-118572489D01*
X207999500Y-118624000D01*
X207999500Y-123126000D01*
X207979815Y-123193039D01*
X207927011Y-123238794D01*
X207875500Y-123250000D01*
X201624000Y-123250000D01*
X201556961Y-123230315D01*
X201511206Y-123177511D01*
X201500000Y-123126000D01*
X201500000Y-118624000D01*
X201519685Y-118556961D01*
X201572489Y-118511206D01*
X201624000Y-118500000D01*
X207875500Y-118500000D01*
X207942539Y-118519685D01*
G37*
%TD.AperFunction*%
%TD*%
%TA.AperFunction,Conductor*%
%TO.N,Net-(D7-K)*%
G36*
X166680885Y-93554128D02*
G01*
X166701472Y-93570707D01*
X166941377Y-93810301D01*
X166974902Y-93871602D01*
X166977753Y-93897966D01*
X166978452Y-95077574D01*
X166958807Y-95144625D01*
X166920842Y-95182377D01*
X166665357Y-95344333D01*
X166665357Y-95344334D01*
X166665357Y-99534508D01*
X166910141Y-99697697D01*
X166955001Y-99751261D01*
X166965357Y-99800870D01*
X166965357Y-101183147D01*
X166945672Y-101250186D01*
X166929038Y-101270828D01*
X166751676Y-101448190D01*
X166690353Y-101481675D01*
X166663995Y-101484509D01*
X166265428Y-101484509D01*
X166198389Y-101464824D01*
X166179326Y-101449742D01*
X165765862Y-101050785D01*
X164090812Y-99434509D01*
X164090811Y-99434509D01*
X163446706Y-99434509D01*
X163379667Y-99414824D01*
X163357692Y-99396837D01*
X162134947Y-98136035D01*
X162102405Y-98074206D01*
X162099961Y-98049802D01*
X162097505Y-94854787D01*
X162117138Y-94787735D01*
X162133751Y-94767086D01*
X163328110Y-93570890D01*
X163389404Y-93537361D01*
X163415843Y-93534507D01*
X166613846Y-93534445D01*
X166680885Y-93554128D01*
G37*
%TD.AperFunction*%
%TD*%
%TA.AperFunction,Conductor*%
%TO.N,/half_bridge/OUT*%
G36*
X207942539Y-88519685D02*
G01*
X207988294Y-88572489D01*
X207999500Y-88624000D01*
X207999500Y-92376000D01*
X207979815Y-92443039D01*
X207927011Y-92488794D01*
X207875500Y-92500000D01*
X201551362Y-92500000D01*
X201484323Y-92480315D01*
X201463681Y-92463681D01*
X200786319Y-91786319D01*
X200752834Y-91724996D01*
X200750000Y-91698638D01*
X200750000Y-89301362D01*
X200769685Y-89234323D01*
X200786319Y-89213681D01*
X201463681Y-88536319D01*
X201525004Y-88502834D01*
X201551362Y-88500000D01*
X207875500Y-88500000D01*
X207942539Y-88519685D01*
G37*
%TD.AperFunction*%
%TD*%
D42*
X179000000Y-109537500D03*
X178950000Y-87250000D03*
X179000000Y-64950000D03*
X182500000Y-127000000D03*
X199750000Y-75750000D03*
X199750000Y-73250000D03*
X168250000Y-127500000D03*
X199750000Y-70750000D03*
X182500000Y-104750000D03*
X168250000Y-105250000D03*
X199750000Y-68250000D03*
X182500000Y-82500000D03*
X199750000Y-65750000D03*
X199750000Y-63250000D03*
X168250000Y-83000000D03*
X169000000Y-78780000D03*
X167730000Y-80050000D03*
X166460000Y-78780000D03*
X169000000Y-123387500D03*
X167730000Y-124657500D03*
X166460000Y-123387500D03*
X160480000Y-77980000D03*
X161750000Y-79250000D03*
X160480000Y-80520000D03*
X203417500Y-125250000D03*
X203417500Y-120250000D03*
X203417500Y-115250000D03*
X175184785Y-75750000D03*
X180184785Y-75750000D03*
X194270000Y-117277500D03*
X193000000Y-118547500D03*
X191730000Y-117277500D03*
X194270000Y-78790000D03*
X193000000Y-80060000D03*
X191730000Y-78790000D03*
X194270000Y-123477500D03*
X193000000Y-124747500D03*
X191730000Y-123477500D03*
X160490000Y-122667500D03*
X161760000Y-123937500D03*
X160490000Y-125207500D03*
X169000000Y-72580000D03*
X167730000Y-73850000D03*
X166460000Y-72580000D03*
X168950000Y-94850000D03*
X167680000Y-96120000D03*
X166410000Y-94850000D03*
X194220000Y-94890000D03*
X192950000Y-96160000D03*
X191680000Y-94890000D03*
X175184785Y-120337500D03*
X180184785Y-120337500D03*
X202817500Y-98810000D03*
X202817500Y-95000000D03*
X202817500Y-91190000D03*
X203750000Y-78250000D03*
X203750000Y-75750000D03*
X203750000Y-73250000D03*
X203750000Y-70750000D03*
X203750000Y-68250000D03*
X203750000Y-65750000D03*
X203750000Y-63250000D03*
X194270000Y-72590000D03*
X193000000Y-73860000D03*
X191730000Y-72590000D03*
X185460000Y-68700000D03*
X188000000Y-68700000D03*
X190540000Y-68700000D03*
X160415000Y-100280000D03*
X161685000Y-101550000D03*
X160415000Y-102820000D03*
X175134785Y-98050000D03*
X180134785Y-98050000D03*
X188555201Y-101141139D03*
X187285201Y-102411139D03*
X186015201Y-101141139D03*
X188670000Y-78780000D03*
X187400000Y-80050000D03*
X186130000Y-78780000D03*
X185410000Y-91000000D03*
X187950000Y-91000000D03*
X190490000Y-91000000D03*
X163910000Y-91000000D03*
X166450000Y-91000000D03*
X168990000Y-91000000D03*
X185460000Y-113287500D03*
X188000000Y-113287500D03*
X190540000Y-113287500D03*
X188670000Y-123517500D03*
X187400000Y-124787500D03*
X186130000Y-123517500D03*
X163960000Y-113287500D03*
X166500000Y-113287500D03*
X169040000Y-113287500D03*
X194220000Y-101090000D03*
X192950000Y-102360000D03*
X191680000Y-101090000D03*
X168950000Y-101000000D03*
X167680000Y-102270000D03*
X166410000Y-101000000D03*
X168990686Y-117283396D03*
X167720686Y-118553396D03*
X166450686Y-117283396D03*
X163960000Y-68700000D03*
X166500000Y-68700000D03*
X169040000Y-68700000D03*
M02*
