%TF.GenerationSoftware,KiCad,Pcbnew,10.0.1*%
%TF.CreationDate,2026-04-24T11:43:44+02:00*%
%TF.ProjectId,BLDC,424c4443-2e6b-4696-9361-645f70636258,rev?*%
%TF.SameCoordinates,Original*%
%TF.FileFunction,Soldermask,Top*%
%TF.FilePolarity,Negative*%
%FSLAX46Y46*%
G04 Gerber Fmt 4.6, Leading zero omitted, Abs format (unit mm)*
G04 Created by KiCad (PCBNEW 10.0.1) date 2026-04-24 11:43:44*
%MOMM*%
%LPD*%
G01*
G04 APERTURE LIST*
G04 Aperture macros list*
%AMRoundRect*
0 Rectangle with rounded corners*
0 $1 Rounding radius*
0 $2 $3 $4 $5 $6 $7 $8 $9 X,Y pos of 4 corners*
0 Add a 4 corners polygon primitive as box body*
4,1,4,$2,$3,$4,$5,$6,$7,$8,$9,$2,$3,0*
0 Add four circle primitives for the rounded corners*
1,1,$1+$1,$2,$3*
1,1,$1+$1,$4,$5*
1,1,$1+$1,$6,$7*
1,1,$1+$1,$8,$9*
0 Add four rect primitives between the rounded corners*
20,1,$1+$1,$2,$3,$4,$5,0*
20,1,$1+$1,$4,$5,$6,$7,0*
20,1,$1+$1,$6,$7,$8,$9,0*
20,1,$1+$1,$8,$9,$2,$3,0*%
G04 Aperture macros list end*
%ADD10R,1.100000X1.800000*%
%ADD11RoundRect,0.275000X0.275000X0.625000X-0.275000X0.625000X-0.275000X-0.625000X0.275000X-0.625000X0*%
%ADD12R,1.800000X1.100000*%
%ADD13RoundRect,0.275000X-0.625000X0.275000X-0.625000X-0.275000X0.625000X-0.275000X0.625000X0.275000X0*%
%ADD14RoundRect,0.250000X1.000000X-1.000000X1.000000X1.000000X-1.000000X1.000000X-1.000000X-1.000000X0*%
%ADD15C,2.500000*%
%ADD16RoundRect,0.250001X-0.949999X-0.949999X0.949999X-0.949999X0.949999X0.949999X-0.949999X0.949999X0*%
%ADD17C,2.400000*%
%ADD18RoundRect,0.250000X1.550000X-0.650000X1.550000X0.650000X-1.550000X0.650000X-1.550000X-0.650000X0*%
%ADD19O,3.600000X1.800000*%
%ADD20RoundRect,0.250000X0.725000X-0.600000X0.725000X0.600000X-0.725000X0.600000X-0.725000X-0.600000X0*%
%ADD21O,1.950000X1.700000*%
%ADD22R,1.905000X2.000000*%
%ADD23O,1.905000X2.000000*%
%ADD24C,0.350000*%
G04 APERTURE END LIST*
D10*
%TO.C,Q3*%
X169000000Y-78380000D03*
D11*
X167730000Y-80450000D03*
X166460000Y-78380000D03*
%TD*%
D10*
%TO.C,Q19*%
X169000000Y-122987500D03*
D11*
X167730000Y-125057500D03*
X166460000Y-122987500D03*
%TD*%
D12*
%TO.C,Q4*%
X160080000Y-77980000D03*
D13*
X162150000Y-79250000D03*
X160080000Y-80520000D03*
%TD*%
D14*
%TO.C,J1*%
X203417500Y-125250000D03*
D15*
X203417500Y-120250000D03*
X203417500Y-115250000D03*
%TD*%
D16*
%TO.C,C1*%
X175184785Y-75750000D03*
D17*
X180184785Y-75750000D03*
%TD*%
D10*
%TO.C,Q23*%
X194270000Y-116877500D03*
D11*
X193000000Y-118947500D03*
X191730000Y-116877500D03*
%TD*%
D10*
%TO.C,Q5*%
X194270000Y-78390000D03*
D11*
X193000000Y-80460000D03*
X191730000Y-78390000D03*
%TD*%
D10*
%TO.C,Q21*%
X194270000Y-123077500D03*
D11*
X193000000Y-125147500D03*
X191730000Y-123077500D03*
%TD*%
D12*
%TO.C,Q20*%
X160090000Y-122667500D03*
D13*
X162160000Y-123937500D03*
X160090000Y-125207500D03*
%TD*%
D10*
%TO.C,Q1*%
X169000000Y-72180000D03*
D11*
X167730000Y-74250000D03*
X166460000Y-72180000D03*
%TD*%
D10*
%TO.C,Q9*%
X168950000Y-94450000D03*
D11*
X167680000Y-96520000D03*
X166410000Y-94450000D03*
%TD*%
D10*
%TO.C,Q15*%
X194220000Y-94490000D03*
D11*
X192950000Y-96560000D03*
X191680000Y-94490000D03*
%TD*%
D16*
%TO.C,C3*%
X175184785Y-120337500D03*
D17*
X180184785Y-120337500D03*
%TD*%
D18*
%TO.C,J2*%
X202817500Y-98810000D03*
D19*
X202817500Y-95000000D03*
X202817500Y-91190000D03*
%TD*%
D20*
%TO.C,J3*%
X203750000Y-78250000D03*
D21*
X203750000Y-75750000D03*
X203750000Y-73250000D03*
X203750000Y-70750000D03*
X203750000Y-68250000D03*
X203750000Y-65750000D03*
X203750000Y-63250000D03*
%TD*%
D10*
%TO.C,Q7*%
X194270000Y-72190000D03*
D11*
X193000000Y-74260000D03*
X191730000Y-72190000D03*
%TD*%
D22*
%TO.C,Q6*%
X185460000Y-68700000D03*
D23*
X188000000Y-68700000D03*
X190540000Y-68700000D03*
%TD*%
D12*
%TO.C,Q12*%
X160015000Y-100280000D03*
D13*
X162085000Y-101550000D03*
X160015000Y-102820000D03*
%TD*%
D16*
%TO.C,C2*%
X175134785Y-98050000D03*
D17*
X180134785Y-98050000D03*
%TD*%
D10*
%TO.C,Q16*%
X188555201Y-100741139D03*
D11*
X187285201Y-102811139D03*
X186015201Y-100741139D03*
%TD*%
D10*
%TO.C,Q8*%
X188670000Y-78380000D03*
D11*
X187400000Y-80450000D03*
X186130000Y-78380000D03*
%TD*%
D22*
%TO.C,Q14*%
X185410000Y-91000000D03*
D23*
X187950000Y-91000000D03*
X190490000Y-91000000D03*
%TD*%
D22*
%TO.C,Q10*%
X163910000Y-91000000D03*
D23*
X166450000Y-91000000D03*
X168990000Y-91000000D03*
%TD*%
D22*
%TO.C,Q22*%
X185460000Y-113287500D03*
D23*
X188000000Y-113287500D03*
X190540000Y-113287500D03*
%TD*%
D10*
%TO.C,Q24*%
X188670000Y-123117500D03*
D11*
X187400000Y-125187500D03*
X186130000Y-123117500D03*
%TD*%
D22*
%TO.C,Q18*%
X163960000Y-113287500D03*
D23*
X166500000Y-113287500D03*
X169040000Y-113287500D03*
%TD*%
D10*
%TO.C,Q13*%
X194220000Y-100690000D03*
D11*
X192950000Y-102760000D03*
X191680000Y-100690000D03*
%TD*%
D10*
%TO.C,Q11*%
X168950000Y-100600000D03*
D11*
X167680000Y-102670000D03*
X166410000Y-100600000D03*
%TD*%
D10*
%TO.C,Q17*%
X168990686Y-116883396D03*
D11*
X167720686Y-118953396D03*
X166450686Y-116883396D03*
%TD*%
D22*
%TO.C,Q2*%
X163960000Y-68700000D03*
D23*
X166500000Y-68700000D03*
X169040000Y-68700000D03*
%TD*%
D24*
X169000000Y-78780000D03*
X167730000Y-80050000D03*
X166460000Y-78780000D03*
X169000000Y-123387500D03*
X167730000Y-124657500D03*
X166460000Y-123387500D03*
X160480000Y-77980000D03*
X161750000Y-79250000D03*
X160480000Y-80520000D03*
X203417500Y-125250000D03*
X203417500Y-120250000D03*
X203417500Y-115250000D03*
X175184785Y-75750000D03*
X180184785Y-75750000D03*
X194270000Y-117277500D03*
X193000000Y-118547500D03*
X191730000Y-117277500D03*
X194270000Y-78790000D03*
X193000000Y-80060000D03*
X191730000Y-78790000D03*
X194270000Y-123477500D03*
X193000000Y-124747500D03*
X191730000Y-123477500D03*
X160490000Y-122667500D03*
X161760000Y-123937500D03*
X160490000Y-125207500D03*
X169000000Y-72580000D03*
X167730000Y-73850000D03*
X166460000Y-72580000D03*
X168950000Y-94850000D03*
X167680000Y-96120000D03*
X166410000Y-94850000D03*
X194220000Y-94890000D03*
X192950000Y-96160000D03*
X191680000Y-94890000D03*
X175184785Y-120337500D03*
X180184785Y-120337500D03*
X202817500Y-98810000D03*
X202817500Y-95000000D03*
X202817500Y-91190000D03*
X203750000Y-78250000D03*
X203750000Y-75750000D03*
X203750000Y-73250000D03*
X203750000Y-70750000D03*
X203750000Y-68250000D03*
X203750000Y-65750000D03*
X203750000Y-63250000D03*
X194270000Y-72590000D03*
X193000000Y-73860000D03*
X191730000Y-72590000D03*
X185460000Y-68700000D03*
X188000000Y-68700000D03*
X190540000Y-68700000D03*
X160415000Y-100280000D03*
X161685000Y-101550000D03*
X160415000Y-102820000D03*
X175134785Y-98050000D03*
X180134785Y-98050000D03*
X188555201Y-101141139D03*
X187285201Y-102411139D03*
X186015201Y-101141139D03*
X188670000Y-78780000D03*
X187400000Y-80050000D03*
X186130000Y-78780000D03*
X185410000Y-91000000D03*
X187950000Y-91000000D03*
X190490000Y-91000000D03*
X163910000Y-91000000D03*
X166450000Y-91000000D03*
X168990000Y-91000000D03*
X185460000Y-113287500D03*
X188000000Y-113287500D03*
X190540000Y-113287500D03*
X188670000Y-123517500D03*
X187400000Y-124787500D03*
X186130000Y-123517500D03*
X163960000Y-113287500D03*
X166500000Y-113287500D03*
X169040000Y-113287500D03*
X194220000Y-101090000D03*
X192950000Y-102360000D03*
X191680000Y-101090000D03*
X168950000Y-101000000D03*
X167680000Y-102270000D03*
X166410000Y-101000000D03*
X168990686Y-117283396D03*
X167720686Y-118553396D03*
X166450686Y-117283396D03*
X163960000Y-68700000D03*
X166500000Y-68700000D03*
X169040000Y-68700000D03*
M02*
