%TF.GenerationSoftware,KiCad,Pcbnew,10.0.1*%
%TF.CreationDate,2026-04-24T11:43:44+02:00*%
%TF.ProjectId,BLDC,424c4443-2e6b-4696-9361-645f70636258,rev?*%
%TF.SameCoordinates,Original*%
%TF.FileFunction,Paste,Top*%
%TF.FilePolarity,Positive*%
%FSLAX46Y46*%
G04 Gerber Fmt 4.6, Leading zero omitted, Abs format (unit mm)*
G04 Created by KiCad (PCBNEW 10.0.1) date 2026-04-24 11:43:44*
%MOMM*%
%LPD*%
G01*
G04 APERTURE LIST*
%ADD10C,0.350000*%
G04 APERTURE END LIST*
D10*
X169000000Y-78780000D03*
X167730000Y-80050000D03*
X166460000Y-78780000D03*
X169000000Y-123387500D03*
X167730000Y-124657500D03*
X166460000Y-123387500D03*
X160480000Y-77980000D03*
X161750000Y-79250000D03*
X160480000Y-80520000D03*
X203417500Y-125250000D03*
X203417500Y-120250000D03*
X203417500Y-115250000D03*
X175184785Y-75750000D03*
X180184785Y-75750000D03*
X194270000Y-117277500D03*
X193000000Y-118547500D03*
X191730000Y-117277500D03*
X194270000Y-78790000D03*
X193000000Y-80060000D03*
X191730000Y-78790000D03*
X194270000Y-123477500D03*
X193000000Y-124747500D03*
X191730000Y-123477500D03*
X160490000Y-122667500D03*
X161760000Y-123937500D03*
X160490000Y-125207500D03*
X169000000Y-72580000D03*
X167730000Y-73850000D03*
X166460000Y-72580000D03*
X168950000Y-94850000D03*
X167680000Y-96120000D03*
X166410000Y-94850000D03*
X194220000Y-94890000D03*
X192950000Y-96160000D03*
X191680000Y-94890000D03*
X175184785Y-120337500D03*
X180184785Y-120337500D03*
X202817500Y-98810000D03*
X202817500Y-95000000D03*
X202817500Y-91190000D03*
X203750000Y-78250000D03*
X203750000Y-75750000D03*
X203750000Y-73250000D03*
X203750000Y-70750000D03*
X203750000Y-68250000D03*
X203750000Y-65750000D03*
X203750000Y-63250000D03*
X194270000Y-72590000D03*
X193000000Y-73860000D03*
X191730000Y-72590000D03*
X185460000Y-68700000D03*
X188000000Y-68700000D03*
X190540000Y-68700000D03*
X160415000Y-100280000D03*
X161685000Y-101550000D03*
X160415000Y-102820000D03*
X175134785Y-98050000D03*
X180134785Y-98050000D03*
X188555201Y-101141139D03*
X187285201Y-102411139D03*
X186015201Y-101141139D03*
X188670000Y-78780000D03*
X187400000Y-80050000D03*
X186130000Y-78780000D03*
X185410000Y-91000000D03*
X187950000Y-91000000D03*
X190490000Y-91000000D03*
X163910000Y-91000000D03*
X166450000Y-91000000D03*
X168990000Y-91000000D03*
X185460000Y-113287500D03*
X188000000Y-113287500D03*
X190540000Y-113287500D03*
X188670000Y-123517500D03*
X187400000Y-124787500D03*
X186130000Y-123517500D03*
X163960000Y-113287500D03*
X166500000Y-113287500D03*
X169040000Y-113287500D03*
X194220000Y-101090000D03*
X192950000Y-102360000D03*
X191680000Y-101090000D03*
X168950000Y-101000000D03*
X167680000Y-102270000D03*
X166410000Y-101000000D03*
X168990686Y-117283396D03*
X167720686Y-118553396D03*
X166450686Y-117283396D03*
X163960000Y-68700000D03*
X166500000Y-68700000D03*
X169040000Y-68700000D03*
M02*
