M48
; DRILL file KiCad 10.0.1 date 2026-04-24T11:43:44
; FORMAT={-:-/ absolute / metric / decimal}
; #@! TF.CreationDate,2026-04-24T11:43:44+02:00
; #@! TF.GenerationSoftware,Kicad,Pcbnew,10.0.1
; #@! TF.FileFunction,Plated,1,2,PTH
FMAT,2
METRIC
; #@! TA.AperFunction,Plated,PTH,ComponentDrill
T1C0.750
; #@! TA.AperFunction,Plated,PTH,ComponentDrill
T2C0.950
; #@! TA.AperFunction,Plated,PTH,ViaDrill
T3C1.000
; #@! TA.AperFunction,Plated,PTH,ComponentDrill
T4C1.100
; #@! TA.AperFunction,Plated,PTH,ComponentDrill
T5C1.200
; #@! TA.AperFunction,Plated,PTH,ComponentDrill
T6C1.300
; #@! TA.AperFunction,Plated,PTH,ViaDrill
T7C2.000
%
G90
G05
T1
X160.415Y-100.28
X160.415Y-102.82
X160.48Y-77.98
X160.48Y-80.52
X160.49Y-122.667
X160.49Y-125.207
X161.685Y-101.55
X161.75Y-79.25
X161.76Y-123.938
X166.41Y-94.85
X166.41Y-101.0
X166.451Y-117.283
X166.46Y-72.58
X166.46Y-78.78
X166.46Y-123.387
X167.68Y-96.12
X167.68Y-102.27
X167.721Y-118.553
X167.73Y-73.85
X167.73Y-80.05
X167.73Y-124.657
X168.95Y-94.85
X168.95Y-101.0
X168.991Y-117.283
X169.0Y-72.58
X169.0Y-78.78
X169.0Y-123.387
X186.015Y-101.141
X186.13Y-78.78
X186.13Y-123.517
X187.285Y-102.411
X187.4Y-80.05
X187.4Y-124.787
X188.555Y-101.141
X188.67Y-78.78
X188.67Y-123.517
X191.68Y-94.89
X191.68Y-101.09
X191.73Y-72.59
X191.73Y-78.79
X191.73Y-117.277
X191.73Y-123.477
X192.95Y-96.16
X192.95Y-102.36
X193.0Y-73.86
X193.0Y-80.06
X193.0Y-118.547
X193.0Y-124.747
X194.22Y-94.89
X194.22Y-101.09
X194.27Y-72.59
X194.27Y-78.79
X194.27Y-117.277
X194.27Y-123.477
T2
X203.75Y-63.25
X203.75Y-65.75
X203.75Y-68.25
X203.75Y-70.75
X203.75Y-73.25
X203.75Y-75.75
X203.75Y-78.25
T3
X168.25Y-83.0
X168.25Y-105.25
X168.25Y-127.5
X182.5Y-82.5
X182.5Y-104.75
X182.5Y-127.0
X199.75Y-63.25
X199.75Y-65.75
X199.75Y-68.25
X199.75Y-70.75
X199.75Y-73.25
X199.75Y-75.75
T4
X163.91Y-91.0
X163.96Y-68.7
X163.96Y-113.287
X166.45Y-91.0
X166.5Y-68.7
X166.5Y-113.287
X168.99Y-91.0
X169.04Y-68.7
X169.04Y-113.287
X185.41Y-91.0
X185.46Y-68.7
X185.46Y-113.287
X187.95Y-91.0
X188.0Y-68.7
X188.0Y-113.287
X190.49Y-91.0
X190.54Y-68.7
X190.54Y-113.287
T5
X175.135Y-98.05
X175.185Y-75.75
X175.185Y-120.337
X180.135Y-98.05
X180.185Y-75.75
X180.185Y-120.337
X202.817Y-91.19
X202.817Y-95.0
X202.817Y-98.81
T6
X203.417Y-115.25
X203.417Y-120.25
X203.417Y-125.25
T7
X178.95Y-87.25
X179.0Y-64.95
X179.0Y-109.537
M30
